# Blender v2.79 (sub 0) OBJ File: 'male.blend'
# www.blender.org
mtllib abdomen.mtl
o male_09_abdomen_middle
v 0.000000 43.086006 4.226121
v -0.996849 43.079716 4.578342
v -0.966352 42.170433 4.757553
v 0.000000 42.147442 4.496248
v -0.962659 41.094498 4.885858
v 0.000000 41.122284 4.806880
v -0.968592 39.930798 4.964724
v 0.000000 39.982388 4.788563
v -0.910260 38.817520 4.577437
v 0.000000 38.864624 4.432921
v -0.868620 37.764931 4.577452
v 0.000000 37.768723 4.477111
v -0.826423 36.781246 4.672897
v 0.000000 36.789688 4.608871
v -0.779573 35.930229 4.543460
v 0.000000 35.928284 4.537779
v -5.475724 40.080257 -0.504454
v -5.124412 39.482372 -0.243134
v -5.005713 39.807568 0.668748
v -5.147621 40.461494 0.403610
v -4.578176 41.255886 2.090364
v -4.453714 40.544113 2.300296
v -4.109601 40.973686 3.038909
v -4.049520 41.723724 2.717219
v -4.904613 40.833199 1.299906
v -4.878764 40.145302 1.565868
v -4.658608 39.443516 1.731948
v -4.443783 39.770500 2.536347
v -4.808990 39.149364 0.885399
v -4.609148 38.481632 1.059255
v -4.482062 38.715443 1.862706
v -4.798751 38.882469 0.011202
v -4.552040 38.266277 0.238701
v -4.397659 37.984428 1.955582
v -4.057224 38.171116 2.631642
v -4.263428 38.963840 2.627377
v -4.565392 37.803860 1.188465
v -4.514277 37.187061 1.239678
v -4.315652 37.316219 1.983881
v -4.463432 37.633690 0.405093
v -4.451158 37.048931 0.478325
v -4.331005 36.718620 1.974314
v -3.968674 36.766907 2.659447
v -3.939460 37.428802 2.632693
v -4.577545 36.635406 1.227658
v -4.641317 36.073807 1.168258
v -4.419073 36.133186 1.932120
v -4.507085 36.522022 0.461352
v -4.573404 35.977665 0.393560
v -4.004707 36.140594 2.603890
v -3.459375 36.098633 3.146509
v -2.753782 36.033157 3.465597
v -2.730380 36.761723 3.477579
v -3.408375 36.774334 3.160960
v -2.768050 37.612835 3.431667
v -3.422177 37.524185 3.132960
v -2.945087 38.565022 3.509759
v -3.566421 38.366997 3.156586
v -3.281127 39.503613 3.812900
v -3.858491 39.234352 3.290379
v -3.484327 40.481457 3.863949
v -4.024614 40.130383 3.233556
v -3.486197 41.386688 3.608440
v -2.725797 40.780510 4.301607
v -2.776373 41.760864 4.156594
v -2.913648 42.612427 4.085128
v -3.570764 42.195118 3.412369
v -1.903273 42.015999 4.530253
v -2.018005 42.920467 4.548249
v -1.868374 40.982067 4.626851
v -1.860927 39.854263 4.709753
v -2.571190 39.733334 4.199963
v -2.365989 38.686275 3.967057
v -1.725755 38.758755 4.396407
v -1.648258 37.727718 4.360317
v -2.261472 37.672089 3.942974
v -2.269850 36.749096 4.091507
v -1.618600 36.761604 4.513211
v -1.517314 35.941742 4.352444
v -2.160981 35.975792 3.951819
v 0.966352 42.170433 4.757553
v 0.996849 43.079716 4.578342
v 0.962659 41.094498 4.885858
v 0.968592 39.930798 4.964724
v 0.910260 38.817520 4.577437
v 0.868620 37.764931 4.577452
v 0.826423 36.781246 4.672897
v 0.779573 35.930229 4.543460
v 5.475724 40.080257 -0.504454
v 5.147621 40.461494 0.403610
v 5.005713 39.807568 0.668748
v 5.124412 39.482372 -0.243134
v 4.578176 41.255886 2.090364
v 4.049520 41.723724 2.717219
v 4.109601 40.973686 3.038909
v 4.453714 40.544113 2.300296
v 4.878764 40.145302 1.565868
v 4.904613 40.833199 1.299906
v 4.443783 39.770500 2.536347
v 4.658608 39.443516 1.731948
v 4.808990 39.149364 0.885399
v 4.482062 38.715443 1.862706
v 4.609148 38.481632 1.059255
v 4.798751 38.882469 0.011202
v 4.552040 38.266277 0.238701
v 4.263428 38.963840 2.627377
v 4.057224 38.171116 2.631642
v 4.397659 37.984428 1.955582
v 4.565392 37.803860 1.188465
v 4.315652 37.316219 1.983881
v 4.514277 37.187061 1.239678
v 4.463432 37.633690 0.405093
v 4.451158 37.048931 0.478325
v 3.939460 37.428802 2.632693
v 3.968674 36.766907 2.659447
v 4.331005 36.718620 1.974314
v 4.577545 36.635406 1.227658
v 4.419073 36.133186 1.932120
v 4.641317 36.073807 1.168258
v 4.507085 36.522022 0.461352
v 4.573404 35.977665 0.393560
v 4.004707 36.140594 2.603890
v 3.459375 36.098633 3.146509
v 3.408375 36.774334 3.160960
v 2.730380 36.761723 3.477579
v 2.753782 36.033157 3.465597
v 3.422177 37.524185 3.132960
v 2.768050 37.612835 3.431667
v 3.566421 38.366997 3.156586
v 2.945087 38.565022 3.509759
v 3.858491 39.234352 3.290379
v 3.281127 39.503613 3.812900
v 4.024614 40.130383 3.233556
v 3.484327 40.481457 3.863949
v 3.486197 41.386688 3.608440
v 2.776373 41.760864 4.156594
v 2.725797 40.780510 4.301607
v 3.570764 42.195118 3.412369
v 2.913648 42.612427 4.085128
v 2.018005 42.920467 4.548249
v 1.903273 42.015999 4.530253
v 1.868374 40.982067 4.626851
v 1.860927 39.854263 4.709753
v 2.571190 39.733334 4.199963
v 1.725755 38.758755 4.396407
v 2.365989 38.686275 3.967057
v 1.648258 37.727718 4.360317
v 2.261472 37.672089 3.942974
v 1.618600 36.761604 4.513211
v 2.269850 36.749096 4.091507
v 1.517314 35.941742 4.352444
v 2.160981 35.975792 3.951819
vt 0.500000 0.586822
vt 0.483758 0.585400
vt 0.483998 0.571686
vt 0.500000 0.572018
vt 0.484338 0.554994
vt 0.500000 0.555620
vt 0.484198 0.537079
vt 0.500000 0.537449
vt 0.484008 0.518756
vt 0.500000 0.519382
vt 0.484898 0.503250
vt 0.500000 0.503193
vt 0.486738 0.487896
vt 0.500000 0.488048
vt 0.487218 0.475462
vt 0.500000 0.475406
vt 0.363208 0.536690
vt 0.369318 0.526704
vt 0.384148 0.532214
vt 0.379068 0.542627
vt 0.407508 0.556341
vt 0.411688 0.545349
vt 0.424218 0.552377
vt 0.419968 0.564440
vt 0.394068 0.549010
vt 0.398598 0.538293
vt 0.402658 0.526998
vt 0.415508 0.533124
vt 0.388908 0.521848
vt 0.393218 0.511037
vt 0.406368 0.515494
vt 0.374998 0.516575
vt 0.379968 0.506570
vt 0.409428 0.503876
vt 0.421808 0.507509
vt 0.418898 0.520416
vt 0.396528 0.500168
vt 0.398328 0.490181
vt 0.411248 0.493140
vt 0.383708 0.496479
vt 0.385698 0.486910
vt 0.411488 0.484330
vt 0.424288 0.485800
vt 0.423718 0.495625
vt 0.398308 0.482035
vt 0.397678 0.473234
vt 0.410808 0.475244
vt 0.385618 0.479133
vt 0.384868 0.470607
vt 0.423878 0.476155
vt 0.436668 0.475946
vt 0.449418 0.475273
vt 0.449118 0.485876
vt 0.436928 0.486160
vt 0.447388 0.499058
vt 0.435948 0.497550
vt 0.445418 0.514223
vt 0.433638 0.511093
vt 0.442988 0.530365
vt 0.430858 0.525594
vt 0.440638 0.545472
vt 0.427968 0.539545
vt 0.437288 0.559556
vt 0.454278 0.550489
vt 0.452298 0.565692
vt 0.450038 0.578410
vt 0.433698 0.572027
vt 0.468258 0.569419
vt 0.467478 0.582962
vt 0.469138 0.553353
vt 0.469608 0.536017
vt 0.455948 0.533893
vt 0.457018 0.516509
vt 0.469248 0.517874
vt 0.470658 0.502264
vt 0.458848 0.500765
vt 0.461468 0.486340
vt 0.473748 0.487241
vt 0.474788 0.475187
vt 0.462278 0.475083
vt 0.483998 0.571686
vt 0.483758 0.585400
vt 0.484338 0.554994
vt 0.484198 0.537079
vt 0.484008 0.518756
vt 0.484898 0.503250
vt 0.486738 0.487896
vt 0.487218 0.475462
vt 0.363208 0.536690
vt 0.379068 0.542627
vt 0.384148 0.532214
vt 0.369318 0.526704
vt 0.407508 0.556341
vt 0.419968 0.564440
vt 0.424218 0.552377
vt 0.411688 0.545349
vt 0.398598 0.538293
vt 0.394068 0.549010
vt 0.415508 0.533124
vt 0.402658 0.526998
vt 0.388908 0.521848
vt 0.406368 0.515494
vt 0.393218 0.511037
vt 0.374998 0.516575
vt 0.379968 0.506570
vt 0.418898 0.520416
vt 0.421808 0.507509
vt 0.409428 0.503876
vt 0.396528 0.500168
vt 0.411248 0.493140
vt 0.398328 0.490181
vt 0.383708 0.496479
vt 0.385698 0.486910
vt 0.423718 0.495625
vt 0.424288 0.485800
vt 0.411488 0.484330
vt 0.398308 0.482035
vt 0.410808 0.475244
vt 0.397678 0.473234
vt 0.385618 0.479133
vt 0.384868 0.470607
vt 0.423878 0.476155
vt 0.436668 0.475946
vt 0.436928 0.486160
vt 0.449118 0.485876
vt 0.449418 0.475273
vt 0.435948 0.497550
vt 0.447388 0.499058
vt 0.433638 0.511093
vt 0.445418 0.514223
vt 0.430858 0.525594
vt 0.442988 0.530365
vt 0.427968 0.539545
vt 0.440638 0.545472
vt 0.437288 0.559556
vt 0.452298 0.565692
vt 0.454278 0.550489
vt 0.433698 0.572027
vt 0.450038 0.578410
vt 0.467478 0.582962
vt 0.468258 0.569419
vt 0.469138 0.553353
vt 0.469608 0.536017
vt 0.455948 0.533893
vt 0.469248 0.517874
vt 0.457018 0.516509
vt 0.470658 0.502264
vt 0.458848 0.500765
vt 0.473748 0.487241
vt 0.461468 0.486340
vt 0.474788 0.475187
vt 0.462278 0.475083
vn 0.2919 0.2301 0.9284
vn 0.0959 0.1641 0.9818
vn 0.0207 0.1578 0.9873
vn 0.2313 0.2163 0.9485
vn -0.0589 0.0986 0.9934
vn 0.1503 0.1135 0.9821
vn -0.0459 -0.1290 0.9906
vn 0.1548 -0.1403 0.9779
vn -0.0244 -0.1773 0.9838
vn 0.1597 -0.1595 0.9742
vn -0.0540 0.0540 0.9971
vn 0.1169 0.0662 0.9909
vn -0.0751 -0.0043 0.9972
vn 0.0723 0.0128 0.9973
vn -0.0821 -0.1501 0.9853
vn 0.0435 -0.1150 0.9924
vn -0.9207 -0.2301 0.3153
vn -0.9291 -0.2739 0.2484
vn -0.9510 -0.2026 0.2335
vn -0.9533 -0.1373 0.2688
vn -0.8886 0.0939 0.4491
vn -0.8995 0.0533 0.4336
vn -0.8288 0.1279 0.5447
vn -0.8317 0.1595 0.5318
vn -0.9462 0.0058 0.3235
vn -0.9453 -0.0619 0.3204
vn -0.9414 -0.1604 0.2968
vn -0.8951 -0.0648 0.4411
vn -0.9480 -0.2674 0.1725
vn -0.9776 -0.1790 0.1105
vn -0.9447 -0.1510 0.2912
vn -0.9405 -0.3204 0.1129
vn -0.9747 -0.2236 -0.0050
vn -0.9346 -0.1016 0.3410
vn -0.8024 -0.1673 0.5728
vn -0.8519 -0.1822 0.4909
vn -0.9933 -0.0821 0.0818
vn -0.9953 -0.0008 0.0970
vn -0.9222 -0.0308 0.3854
vn -0.9925 -0.0907 -0.0814
vn -0.9947 0.0258 -0.0997
vn -0.9172 0.0604 0.3937
vn -0.7814 0.0316 0.6232
vn -0.7826 -0.0466 0.6208
vn -0.9895 0.1021 0.1020
vn -0.9905 0.1182 0.0708
vn -0.9199 0.0775 0.3845
vn -0.9870 0.1212 -0.1055
vn -0.9861 0.1282 -0.1060
vn -0.7882 0.0287 0.6147
vn -0.5543 0.0059 0.8323
vn -0.5907 -0.0574 0.8049
vn -0.6070 -0.0020 0.7947
vn -0.5474 0.0196 0.8367
vn -0.5829 -0.0485 0.8111
vn -0.5526 -0.0532 0.8317
vn -0.5029 -0.2518 0.8268
vn -0.5749 -0.2298 0.7853
vn -0.5185 -0.2396 0.8208
vn -0.6759 -0.2221 0.7028
vn -0.6224 0.0020 0.7827
vn -0.7948 -0.0150 0.6067
vn -0.7058 0.1270 0.6969
vn -0.4843 0.0222 0.8746
vn -0.5223 0.0591 0.8507
vn -0.5332 -0.0068 0.8460
vn -0.7318 0.0902 0.6755
vn -0.3077 0.0583 0.9497
vn -0.2721 0.0268 0.9619
vn -0.3478 0.0582 0.9358
vn -0.3673 -0.1390 0.9197
vn -0.4733 -0.1984 0.8583
vn -0.5389 -0.2212 0.8128
vn -0.3825 -0.1936 0.9035
vn -0.3976 0.0311 0.9171
vn -0.6316 -0.0087 0.7752
vn -0.6437 -0.0289 0.7647
vn -0.3860 -0.0298 0.9220
vn -0.3661 -0.2065 0.9074
vn -0.6203 -0.1735 0.7649
vn -0.2919 0.2300 0.9284
vn -0.2313 0.2163 0.9485
vn -0.0207 0.1578 0.9873
vn -0.0959 0.1641 0.9818
vn -0.1503 0.1135 0.9821
vn 0.0589 0.0986 0.9934
vn -0.1548 -0.1403 0.9779
vn 0.0459 -0.1290 0.9906
vn -0.1597 -0.1595 0.9742
vn 0.0244 -0.1773 0.9838
vn -0.1169 0.0662 0.9909
vn 0.0540 0.0540 0.9971
vn -0.0723 0.0129 0.9973
vn 0.0751 -0.0043 0.9972
vn -0.0435 -0.1150 0.9924
vn 0.0821 -0.1501 0.9853
vn 0.9207 -0.2301 0.3153
vn 0.9533 -0.1373 0.2688
vn 0.9510 -0.2025 0.2335
vn 0.9291 -0.2739 0.2484
vn 0.8884 0.0942 0.4493
vn 0.8317 0.1595 0.5318
vn 0.8288 0.1279 0.5447
vn 0.8995 0.0533 0.4336
vn 0.9453 -0.0619 0.3204
vn 0.9463 0.0058 0.3234
vn 0.8951 -0.0648 0.4411
vn 0.9414 -0.1604 0.2968
vn 0.9480 -0.2674 0.1725
vn 0.9447 -0.1510 0.2912
vn 0.9776 -0.1790 0.1105
vn 0.9405 -0.3204 0.1129
vn 0.9747 -0.2236 -0.0050
vn 0.8519 -0.1822 0.4909
vn 0.8024 -0.1673 0.5728
vn 0.9346 -0.1014 0.3410
vn 0.9933 -0.0821 0.0818
vn 0.9222 -0.0308 0.3854
vn 0.9953 -0.0008 0.0970
vn 0.9925 -0.0907 -0.0814
vn 0.9947 0.0258 -0.0998
vn 0.7826 -0.0466 0.6208
vn 0.7814 0.0316 0.6232
vn 0.9172 0.0604 0.3937
vn 0.9895 0.1021 0.1020
vn 0.9199 0.0775 0.3845
vn 0.9905 0.1182 0.0708
vn 0.9870 0.1212 -0.1055
vn 0.9861 0.1282 -0.1060
vn 0.7882 0.0287 0.6147
vn 0.5543 0.0059 0.8323
vn 0.5474 0.0196 0.8367
vn 0.6070 -0.0020 0.7947
vn 0.5907 -0.0574 0.8049
vn 0.5526 -0.0532 0.8317
vn 0.5829 -0.0485 0.8111
vn 0.5749 -0.2298 0.7853
vn 0.5029 -0.2518 0.8268
vn 0.6759 -0.2221 0.7028
vn 0.5185 -0.2396 0.8208
vn 0.7948 -0.0150 0.6067
vn 0.6224 0.0020 0.7827
vn 0.7058 0.1270 0.6969
vn 0.5223 0.0591 0.8507
vn 0.4843 0.0222 0.8746
vn 0.7318 0.0902 0.6755
vn 0.5332 -0.0069 0.8460
vn 0.2721 0.0268 0.9619
vn 0.3077 0.0583 0.9497
vn 0.3478 0.0582 0.9358
vn 0.3673 -0.1390 0.9197
vn 0.4733 -0.1984 0.8583
vn 0.3825 -0.1936 0.9035
vn 0.5389 -0.2212 0.8128
vn 0.3976 0.0311 0.9171
vn 0.6316 -0.0087 0.7752
vn 0.3860 -0.0298 0.9220
vn 0.6437 -0.0289 0.7647
vn 0.3661 -0.2065 0.9074
vn 0.6204 -0.1735 0.7649
usemtl male_feet_low:polySurface9SG.014
s 1
f 1/1/1 2/2/2 3/3/3 4/4/4
f 4/4/4 3/3/3 5/5/5 6/6/6
f 6/6/6 5/5/5 7/7/7 8/8/8
f 8/8/8 7/7/7 9/9/9 10/10/10
f 10/10/10 9/9/9 11/11/11 12/12/12
f 12/12/12 11/11/11 13/13/13 14/14/14
f 14/14/14 13/13/13 15/15/15 16/16/16
f 17/17/17 18/18/18 19/19/19 20/20/20
f 21/21/21 22/22/22 23/23/23 24/24/24
f 21/21/21 25/25/25 26/26/26 22/22/22
f 26/26/26 27/27/27 28/28/28 22/22/22
f 26/26/26 25/25/25 20/20/20 19/19/19
f 26/26/26 19/19/19 29/29/29 27/27/27
f 29/29/29 30/30/30 31/31/31 27/27/27
f 29/29/29 19/19/19 18/18/18 32/32/32
f 29/29/29 32/32/32 33/33/33 30/30/30
f 31/31/31 34/34/34 35/35/35 36/36/36
f 31/31/31 36/36/36 28/28/28 27/27/27
f 31/31/31 30/30/30 37/37/37 34/34/34
f 37/37/37 38/38/38 39/39/39 34/34/34
f 37/37/37 30/30/30 33/33/33 40/40/40
f 37/37/37 40/40/40 41/41/41 38/38/38
f 39/39/39 42/42/42 43/43/43 44/44/44
f 39/39/39 44/44/44 35/35/35 34/34/34
f 39/39/39 38/38/38 45/45/45 42/42/42
f 45/45/45 46/46/46 47/47/47 42/42/42
f 45/45/45 38/38/38 41/41/41 48/48/48
f 45/45/45 48/48/48 49/49/49 46/46/46
f 47/47/47 50/50/50 43/43/43 42/42/42
f 51/51/51 52/52/52 53/53/53 54/54/54
f 51/51/51 54/54/54 43/43/43 50/50/50
f 54/54/54 53/53/53 55/55/55 56/56/56
f 54/54/54 56/56/56 44/44/44 43/43/43
f 56/56/56 55/55/55 57/57/57 58/58/58
f 56/56/56 58/58/58 35/35/35 44/44/44
f 58/58/58 57/57/57 59/59/59 60/60/60
f 58/58/58 60/60/60 36/36/36 35/35/35
f 60/60/60 59/59/59 61/61/61 62/62/62
f 60/60/60 62/62/62 28/28/28 36/36/36
f 62/62/62 61/61/61 63/63/63 23/23/23
f 62/62/62 23/23/23 22/22/22 28/28/28
f 63/63/63 61/61/61 64/64/64 65/65/65
f 63/63/63 65/65/65 66/66/66 67/67/67
f 63/63/63 67/67/67 24/24/24 23/23/23
f 66/66/66 65/65/65 68/68/68 69/69/69
f 69/69/69 68/68/68 3/3/3 2/2/2
f 68/68/68 70/70/70 5/5/5 3/3/3
f 68/68/68 65/65/65 64/64/64 70/70/70
f 70/70/70 71/71/71 7/7/7 5/5/5
f 70/70/70 64/64/64 72/72/72 71/71/71
f 72/72/72 73/73/73 74/74/74 71/71/71
f 72/72/72 64/64/64 61/61/61 59/59/59
f 72/72/72 59/59/59 57/57/57 73/73/73
f 74/74/74 75/75/75 11/11/11 9/9/9
f 74/74/74 9/9/9 7/7/7 71/71/71
f 74/74/74 73/73/73 76/76/76 75/75/75
f 76/76/76 77/77/77 78/78/78 75/75/75
f 76/76/76 73/73/73 57/57/57 55/55/55
f 76/76/76 55/55/55 53/53/53 77/77/77
f 78/78/78 79/79/79 15/15/15 13/13/13
f 78/78/78 13/13/13 11/11/11 75/75/75
f 78/78/78 77/77/77 80/80/80 79/79/79
f 80/80/80 77/77/77 53/53/53 52/52/52
f 1/1/81 4/4/82 81/81/83 82/82/84
f 4/4/82 6/6/85 83/83/86 81/81/83
f 6/6/85 8/8/87 84/84/88 83/83/86
f 8/8/87 10/10/89 85/85/90 84/84/88
f 10/10/89 12/12/91 86/86/92 85/85/90
f 12/12/91 14/14/93 87/87/94 86/86/92
f 14/14/93 16/16/95 88/88/96 87/87/94
f 89/89/97 90/90/98 91/91/99 92/92/100
f 93/93/101 94/94/102 95/95/103 96/96/104
f 93/93/101 96/96/104 97/97/105 98/98/106
f 97/97/105 96/96/104 99/99/107 100/100/108
f 97/97/105 91/91/99 90/90/98 98/98/106
f 97/97/105 100/100/108 101/101/109 91/91/99
f 101/101/109 100/100/108 102/102/110 103/103/111
f 101/101/109 104/104/112 92/92/100 91/91/99
f 101/101/109 103/103/111 105/105/113 104/104/112
f 102/102/110 106/106/114 107/107/115 108/108/116
f 102/102/110 100/100/108 99/99/107 106/106/114
f 102/102/110 108/108/116 109/109/117 103/103/111
f 109/109/117 108/108/116 110/110/118 111/111/119
f 109/109/117 112/112/120 105/105/113 103/103/111
f 109/109/117 111/111/119 113/113/121 112/112/120
f 110/110/118 114/114/122 115/115/123 116/116/124
f 110/110/118 108/108/116 107/107/115 114/114/122
f 110/110/118 116/116/124 117/117/125 111/111/119
f 117/117/125 116/116/124 118/118/126 119/119/127
f 117/117/125 120/120/128 113/113/121 111/111/119
f 117/117/125 119/119/127 121/121/129 120/120/128
f 118/118/126 116/116/124 115/115/123 122/122/130
f 123/123/131 124/124/132 125/125/133 126/126/134
f 123/123/131 122/122/130 115/115/123 124/124/132
f 124/124/132 127/127/135 128/128/136 125/125/133
f 124/124/132 115/115/123 114/114/122 127/127/135
f 127/127/135 129/129/137 130/130/138 128/128/136
f 127/127/135 114/114/122 107/107/115 129/129/137
f 129/129/137 131/131/139 132/132/140 130/130/138
f 129/129/137 107/107/115 106/106/114 131/131/139
f 131/131/139 133/133/141 134/134/142 132/132/140
f 131/131/139 106/106/114 99/99/107 133/133/141
f 133/133/141 95/95/103 135/135/143 134/134/142
f 133/133/141 99/99/107 96/96/104 95/95/103
f 135/135/143 136/136/144 137/137/145 134/134/142
f 135/135/143 138/138/146 139/139/147 136/136/144
f 135/135/143 95/95/103 94/94/102 138/138/146
f 139/139/147 140/140/148 141/141/149 136/136/144
f 140/140/148 82/82/84 81/81/83 141/141/149
f 141/141/149 81/81/83 83/83/86 142/142/150
f 141/141/149 142/142/150 137/137/145 136/136/144
f 142/142/150 83/83/86 84/84/88 143/143/151
f 142/142/150 143/143/151 144/144/152 137/137/145
f 144/144/152 143/143/151 145/145/153 146/146/154
f 144/144/152 132/132/140 134/134/142 137/137/145
f 144/144/152 146/146/154 130/130/138 132/132/140
f 145/145/153 85/85/90 86/86/92 147/147/155
f 145/145/153 143/143/151 84/84/88 85/85/90
f 145/145/153 147/147/155 148/148/156 146/146/154
f 148/148/156 147/147/155 149/149/157 150/150/158
f 148/148/156 128/128/136 130/130/138 146/146/154
f 148/148/156 150/150/158 125/125/133 128/128/136
f 149/149/157 87/87/94 88/88/96 151/151/159
f 149/149/157 147/147/155 86/86/92 87/87/94
f 149/149/157 151/151/159 152/152/160 150/150/158
f 152/152/160 126/126/134 125/125/133 150/150/158
