# Blender v2.79 (sub 0) OBJ File: 'male.blend'
# www.blender.org
mtllib calf_lt.mtl
o male_15_calf_Lt_half_Lt
v 3.897820 13.992268 -1.180621
v 3.852917 12.736721 -1.417889
v 4.208153 12.704063 -0.935839
v 4.193947 13.940057 -0.763126
v 4.638689 12.698417 -0.562413
v 4.480027 13.892277 -0.355919
v 5.042007 12.691891 -0.219469
v 4.798981 13.848704 0.011428
v 4.710646 11.426250 -0.635640
v 5.197072 11.450583 -0.313701
v 5.515398 12.716722 -0.040622
v 5.227677 13.838368 0.233486
v 5.716486 11.486918 -0.118049
v 6.280923 11.544641 -0.028297
v 6.047409 12.774486 0.040583
v 5.857079 10.222130 -0.224683
v 5.978649 8.982728 -0.448765
v 6.478336 9.018307 -0.425055
v 6.409845 10.272874 -0.189171
v 6.953345 9.086861 -0.711581
v 6.934165 10.363083 -0.505183
v 5.538386 8.969879 -0.681105
v 5.369085 10.198730 -0.475693
v 4.905834 10.172316 -0.816007
v 5.142793 8.958105 -1.032894
v 4.413481 10.122766 -1.190894
v 4.713050 8.916637 -1.390224
v 3.760892 11.384780 -1.528251
v 4.192294 11.393763 -1.005263
v 3.634331 12.813042 -2.005053
v 3.488372 11.415814 -2.194225
v 3.714154 14.248189 -2.297519
v 3.646894 12.940403 -2.694519
v 3.718950 14.092296 -1.688020
v 4.025413 14.432501 -2.920389
v 4.004885 13.100396 -3.385861
v 5.727719 13.886755 0.191332
v 6.637414 12.891059 -0.111199
v 6.251361 14.031521 0.008226
v 6.834681 11.650575 -0.318961
v 7.291038 11.774653 -0.866157
v 7.112112 13.043648 -0.626825
v 7.311503 9.165268 -1.233107
v 7.345505 10.463691 -1.061548
v 7.600228 9.218445 -1.811935
v 7.684316 10.542867 -1.683885
v 4.310822 8.864200 -1.803497
v 3.945242 10.068381 -1.655403
v 3.592687 10.040660 -2.277970
v 4.035624 8.829432 -2.337364
v 3.488872 10.063609 -3.082077
v 3.932331 8.816483 -3.000742
v 3.890585 11.632636 -3.759265
v 3.472861 11.500946 -2.984649
v 4.582777 14.588096 -3.360714
v 4.645802 13.253113 -3.881787
v 5.211967 14.686286 -3.517017
v 5.375215 13.383090 -4.112690
v 6.738508 14.202704 -0.418575
v 7.494133 13.203993 -1.253226
v 7.115036 14.389367 -0.978067
v 7.674741 11.890057 -1.503443
v 7.838197 11.983610 -2.227707
v 7.609992 13.338361 -1.976069
v 7.763077 10.601542 -2.369634
v 7.594642 9.260999 -2.431419
v 7.883621 12.056718 -2.969028
v 7.572356 13.456174 -2.684685
v 7.508121 9.268670 -3.016509
v 7.748793 10.625818 -3.046114
v 7.259295 9.255875 -3.547070
v 7.549827 10.615862 -3.712601
v 4.155562 8.849087 -3.718928
v 3.884592 10.160464 -3.885935
v 4.662708 10.299073 -4.365087
v 4.802407 8.970911 -4.136196
v 5.471021 11.906446 -4.492888
v 4.641400 11.774738 -4.272217
v 6.093874 13.476177 -4.069685
v 6.274763 12.006064 -4.433156
v 6.339339 14.764257 -3.199916
v 6.746566 13.525233 -3.795518
v 5.804342 14.741496 -3.443193
v 6.799108 14.751805 -2.808000
v 7.270296 13.521615 -3.320926
v 7.108689 14.681502 -2.271630
v 7.201510 14.547159 -1.638709
v 6.998577 12.065372 -4.148539
v 7.583309 12.086105 -3.656558
v 6.299606 10.531178 -4.430575
v 7.040186 10.583949 -4.237239
v 6.816790 9.228701 -3.957122
v 6.207363 9.186610 -4.150856
v 5.529194 9.102205 -4.212609
v 5.506096 10.433089 -4.492052
vt 0.233859 0.292224
vt 0.228730 0.270230
vt 0.218729 0.273482
vt 0.225017 0.295311
vt 0.208984 0.276713
vt 0.216113 0.298379
vt 0.199731 0.279329
vt 0.207106 0.301035
vt 0.202613 0.255756
vt 0.193330 0.258680
vt 0.190765 0.281422
vt 0.197741 0.302984
vt 0.184539 0.261060
vt 0.175706 0.263337
vt 0.181369 0.283330
vt 0.178917 0.241487
vt 0.173142 0.222007
vt 0.165479 0.224285
vt 0.170762 0.243867
vt 0.156770 0.226757
vt 0.161622 0.246360
vt 0.180825 0.219597
vt 0.187175 0.238974
vt 0.195925 0.235927
vt 0.189021 0.216755
vt 0.205362 0.232152
vt 0.197556 0.213431
vt 0.223242 0.247981
vt 0.212676 0.252053
vt 0.046178 0.298707
vt 0.043316 0.277052
vt 0.032494 0.278827
vt 0.036258 0.300543
vt 0.058754 0.319510
vt 0.056908 0.297199
vt 0.048096 0.320721
vt 0.038956 0.321777
vt 0.070972 0.317900
vt 0.068848 0.295814
vt 0.187729 0.304072
vt 0.170998 0.285351
vt 0.176599 0.306052
vt 0.166105 0.265737
vt 0.155293 0.268025
vt 0.159478 0.287372
vt 0.146830 0.229475
vt 0.151272 0.248904
vt 0.137003 0.231947
vt 0.141055 0.251089
vt 0.031396 0.237087
vt 0.030565 0.257562
vt 0.041336 0.257028
vt 0.040946 0.237692
vt 0.206029 0.209708
vt 0.215169 0.227721
vt 0.052363 0.256556
vt 0.051266 0.238194
vt 0.066335 0.274877
vt 0.054374 0.275759
vt 0.082768 0.316094
vt 0.080645 0.294542
vt 0.092831 0.314566
vt 0.090985 0.293537
vt 0.164146 0.307590
vt 0.147979 0.288941
vt 0.151897 0.308924
vt 0.144501 0.269851
vt 0.134469 0.271113
vt 0.137198 0.290018
vt 0.131607 0.252822
vt 0.127873 0.233978
vt 0.125237 0.272005
vt 0.127391 0.290736
vt 0.119420 0.235568
vt 0.122847 0.254146
vt 0.111101 0.236871
vt 0.114250 0.255100
vt 0.062355 0.238564
vt 0.064027 0.256238
vt 0.075690 0.256187
vt 0.073413 0.238656
vt 0.088831 0.274098
vt 0.078203 0.274375
vt 0.100248 0.292798
vt 0.098453 0.273749
vt 0.110793 0.312565
vt 0.109214 0.292090
vt 0.101869 0.313458
vt 0.120077 0.311745
vt 0.118189 0.291382
vt 0.129843 0.311006
vt 0.140408 0.310083
vt 0.107572 0.273205
vt 0.116425 0.272610
vt 0.096247 0.256126
vt 0.105490 0.255756
vt 0.102556 0.237815
vt 0.093478 0.238359
vt 0.083804 0.238595
vt 0.086389 0.256249
vn -0.8859 -0.0555 0.4606
vn -0.8803 -0.0142 0.4743
vn -0.7415 -0.0714 0.6672
vn -0.7748 -0.1196 0.6208
vn -0.6578 -0.1357 0.7408
vn -0.7128 -0.1980 0.6728
vn -0.5127 -0.1859 0.8382
vn -0.5585 -0.2673 0.7852
vn -0.5844 -0.1418 0.7990
vn -0.4775 -0.1419 0.8671
vn -0.2220 -0.1646 0.9610
vn -0.2211 -0.2465 0.9436
vn -0.2439 -0.1157 0.9629
vn 0.1867 -0.0799 0.9792
vn 0.1436 -0.0783 0.9865
vn -0.2451 -0.1636 0.9556
vn -0.2430 -0.1948 0.9503
vn 0.2681 -0.1613 0.9498
vn 0.2518 -0.1280 0.9593
vn 0.7075 -0.1129 0.6976
vn 0.6829 -0.0822 0.7259
vn -0.5397 -0.2060 0.8163
vn -0.5026 -0.1939 0.8425
vn -0.5777 -0.2232 0.7851
vn -0.6204 -0.2248 0.7514
vn -0.6404 -0.2353 0.7311
vn -0.6404 -0.2466 0.7274
vn -0.8506 -0.0746 0.5205
vn -0.6845 -0.1190 0.7192
vn -0.9842 0.0536 0.1689
vn -0.9779 -0.0061 0.2088
vn -0.9674 0.1176 -0.2241
vn -0.9618 0.1402 -0.2353
vn -0.9862 0.0183 0.1646
vn -0.7806 0.2175 -0.5859
vn -0.7631 0.2145 -0.6097
vn 0.1403 -0.1086 0.9841
vn 0.5628 0.0176 0.8264
vn 0.5061 0.0527 0.8609
vn 0.6351 -0.0394 0.7715
vn 0.8220 -0.0184 0.5692
vn 0.7849 0.0681 0.6159
vn 0.8672 -0.1039 0.4870
vn 0.8442 -0.0670 0.5319
vn 0.9656 -0.1137 0.2339
vn 0.9528 -0.0699 0.2953
vn -0.7623 -0.2684 0.5889
vn -0.7942 -0.2277 0.5634
vn -0.9440 -0.2009 0.2616
vn -0.9093 -0.2957 0.2928
vn -0.9696 -0.1494 -0.1937
vn -0.9393 -0.3137 -0.1390
vn -0.7480 0.1268 -0.6515
vn -0.9699 0.0730 -0.2324
vn -0.4892 0.3066 -0.8165
vn -0.4705 0.2649 -0.8417
vn -0.1510 0.3948 -0.9063
vn -0.1419 0.3110 -0.9398
vn 0.7479 0.1327 0.6504
vn 0.9187 0.1356 0.3710
vn 0.8968 0.2061 0.3915
vn 0.9383 0.0125 0.3457
vn 0.9936 0.0487 0.1016
vn 0.9695 0.2240 0.0990
vn 0.9952 -0.0892 0.0402
vn 0.9898 -0.1300 -0.0587
vn 0.9779 0.0958 -0.1858
vn 0.9276 0.3170 -0.1975
vn 0.9491 -0.1731 -0.2632
vn 0.9744 -0.1117 -0.1950
vn 0.8060 -0.2104 -0.5532
vn 0.8270 -0.1011 -0.5531
vn -0.7186 -0.2928 -0.6308
vn -0.7382 -0.0898 -0.6686
vn -0.3572 -0.0674 -0.9316
vn -0.3170 -0.2386 -0.9179
vn -0.1056 0.1278 -0.9862
vn -0.4262 0.1356 -0.8944
vn 0.1875 0.3538 -0.9163
vn 0.1927 0.1408 -0.9711
vn 0.4559 0.4970 -0.7384
vn 0.4788 0.3823 -0.7903
vn 0.1766 0.4651 -0.8674
vn 0.7072 0.4810 -0.5182
vn 0.7439 0.3794 -0.5502
vn 0.8927 0.4036 -0.2004
vn 0.9487 0.3039 0.0872
vn 0.5024 0.1633 -0.8490
vn 0.8073 0.1498 -0.5709
vn 0.1938 -0.0892 -0.9770
vn 0.5054 -0.0878 -0.8584
vn 0.4973 -0.2143 -0.8407
vn 0.1956 -0.1975 -0.9606
vn -0.0121 -0.2031 -0.9791
vn -0.0399 -0.0829 -0.9958
usemtl male_feet_low:polySurface9SG.022
s 1
f 1/1/1 2/2/2 3/3/3 4/4/4
f 5/5/5 6/6/6 4/4/4 3/3/3
f 7/7/7 8/8/8 6/6/6 5/5/5
f 5/5/5 9/9/9 10/10/10 7/7/7
f 11/11/11 12/12/12 8/8/8 7/7/7
f 13/13/13 11/11/11 7/7/7 10/10/10
f 14/14/14 15/15/15 11/11/11 13/13/13
f 16/16/16 17/17/17 18/18/18 19/19/19
f 18/18/18 20/20/20 21/21/21 19/19/19
f 22/22/22 23/23/23 24/24/24 25/25/25
f 22/22/22 17/17/17 16/16/16 23/23/23
f 24/24/24 26/26/26 27/27/27 25/25/25
f 2/2/2 28/28/28 29/29/29 3/3/3
f 29/29/29 9/9/9 5/5/5 3/3/3
f 30/30/30 31/31/31 28/32/28 2/33/2
f 32/34/32 33/35/33 30/30/30 34/36/34
f 30/30/30 2/33/2 1/37/1 34/36/34
f 35/38/35 36/39/36 33/35/33 32/34/32
f 15/15/15 37/40/37 12/12/12 11/11/11
f 38/41/38 39/42/39 37/40/37 15/15/15
f 38/41/38 15/15/15 14/14/14 40/43/40
f 41/44/41 42/45/42 38/41/38 40/43/40
f 21/21/21 20/20/20 43/46/43 44/47/44
f 43/46/43 45/48/45 46/49/46 44/47/44
f 47/50/47 48/51/48 49/52/49 50/53/50
f 47/54/47 27/27/27 26/26/26 48/55/48
f 49/52/49 51/56/51 52/57/52 50/53/50
f 36/39/36 53/58/53 54/59/54 33/35/33
f 54/59/54 31/31/31 30/30/30 33/35/33
f 55/60/55 56/61/56 36/39/36 35/38/35
f 57/62/57 58/63/58 56/61/56 55/60/55
f 42/45/42 59/64/59 39/42/39 38/41/38
f 60/65/60 61/66/61 59/64/59 42/45/42
f 60/65/60 42/45/42 41/44/41 62/67/62
f 63/68/63 64/69/64 60/65/60 62/67/62
f 65/70/65 46/49/46 45/48/45 66/71/66
f 67/72/67 68/73/68 64/69/64 63/68/63
f 65/70/65 66/71/66 69/74/69 70/75/70
f 69/74/69 71/76/71 72/77/72 70/75/70
f 73/78/73 52/57/52 51/56/51 74/79/74
f 74/79/74 75/80/75 76/81/76 73/78/73
f 58/63/58 77/82/77 78/83/78 56/61/56
f 78/83/78 53/58/53 36/39/36 56/61/56
f 79/84/79 80/85/80 77/82/77 58/63/58
f 81/86/81 82/87/82 79/84/79 83/88/83
f 79/84/79 58/63/58 57/62/57 83/88/83
f 84/89/84 85/90/85 82/87/82 81/86/81
f 68/73/68 86/91/86 87/92/87 64/69/64
f 68/73/68 85/90/85 84/89/84 86/91/86
f 88/93/88 82/87/82 85/90/85 89/94/89
f 88/93/88 80/85/80 79/84/79 82/87/82
f 90/95/90 91/96/91 92/97/92 93/98/93
f 90/95/90 93/98/93 94/99/94 95/100/95
f 94/99/94 76/81/76 75/80/75 95/100/95
f 91/96/91 72/77/72 71/76/71 92/97/92
f 85/90/85 68/73/68 67/72/67 89/94/89
f 87/92/87 61/66/61 60/65/60 64/69/64
f 40/43/40 21/21/21 44/47/44 41/44/41
f 46/49/46 62/67/62 41/44/41 44/47/44
f 63/68/63 62/67/62 46/49/46 65/70/65
f 63/68/63 65/70/65 70/75/70 67/72/67
f 72/77/72 89/94/89 67/72/67 70/75/70
f 88/93/88 89/94/89 72/77/72 91/96/91
f 80/85/80 88/93/88 91/96/91 90/95/90
f 80/85/80 90/95/90 95/100/95 77/82/77
f 75/80/75 78/83/78 77/82/77 95/100/95
f 53/58/53 78/83/78 75/80/75 74/79/74
f 51/56/51 54/59/54 53/58/53 74/79/74
f 31/31/31 54/59/54 51/56/51 49/52/49
f 48/51/48 28/32/28 31/31/31 49/52/49
f 26/26/26 29/29/29 28/28/28 48/55/48
f 9/9/9 29/29/29 26/26/26 24/24/24
f 23/23/23 10/10/10 9/9/9 24/24/24
f 16/16/16 13/13/13 10/10/10 23/23/23
f 13/13/13 16/16/16 19/19/19 14/14/14
f 21/21/21 40/43/40 14/14/14 19/19/19
