# Blender v2.79 (sub 0) OBJ File: 'male.blend'
# www.blender.org
mtllib ear_rt.mtl
o male_30_ear_Rt_half_Rt
v -2.275222 53.442051 0.173750
v -2.353246 53.548584 0.070990
v -2.356371 53.516895 0.008024
v -2.278114 53.426834 0.083088
v -2.475182 53.395340 -0.165391
v -2.533358 53.276424 -0.220451
v -2.494498 53.281765 -0.177392
v -2.437766 53.341625 -0.115449
v -2.261981 52.250809 0.182251
v -2.281199 52.353333 0.170001
v -2.369298 52.385677 0.005785
v -2.363585 52.284351 -0.025051
v -2.642722 53.381760 -0.512968
v -2.555676 53.347488 -0.451864
v -2.490193 53.594269 -0.334541
v -2.603663 53.637802 -0.358994
v -2.439366 53.662579 -0.102347
v -2.498375 53.709797 -0.105208
v -2.462109 52.446358 -0.243670
v -2.466735 52.517586 -0.177144
v -2.538888 52.731033 -0.343106
v -2.566512 52.689960 -0.430504
v -2.632244 53.024883 -0.532207
v -2.581234 53.025463 -0.442316
v -2.209822 52.901779 -0.030489
v -2.261186 52.973652 -0.068980
v -2.339596 52.939785 -0.130970
v -2.258055 52.854519 -0.074785
v -2.208872 52.434273 0.267926
v -2.188306 52.338852 0.319087
v -2.295573 52.461029 0.143069
v -2.236380 52.506657 0.218164
v -2.254138 52.594189 0.179620
v -2.302171 52.568897 0.120270
v -2.213429 53.023129 0.143013
v -2.228835 53.108692 0.220729
v -2.202848 53.137367 0.188133
v -2.203134 53.064007 0.110293
v -2.070148 52.900906 0.235286
v -2.157017 52.982307 0.183858
v -2.135225 52.902702 0.092306
v -2.057545 52.822403 0.151999
v -2.303544 52.652206 0.106702
v -2.266747 52.690865 0.135188
v -2.301044 52.781750 0.065080
v -2.334756 52.704712 0.037909
v -2.473107 52.886971 -0.191262
v -2.393840 52.777485 -0.073308
v -2.341494 52.835720 -0.058014
v -2.415642 52.924259 -0.165780
v -2.559839 53.281460 -0.279618
v -2.558901 53.068172 -0.269522
v -2.499053 53.099411 -0.222335
v -2.458872 53.508419 -0.128249
v -2.507223 53.441017 -0.214416
v -2.390724 53.469162 -0.085151
v -2.432802 53.611637 -0.100684
v -2.454911 53.560204 -0.105721
v -2.172572 53.154896 0.160372
v -2.210518 53.234131 0.204033
v -2.209471 53.242153 0.139920
v -2.166169 53.172493 0.106994
v -2.189614 53.185520 0.046798
v -2.238775 53.235733 0.043142
v -2.292233 53.202656 -0.068912
v -2.213407 53.143730 -0.024594
v -2.394641 53.039764 -0.168637
v -2.318425 53.023212 -0.119382
v -2.276219 53.078411 -0.091698
v -2.363081 53.133717 -0.151997
v -2.102357 52.750645 0.097878
v -2.139835 52.833260 0.018154
v -2.220636 52.814358 0.046680
v -2.188987 52.724510 0.124993
v -2.340009 52.608379 0.014220
v -2.353209 52.497372 0.008270
v -2.483312 52.780079 -0.300521
v -2.423175 52.605854 -0.149373
v -2.403560 52.696552 -0.114675
v -2.483358 52.833866 -0.243297
v -2.554082 53.299084 -0.341340
v -2.537953 53.321213 -0.391929
v -2.533694 53.034386 -0.392825
v -2.557326 53.046623 -0.335536
v -2.507344 53.540058 -0.284686
v -2.515757 53.491505 -0.251878
v -2.260556 53.194920 0.274891
v -2.233342 53.218876 0.238806
v -2.195088 53.087204 0.270078
v -2.199397 52.955250 0.052233
v -2.212112 53.003780 0.025345
v -2.269301 53.320580 0.135042
v -2.255759 53.323212 0.209558
v -2.382594 53.270420 -0.088322
v -2.454887 53.207752 -0.177365
v -2.331074 53.391502 -0.032790
v -2.312075 53.304649 0.026511
v -2.172143 53.106453 0.037237
v -2.172255 53.084888 0.086698
v -2.218539 53.043633 -0.028104
v -2.193988 53.038212 0.023977
v -1.842074 52.710468 0.093124
v -1.863944 52.754414 0.100692
v -1.883136 52.749241 0.085852
v -1.876323 52.702267 0.061510
v -2.110975 52.618885 0.282716
v -2.070210 52.673008 0.185388
v -2.183926 52.643398 0.197112
v -2.193376 52.586952 0.248211
v -2.028716 52.741058 0.178918
v -1.846668 52.659466 0.105946
v -1.872238 52.650360 0.083312
v -2.501678 53.808140 -0.125364
v -2.564754 53.725521 -0.450617
v -2.557118 53.424660 -0.625771
v -2.513737 53.055470 -0.618551
v -2.447900 52.720856 -0.501819
v -2.365036 52.458248 -0.314185
v -2.276949 52.262569 -0.086674
v -2.204504 52.174252 0.153929
v -2.372672 53.566849 0.111359
v -2.301649 53.431286 0.230446
v -2.270201 53.308510 0.256314
v -1.971133 52.732666 0.200399
v -1.977346 52.783993 0.198717
v -1.962630 52.815601 0.212360
v -1.922966 52.756592 0.248168
v -2.037709 52.777340 0.295420
v -1.931859 52.641312 0.241669
v -1.968952 52.684258 0.212310
v -1.910682 52.713825 0.148467
v -1.909716 52.753368 0.159399
v -1.896681 52.782505 0.157900
v -1.878197 52.728466 0.171052
v -1.879977 52.662048 0.168595
v -1.905134 52.666649 0.150923
v -2.140571 53.031925 0.363429
v -2.123351 52.764843 0.391604
v -2.148129 52.231182 0.326303
v -2.127843 52.517677 0.375132
v -2.095022 52.691471 0.539938
v -2.119598 53.045700 0.567031
v -2.091469 52.332329 0.435810
v -2.101332 52.298527 0.124688
v -2.080288 52.241928 0.254348
v -2.032686 52.158020 0.259606
v -2.154088 52.424442 -0.086323
v -2.033043 52.176941 0.031003
v -2.218260 52.586529 -0.330107
v -2.272808 52.828690 -0.511759
v -2.037253 52.341057 -0.233715
v -2.043112 52.602238 -0.479654
v -2.320090 53.126518 -0.609177
v -2.077098 52.903595 -0.654406
v -2.349987 53.442032 -0.606904
v -2.145563 53.211239 -0.745724
v -2.313939 54.041077 -0.105208
v -2.292330 53.786606 -0.158579
v -2.260621 53.788589 0.065926
v -2.265949 53.943954 0.187462
v -2.318884 53.724819 -0.446964
v -2.332662 54.033924 -0.396114
v -2.285983 53.792160 -0.683647
v -2.221860 53.512699 -0.754940
v -2.319583 54.006161 -0.597769
v -2.324765 53.653942 0.194691
v -2.196203 53.713966 0.398802
v -2.412361 53.581455 0.155898
v -2.323467 53.397568 0.285959
v -2.237741 53.329910 0.364499
v -2.181543 53.390457 0.537905
v -2.255769 53.205132 0.321481
v -2.289189 53.272472 0.300818
vt 0.398624 0.868117
vt 0.396124 0.871307
vt 0.394704 0.870057
vt 0.396704 0.867387
vt 0.388884 0.866477
vt 0.386674 0.863717
vt 0.387994 0.863927
vt 0.390184 0.865227
vt 0.392634 0.835637
vt 0.393014 0.838107
vt 0.388794 0.840917
vt 0.387454 0.838907
vt 0.379044 0.867127
vt 0.381324 0.865807
vt 0.384344 0.871567
vt 0.382724 0.873227
vt 0.390344 0.873727
vt 0.389504 0.875447
vt 0.382834 0.843907
vt 0.384644 0.845227
vt 0.381724 0.850667
vt 0.379544 0.850287
vt 0.377964 0.858277
vt 0.380294 0.857897
vt 0.393694 0.854147
vt 0.392544 0.855567
vt 0.390144 0.854717
vt 0.392354 0.853287
vt 0.396474 0.839177
vt 0.397254 0.836157
vt 0.392944 0.841057
vt 0.395434 0.841717
vt 0.394704 0.844137
vt 0.392844 0.843997
vt 0.398424 0.857167
vt 0.400314 0.859527
vt 0.399284 0.860417
vt 0.397624 0.858187
vt 0.400574 0.853707
vt 0.399374 0.855937
vt 0.396804 0.854037
vt 0.397764 0.851797
vt 0.393014 0.846117
vt 0.394184 0.846897
vt 0.392944 0.849847
vt 0.391674 0.848147
vt 0.386674 0.853537
vt 0.389364 0.850647
vt 0.390874 0.852097
vt 0.388224 0.854407
vt 0.385214 0.863807
vt 0.384444 0.858467
vt 0.386084 0.859267
vt 0.390114 0.869507
vt 0.387474 0.867667
vt 0.391924 0.868287
vt 0.390744 0.872647
vt 0.390654 0.871117
vt 0.398944 0.860507
vt 0.399844 0.862747
vt 0.398554 0.862727
vt 0.397934 0.860657
vt 0.396564 0.860887
vt 0.396054 0.862417
vt 0.392844 0.861357
vt 0.394774 0.859717
vt 0.388624 0.857377
vt 0.390944 0.856747
vt 0.392394 0.858067
vt 0.389764 0.859777
vt 0.396314 0.849777
vt 0.395174 0.852357
vt 0.394234 0.851277
vt 0.395344 0.848287
vt 0.390634 0.846067
vt 0.389674 0.843457
vt 0.383454 0.851497
vt 0.386304 0.847087
vt 0.387924 0.849047
vt 0.385124 0.852477
vt 0.383784 0.864417
vt 0.382764 0.865127
vt 0.381804 0.857897
vt 0.382974 0.858067
vt 0.385474 0.870457
vt 0.386364 0.869087
vt 0.401444 0.862427
vt 0.400124 0.862887
vt 0.401464 0.858697
vt 0.395704 0.855447
vt 0.395174 0.856487
vt 0.398024 0.865107
vt 0.399724 0.865297
vt 0.391274 0.863557
vt 0.388064 0.862017
vt 0.393384 0.866327
vt 0.394804 0.864517
vt 0.396354 0.858987
vt 0.397254 0.858657
vt 0.394254 0.857327
vt 0.395504 0.857337
vt 0.398664 0.849747
vt 0.398644 0.849707
vt 0.398644 0.849707
vt 0.398624 0.849507
vt 0.399634 0.844967
vt 0.397484 0.847247
vt 0.396374 0.845507
vt 0.396924 0.843817
vt 0.397824 0.849327
vt 0.398834 0.849587
vt 0.398694 0.849367
vt 0.388514 0.877967
vt 0.380744 0.875237
vt 0.376104 0.868447
vt 0.374924 0.858817
vt 0.376764 0.850027
vt 0.380524 0.843247
vt 0.385644 0.837737
vt 0.391814 0.833657
vt 0.396614 0.871777
vt 0.399684 0.868377
vt 0.400414 0.865227
vt 0.398284 0.849327
vt 0.398504 0.850007
vt 0.399044 0.850787
vt 0.400414 0.849907
vt 0.402104 0.850377
vt 0.399634 0.847907
vt 0.398384 0.848217
vt 0.398504 0.849577
vt 0.398554 0.849627
vt 0.398694 0.849777
vt 0.399014 0.849867
vt 0.399044 0.848987
vt 0.398644 0.849137
vt 0.403214 0.857047
vt 0.403824 0.850217
vt 0.396544 0.833447
vt 0.400904 0.841547
vt 0.406574 0.846987
vt 0.408414 0.857267
vt 0.400764 0.833827
vt 0.389284 0.832177
vt 0.394524 0.831677
vt 0.393744 0.828447
vt 0.381864 0.835967
vt 0.385404 0.828637
vt 0.376494 0.842817
vt 0.372784 0.850497
vt 0.376124 0.833967
vt 0.368604 0.843717
vt 0.371454 0.859717
vt 0.365494 0.853897
vt 0.373014 0.869657
vt 0.366094 0.863367
vt 0.390514 0.886827
vt 0.387894 0.880717
vt 0.395864 0.879257
vt 0.399154 0.883697
vt 0.378994 0.878127
vt 0.382974 0.886327
vt 0.373294 0.879737
vt 0.368824 0.872287
vt 0.377674 0.885417
vt 0.399114 0.875827
vt 0.404864 0.877007
vt 0.398004 0.873017
vt 0.401544 0.867727
vt 0.404324 0.865767
vt 0.408294 0.867667
vt 0.402644 0.862677
vt 0.401864 0.864677
vn -0.8980 -0.4313 -0.0877
vn -0.8626 -0.4912 0.1208
vn -0.8442 -0.3214 0.4289
vn -0.9286 -0.2179 0.3005
vn -0.7603 0.0289 0.6489
vn -0.7674 -0.0148 0.6410
vn -0.6670 -0.1259 0.7344
vn -0.6971 -0.0251 0.7166
vn -0.8032 -0.4740 0.3610
vn -0.8730 -0.0381 0.4862
vn -0.9097 -0.0755 0.4084
vn -0.7606 -0.6491 -0.0111
vn -0.9903 -0.0026 -0.1386
vn -0.7500 -0.0898 0.6554
vn -0.7074 -0.4166 0.5710
vn -0.9801 0.0059 0.1985
vn -0.7301 -0.6654 0.1555
vn -0.9128 -0.0512 0.4052
vn -0.7237 -0.6229 -0.2969
vn -0.9134 -0.0333 0.4057
vn -0.8839 0.0115 0.4675
vn -0.7716 -0.4508 -0.4488
vn -0.8958 -0.1907 -0.4015
vn -0.8226 0.0209 0.5683
vn -0.7441 -0.0337 0.6672
vn -0.7094 -0.0260 0.7043
vn -0.4351 0.2459 0.8661
vn -0.4056 0.5575 0.7243
vn -0.8308 0.1610 0.5328
vn -0.8162 -0.0710 0.5734
vn -0.8684 0.0614 0.4920
vn -0.7281 0.1305 0.6729
vn -0.6805 0.2666 0.6826
vn -0.8785 0.0689 0.4727
vn -0.9006 -0.3821 0.2069
vn -0.9485 -0.3141 0.0400
vn -0.8423 0.1952 -0.5025
vn -0.9239 0.2804 -0.2604
vn -0.8774 -0.4594 -0.1385
vn -0.7653 -0.5696 0.2996
vn -0.7836 -0.4613 0.4162
vn -0.7573 -0.3180 0.5705
vn -0.8536 0.1001 0.5113
vn -0.4679 0.4329 0.7705
vn -0.4710 0.6143 0.6330
vn -0.8745 0.0992 0.4747
vn -0.8236 -0.0529 0.5647
vn -0.8446 0.0858 0.5284
vn -0.4853 0.5771 0.6568
vn -0.4970 0.2241 0.8383
vn -0.9617 0.0527 0.2689
vn -0.9119 -0.0805 0.4025
vn -0.5859 -0.0310 0.8098
vn -0.8087 -0.1502 0.5687
vn -0.9124 0.0823 0.4010
vn -0.7544 -0.1808 0.6310
vn -0.9615 -0.0173 0.2741
vn -0.9058 0.0066 0.4237
vn -0.9359 0.0276 -0.3513
vn -0.8917 -0.3404 -0.2983
vn -0.8172 -0.5611 0.1318
vn -0.9419 -0.3230 0.0925
vn -0.7843 -0.4869 0.3844
vn -0.6860 -0.6002 0.4113
vn -0.6099 -0.4416 0.6580
vn -0.7396 -0.2595 0.6210
vn -0.4640 0.0200 0.8856
vn -0.5933 0.0369 0.8041
vn -0.6526 -0.0725 0.7542
vn -0.5212 -0.2153 0.8258
vn -0.4477 0.4338 0.7819
vn -0.6443 0.1566 0.7486
vn -0.1454 0.7441 0.6521
vn -0.0873 0.6471 0.7574
vn -0.9089 0.0190 0.4166
vn -0.8773 0.1014 0.4691
vn -0.8614 0.0473 0.5057
vn -0.8485 0.1220 0.5149
vn -0.9115 -0.0672 0.4059
vn -0.9515 -0.2030 0.2314
vn -0.9874 0.0843 -0.1339
vn -0.9840 0.0987 0.1483
vn -0.9396 -0.0076 0.3423
vn -0.9868 -0.1498 -0.0622
vn -0.9694 0.2075 0.1310
vn -0.9699 0.2175 0.1093
vn -0.9323 -0.3209 -0.1666
vn -0.8127 -0.0967 -0.5746
vn -0.7801 -0.4849 0.3953
vn -0.8346 -0.4186 0.3581
vn -0.9700 0.0394 0.2399
vn -0.9302 -0.2743 0.2438
vn -0.9358 -0.3076 -0.1720
vn -0.6432 -0.3081 0.7010
vn -0.5402 -0.2438 0.8054
vn -0.8193 -0.0798 0.5678
vn -0.8193 -0.2778 0.5016
vn -0.9289 -0.0032 0.3703
vn -0.9277 0.3399 -0.1544
vn -0.8051 0.1281 0.5791
vn -0.9051 0.4023 0.1378
vn -0.9911 -0.1324 -0.0103
vn -0.7382 -0.6711 0.0684
vn 0.6665 -0.3788 0.6420
vn 0.5911 0.0678 0.8037
vn -0.8725 0.4699 -0.1341
vn -0.2269 0.6801 0.6971
vn -0.3053 0.6591 0.6873
vn -0.5596 0.3973 0.7273
vn -0.5438 0.1912 0.8171
vn -0.8802 0.4528 -0.1421
vn 0.5194 0.6215 0.5865
vn -0.3854 0.9179 0.0939
vn -0.3335 0.7469 -0.5752
vn -0.3104 0.2312 -0.9221
vn -0.2076 -0.1831 -0.9609
vn -0.0464 -0.4669 -0.8831
vn 0.1507 -0.6664 -0.7302
vn 0.2697 -0.7968 -0.5407
vn 0.1848 -0.9617 -0.2023
vn -0.6606 -0.7125 -0.2367
vn -0.7012 -0.5539 -0.4489
vn -0.8165 -0.2759 -0.5072
vn 0.1134 0.1410 0.9835
vn -0.2198 -0.3309 0.9177
vn -0.6155 -0.7484 -0.2471
vn -0.5259 -0.1091 -0.8435
vn -0.7238 -0.0937 -0.6836
vn -0.4362 0.5155 -0.7375
vn 0.0722 0.6850 0.7249
vn 0.8234 0.0653 0.5637
vn 0.6624 -0.2398 0.7098
vn -0.6343 -0.7703 -0.0652
vn -0.8697 -0.1608 -0.4667
vn -0.7645 0.4711 -0.4400
vn 0.6728 0.6051 0.4258
vn -0.9598 -0.2319 0.1578
vn -0.9983 -0.0512 -0.0276
vn -0.5065 -0.6903 0.5167
vn -0.9613 0.0524 0.2706
vn -0.9840 -0.0902 0.1537
vn -0.9821 -0.1290 0.1373
vn -0.9482 -0.1922 0.2531
vn -0.1827 -0.8827 -0.4331
vn -0.3243 -0.9459 0.0073
vn -0.9351 -0.3518 0.0421
vn -0.1153 -0.7853 -0.6082
vn -0.9391 -0.3243 -0.1135
vn -0.1070 -0.6539 -0.7490
vn -0.1536 -0.4524 -0.8785
vn -0.8794 -0.3672 -0.3030
vn -0.7787 -0.3940 -0.4883
vn -0.2415 -0.2088 -0.9477
vn -0.7289 -0.3755 -0.5724
vn -0.4150 0.1549 -0.8965
vn -0.7889 -0.3010 -0.5357
vn -0.9912 -0.0895 0.0976
vn -0.8273 0.5571 0.0719
vn -0.8772 0.3921 0.2771
vn -0.9797 -0.0741 0.1860
vn -0.7445 0.4871 -0.4565
vn -0.9975 -0.0706 0.0098
vn -0.9769 -0.0798 -0.1981
vn -0.9164 -0.1588 -0.3674
vn -0.9922 -0.0751 -0.0995
vn -0.8358 0.3096 0.4534
vn -0.9689 0.0014 0.2473
vn -0.8672 0.0366 0.4965
vn -0.7582 0.1189 0.6410
vn -0.9123 -0.0650 0.4043
vn -0.9760 -0.0518 0.2117
vn -0.7621 -0.3459 0.5473
vn -0.9284 -0.2027 0.3115
usemtl male_feet_low:polySurface9SG.047
s 1
f 1/1/1 2/2/2 3/3/3 4/4/4
f 5/5/5 6/6/6 7/7/7 8/8/8
f 9/9/9 10/10/10 11/11/11 12/12/12
f 13/13/13 14/14/14 15/15/15 16/16/16
f 16/16/16 15/15/15 17/17/17 18/18/18
f 19/19/19 20/20/20 21/21/21 22/22/22
f 23/23/23 24/24/24 14/14/14 13/13/13
f 25/25/25 26/26/26 27/27/27 28/28/28
f 29/29/29 10/10/10 9/9/9 30/30/30
f 31/31/31 32/32/32 33/33/33 34/34/34
f 35/35/35 36/36/36 37/37/37 38/38/38
f 39/39/39 40/40/40 41/41/41 42/42/42
f 43/43/43 44/44/44 45/45/45 46/46/46
f 47/47/47 48/48/48 49/49/49 50/50/50
f 6/6/6 51/51/51 52/52/52 53/53/53
f 54/54/54 55/55/55 5/5/5 56/56/56
f 2/2/2 57/57/57 58/58/58 3/3/3
f 59/59/59 60/60/60 61/61/61 62/62/62
f 63/63/63 64/64/64 65/65/65 66/66/66
f 67/67/67 68/68/68 69/69/69 70/70/70
f 71/71/71 72/72/72 73/73/73 74/74/74
f 71/71/71 42/42/42 41/41/41 72/72/72
f 31/31/31 34/34/34 75/75/75 76/76/76
f 77/77/77 78/78/78 79/79/79 80/80/80
f 81/81/81 82/82/82 83/83/83 84/84/84
f 57/57/57 85/85/85 86/86/86 58/58/58
f 55/55/55 51/51/51 6/6/6 5/5/5
f 85/85/85 82/82/82 81/81/81 86/86/86
f 87/87/87 88/88/88 37/37/37 36/36/36
f 40/40/40 89/89/89 36/36/36 35/35/35
f 41/41/41 90/90/90 25/25/25 72/72/72
f 28/28/28 73/73/73 72/72/72 25/25/25
f 41/41/41 40/40/40 35/35/35 90/90/90
f 90/90/90 35/35/35 38/38/38 91/91/91
f 65/65/65 70/70/70 69/69/69 66/66/66
f 92/92/92 93/93/93 1/1/1 4/4/4
f 25/25/25 90/90/90 91/91/91 26/26/26
f 61/61/61 60/60/60 93/93/93 92/92/92
f 70/70/70 65/65/65 94/94/94 95/95/95
f 70/70/70 95/95/95 53/53/53 67/67/67
f 27/27/27 26/26/26 68/68/68 67/67/67
f 53/53/53 52/52/52 47/47/47 50/50/50
f 56/56/56 5/5/5 8/8/8 96/96/96
f 95/95/95 94/94/94 8/8/8 7/7/7
f 95/95/95 7/7/7 6/6/6 53/53/53
f 94/94/94 97/97/97 96/96/96 8/8/8
f 65/65/65 64/64/64 97/97/97 94/94/94
f 59/59/59 62/62/62 98/98/98 99/99/99
f 100/100/100 101/101/101 99/99/99 98/98/98
f 26/26/26 91/91/91 101/101/101 100/100/100
f 102/102/102 103/103/103 104/104/104 105/105/105
f 106/106/106 107/107/107 108/108/108 109/109/109
f 107/107/107 110/110/110 42/42/42 71/71/71
f 111/111/111 102/102/102 105/105/105 112/112/112
f 53/53/53 50/50/50 27/27/27 67/67/67
f 49/49/49 28/28/28 27/27/27 50/50/50
f 44/44/44 74/74/74 73/73/73 45/45/45
f 32/32/32 109/109/109 108/108/108 33/33/33
f 45/45/45 73/73/73 28/28/28 49/49/49
f 48/48/48 46/46/46 45/45/45 49/49/49
f 78/78/78 76/76/76 75/75/75 79/79/79
f 12/12/12 11/11/11 20/20/20 19/19/19
f 83/83/83 77/77/77 80/80/80 84/84/84
f 22/22/22 21/21/21 24/24/24 23/23/23
f 16/16/16 18/18/18 113/113/113 114/114/114
f 115/115/115 13/13/13 16/16/16 114/114/114
f 116/116/116 23/23/23 13/13/13 115/115/115
f 117/117/117 22/22/22 23/23/23 116/116/116
f 19/19/19 22/22/22 117/117/117 118/118/118
f 119/119/119 12/12/12 19/19/19 118/118/118
f 120/120/120 9/9/9 12/12/12 119/119/119
f 68/68/68 26/26/26 100/100/100 69/69/69
f 69/69/69 100/100/100 98/98/98 66/66/66
f 62/62/62 63/63/63 66/66/66 98/98/98
f 61/61/61 64/64/64 63/63/63 62/62/62
f 64/64/64 61/61/61 92/92/92 97/97/97
f 97/97/97 92/92/92 4/4/4 96/96/96
f 3/3/3 56/56/56 96/96/96 4/4/4
f 58/58/58 54/54/54 56/56/56 3/3/3
f 86/86/86 55/55/55 54/54/54 58/58/58
f 81/81/81 51/51/51 55/55/55 86/86/86
f 51/51/51 81/81/81 84/84/84 52/52/52
f 80/80/80 47/47/47 52/52/52 84/84/84
f 79/79/79 48/48/48 47/47/47 80/80/80
f 75/75/75 46/46/46 48/48/48 79/79/79
f 34/34/34 43/43/43 46/46/46 75/75/75
f 33/33/33 44/44/44 43/43/43 34/34/34
f 108/108/108 74/74/74 44/44/44 33/33/33
f 107/107/107 71/71/71 74/74/74 108/108/108
f 29/29/29 106/106/106 109/109/109 32/32/32
f 10/10/10 29/29/29 32/32/32 31/31/31
f 10/10/10 31/31/31 76/76/76 11/11/11
f 20/20/20 11/11/11 76/76/76 78/78/78
f 21/21/21 20/20/20 78/78/78 77/77/77
f 24/24/24 21/21/21 77/77/77 83/83/83
f 82/82/82 14/14/14 24/24/24 83/83/83
f 15/15/15 14/14/14 82/82/82 85/85/85
f 17/17/17 15/15/15 85/85/85 57/57/57
f 121/121/121 17/17/17 57/57/57 2/2/2
f 122/122/122 121/121/121 2/2/2 1/1/1
f 93/93/93 123/123/123 122/122/122 1/1/1
f 60/60/60 88/88/88 123/123/123 93/93/93
f 37/37/37 88/88/88 60/60/60 59/59/59
f 37/37/37 59/59/59 99/99/99 38/38/38
f 101/101/101 91/91/91 38/38/38 99/99/99
f 110/110/110 124/124/124 125/125/125 42/42/42
f 42/42/42 125/125/125 126/126/126 39/39/39
f 39/39/39 126/126/126 127/127/127 128/128/128
f 106/106/106 129/129/129 130/130/130 107/107/107
f 107/107/107 130/130/130 124/124/124 110/110/110
f 128/128/128 127/127/127 129/129/129 106/106/106
f 124/124/124 131/131/131 132/132/132 125/125/125
f 125/125/125 132/132/132 133/133/133 126/126/126
f 126/126/126 133/133/133 134/134/134 127/127/127
f 129/129/129 135/135/135 136/136/136 130/130/130
f 130/130/130 136/136/136 131/131/131 124/124/124
f 127/127/127 134/134/134 135/135/135 129/129/129
f 131/131/131 105/105/105 104/104/104 132/132/132
f 132/132/132 104/104/104 103/103/103 133/133/133
f 133/133/133 103/103/103 102/102/102 134/134/134
f 135/135/135 111/111/111 112/112/112 136/136/136
f 136/136/136 112/112/112 105/105/105 131/131/131
f 134/134/134 102/102/102 111/111/111 135/135/135
f 39/39/39 137/137/137 89/89/89 40/40/40
f 138/138/138 137/137/137 39/39/39 128/128/128
f 120/120/120 139/139/139 30/30/30 9/9/9
f 106/106/106 140/140/140 138/138/138 128/128/128
f 30/30/30 140/140/140 106/106/106 29/29/29
f 138/138/138 141/141/141 142/142/142 137/137/137
f 140/140/140 143/143/143 141/141/141 138/138/138
f 143/143/143 140/140/140 30/30/30 139/139/139
f 120/120/120 144/144/144 145/145/145 139/139/139
f 145/145/145 146/146/146 143/143/143 139/139/139
f 147/147/147 144/144/144 120/120/120 119/119/119
f 144/144/144 148/148/148 146/146/146 145/145/145
f 149/149/149 118/118/118 117/117/117 150/150/150
f 118/118/118 149/149/149 147/147/147 119/119/119
f 151/151/151 147/147/147 149/149/149 152/152/152
f 147/147/147 151/151/151 148/148/148 144/144/144
f 116/116/116 153/153/153 150/150/150 117/117/117
f 150/150/150 154/154/154 152/152/152 149/149/149
f 115/115/115 155/155/155 153/153/153 116/116/116
f 153/153/153 156/156/156 154/154/154 150/150/150
f 157/157/157 158/158/158 159/159/159 160/160/160
f 161/161/161 114/114/114 113/113/113 158/158/158
f 162/162/162 161/161/161 158/158/158 157/157/157
f 114/114/114 161/161/161 155/155/155 115/115/115
f 161/161/161 163/163/163 164/164/164 155/155/155
f 163/163/163 161/161/161 162/162/162 165/165/165
f 155/155/155 164/164/164 156/156/156 153/153/153
f 113/113/113 166/166/166 159/159/159 158/158/158
f 166/166/166 167/167/167 160/160/160 159/159/159
f 121/121/121 168/168/168 18/18/18 17/17/17
f 168/168/168 166/166/166 113/113/113 18/18/18
f 166/166/166 168/168/168 169/169/169 170/170/170
f 171/171/171 170/170/170 137/137/137 142/142/142
f 166/166/166 170/170/170 171/171/171 167/167/167
f 172/172/172 173/173/173 87/87/87
f 173/173/173 123/123/123 88/88/88 87/87/87
f 172/172/172 89/89/89 137/137/137 170/170/170
f 173/173/173 172/172/172 170/170/170 169/169/169
f 89/89/89 172/172/172 87/87/87 36/36/36
f 122/122/122 169/169/169 168/168/168 121/121/121
f 169/169/169 122/122/122 123/123/123 173/173/173
