# Blender v2.79 (sub 0) OBJ File: 'male.blend'
# www.blender.org
mtllib groin.mtl
o male_12_groin_middle
v 0.986017 28.436235 2.680351
v 0.534835 28.465651 2.860520
v 0.367404 28.086075 2.220382
v 0.670853 28.069817 2.131626
v 1.313831 28.957777 3.007079
v 0.702397 29.007790 3.314215
v 0.000000 28.991650 3.459069
v 0.000000 28.453625 2.941230
v 0.838405 29.620745 3.588994
v 0.000000 29.623114 3.755345
v 1.595226 29.552143 3.172441
v 0.922702 30.238590 3.726082
v 0.000000 30.251093 3.873599
v 1.739970 30.188246 3.262488
v 0.955436 30.819937 3.766666
v 0.000000 30.831202 3.889088
v 1.802164 30.789440 3.321319
v 0.464061 27.944607 1.385172
v 0.258354 28.026926 1.420212
v 0.252706 28.123484 0.567724
v 0.430116 27.932058 0.554376
v 0.000118 28.022280 1.434502
v 0.000000 28.187197 0.573625
v 0.000000 28.074057 2.257503
v 0.000000 31.375328 3.876369
v 0.955395 31.367744 3.783726
v 1.836908 31.351255 3.438064
v -0.986017 28.436235 2.680351
v -0.670853 28.069817 2.131626
v -0.367404 28.086075 2.220382
v -0.534835 28.465651 2.860520
v -0.702397 29.007790 3.314215
v -1.313831 28.957777 3.007079
v -0.838405 29.620745 3.588994
v -1.595226 29.552143 3.172441
v -0.922702 30.238590 3.726082
v -1.739970 30.188246 3.262488
v -0.955436 30.819937 3.766666
v -1.802164 30.789440 3.321319
v -0.464061 27.944607 1.385172
v -0.430116 27.932058 0.554376
v -0.252706 28.123484 0.567724
v -0.258354 28.026926 1.420212
v -0.000118 28.022280 1.434502
v -0.955395 31.367744 3.783726
v -1.836908 31.351255 3.438064
vt 0.292956 0.569273
vt 0.299849 0.574085
vt 0.306425 0.563457
vt 0.302886 0.560185
vt 0.284801 0.579008
vt 0.294638 0.584886
vt 0.306948 0.589154
vt 0.309010 0.577695
vt 0.290361 0.595473
vt 0.304660 0.600027
vt 0.277969 0.588754
vt 0.286504 0.605320
vt 0.302075 0.610172
vt 0.273096 0.598529
vt 0.485218 0.389273
vt 0.484548 0.397846
vt 0.500000 0.398150
vt 0.500000 0.389510
vt 0.471408 0.387518
vt 0.469798 0.396376
vt 0.314919 0.553045
vt 0.316457 0.555723
vt 0.329485 0.550532
vt 0.327895 0.547208
vt 0.318837 0.559333
vt 0.331013 0.554061
vt 0.311728 0.566894
vt 0.500000 0.406259
vt 0.484308 0.405917
vt 0.469098 0.404741
vt 0.292956 0.569273
vt 0.302886 0.560185
vt 0.306425 0.563457
vt 0.299849 0.574085
vt 0.294638 0.584886
vt 0.284801 0.579008
vt 0.290361 0.595473
vt 0.277969 0.588754
vt 0.286504 0.605320
vt 0.273096 0.598529
vt 0.485218 0.389273
vt 0.484548 0.397846
vt 0.469798 0.396376
vt 0.471408 0.387518
vt 0.314919 0.553045
vt 0.327895 0.547208
vt 0.329485 0.550532
vt 0.316457 0.555723
vt 0.318837 0.559333
vt 0.484308 0.405917
vt 0.469098 0.404741
vn 0.2221 -0.7388 0.6362
vn 0.1686 -0.7524 0.6368
vn 0.0450 -0.9370 0.3464
vn 0.0147 -0.9307 0.3654
vn 0.3504 -0.5201 0.7789
vn 0.2559 -0.5333 0.8063
vn 0.1694 -0.5387 0.8253
vn 0.1246 -0.7608 0.6369
vn 0.3075 -0.3215 0.8956
vn 0.1771 -0.3126 0.9332
vn 0.4329 -0.3245 0.8410
vn 0.3193 -0.1547 0.9350
vn 0.1561 -0.1305 0.9791
vn 0.4671 -0.1754 0.8666
vn 0.2921 -0.0745 0.9535
vn 0.1270 -0.0283 0.9915
vn 0.4430 -0.1164 0.8889
vn -0.3794 -0.9231 0.0627
vn -0.1838 -0.9829 0.0124
vn -0.3461 -0.9333 -0.0956
vn -0.5834 -0.8117 -0.0268
vn -0.0361 -0.9989 -0.0308
vn -0.1194 -0.9815 -0.1494
vn 0.0667 -0.9423 0.3281
vn 0.1009 -0.0422 0.9940
vn 0.2391 -0.0885 0.9670
vn 0.3739 -0.1385 0.9171
vn -0.2221 -0.7388 0.6362
vn -0.0147 -0.9307 0.3654
vn -0.0450 -0.9370 0.3465
vn -0.1686 -0.7524 0.6368
vn -0.2560 -0.5333 0.8063
vn -0.3504 -0.5201 0.7789
vn -0.1246 -0.7608 0.6369
vn -0.1694 -0.5387 0.8253
vn -0.1771 -0.3126 0.9332
vn -0.3075 -0.3215 0.8956
vn -0.4329 -0.3245 0.8410
vn -0.1561 -0.1305 0.9791
vn -0.3193 -0.1547 0.9350
vn -0.4671 -0.1754 0.8666
vn -0.1269 -0.0281 0.9915
vn -0.2921 -0.0745 0.9535
vn -0.4429 -0.1165 0.8890
vn 0.3794 -0.9231 0.0627
vn 0.5834 -0.8117 -0.0268
vn 0.3461 -0.9333 -0.0956
vn 0.1838 -0.9829 0.0124
vn 0.1194 -0.9815 -0.1494
vn 0.0361 -0.9989 -0.0308
vn -0.0667 -0.9423 0.3281
vn -0.1009 -0.0422 0.9940
vn -0.2391 -0.0885 0.9670
vn -0.3739 -0.1385 0.9171
usemtl male_feet_low:polySurface9SG.017
s 1
f 1/1/1 2/2/2 3/3/3 4/4/4
f 1/1/1 5/5/5 6/6/6 2/2/2
f 6/6/6 7/7/7 8/8/8 2/2/2
f 6/6/6 9/9/9 10/10/10 7/7/7
f 6/6/6 5/5/5 11/11/11 9/9/9
f 9/9/9 12/12/12 13/13/13 10/10/10
f 9/9/9 11/11/11 14/14/14 12/12/12
f 12/15/12 15/16/15 16/17/16 13/18/13
f 12/15/12 14/19/14 17/20/17 15/16/15
f 18/21/18 19/22/19 20/23/20 21/24/21
f 18/21/18 4/4/4 3/3/3 19/22/19
f 19/22/19 22/25/22 23/26/23 20/23/20
f 19/22/19 3/3/3 24/27/24 22/25/22
f 24/27/24 3/3/3 2/2/2 8/8/8
f 25/28/25 16/17/16 15/16/15 26/29/26
f 27/30/27 26/29/26 15/16/15 17/20/17
f 28/31/28 29/32/29 30/33/30 31/34/31
f 28/31/28 31/34/31 32/35/32 33/36/33
f 32/35/32 31/34/31 8/8/34 7/7/35
f 32/35/32 7/7/35 10/10/36 34/37/37
f 32/35/32 34/37/37 35/38/38 33/36/33
f 34/37/37 10/10/36 13/13/39 36/39/40
f 34/37/37 36/39/40 37/40/41 35/38/38
f 36/41/40 13/18/39 16/17/42 38/42/43
f 36/41/40 38/42/43 39/43/44 37/44/41
f 40/45/45 41/46/46 42/47/47 43/48/48
f 40/45/45 43/48/48 30/33/30 29/32/29
f 43/48/48 42/47/47 23/26/49 44/49/50
f 43/48/48 44/49/50 24/27/51 30/33/30
f 24/27/51 8/8/34 31/34/31 30/33/30
f 25/28/52 45/50/53 38/42/43 16/17/42
f 46/51/54 39/43/44 38/42/43 45/50/53
