# Blender v2.79 (sub 0) OBJ File: 'male.blend'
# www.blender.org
mtllib hand_rt.mtl
o male_34_hand_Rt_half_Rt
v -19.036655 36.876308 3.021714
v -18.724516 36.661575 3.058452
v -18.397707 36.915245 2.639045
v -18.740768 37.166149 2.617122
v -19.297962 35.994411 2.270438
v -18.851677 36.021229 2.224202
v -18.921984 35.927814 2.589081
v -19.249704 35.911697 2.562579
v -18.459068 36.171978 2.309663
v -18.664717 36.071270 2.730475
v -18.581118 36.342194 2.922977
v -18.251358 36.512886 2.490929
v -18.903307 36.171112 1.816050
v -18.426605 36.262005 1.798449
v -19.387522 36.083130 1.909439
v -19.769634 35.962822 2.435888
v -19.522835 36.028133 2.649439
v -19.925640 36.117699 2.704212
v -19.680132 36.192902 2.773605
v -20.052774 35.789963 0.223941
v -19.755901 36.075741 0.155575
v -19.541050 35.870228 0.024711
v -19.836773 35.622524 0.069284
v -20.175543 35.930809 0.485970
v -19.923872 36.240997 0.376180
v -20.403473 36.118359 0.644151
v -20.086998 36.403984 0.594072
v -20.514833 36.232681 0.926849
v -20.194920 36.534016 0.847401
v -20.566481 36.336994 1.206078
v -20.271759 36.655300 1.107067
v -20.707422 36.505657 1.452166
v -20.338247 36.777569 1.371761
v -20.684664 36.529964 1.785338
v -20.327589 36.834927 1.679264
v -20.678722 36.570541 2.105458
v -20.318396 36.914936 2.017382
v -20.674717 36.628563 2.478486
v -20.252899 36.899376 2.409476
v -20.496643 36.449783 2.783859
v -20.154205 36.691540 2.751804
v -20.030964 36.365219 2.844997
v -19.751377 36.461926 2.870356
v -19.762987 36.848080 2.759397
v -20.306873 36.174713 2.864890
v -20.211918 35.949463 2.767589
v -20.203203 35.746651 2.530499
v -20.296017 35.545383 2.222302
v -19.832613 35.840504 2.061684
v -19.825283 35.723934 1.715112
v -19.460304 36.064560 1.535460
v -20.208252 35.437729 1.857168
v -20.229149 35.360935 1.507679
v -19.791908 35.613468 1.405367
v -19.014069 36.215008 1.395791
v -18.566767 36.313080 1.286381
v -19.330667 35.627857 0.024786
v -19.623720 35.411297 0.080324
v -19.222752 35.445473 0.261236
v -19.527693 35.242462 0.284324
v -19.171106 37.289310 2.442410
v -19.379885 36.895782 2.847988
v -19.714005 37.168877 2.345474
v -19.343895 37.399929 2.085671
v -19.901209 37.180115 1.916587
v -19.524822 37.406376 1.763929
v -19.967995 37.106670 1.577119
v -19.639696 37.362816 1.451240
v -19.993149 37.029869 1.280200
v -19.689541 37.285267 1.161020
v -19.951458 36.910465 1.019629
v -19.675247 37.171925 0.896031
v -19.887960 36.789055 0.765510
v -19.632561 37.050083 0.637395
v -19.779116 36.647240 0.528600
v -19.523769 36.894749 0.406529
v -19.645304 36.497829 0.289746
v -19.388338 36.737579 0.181169
v -19.460894 36.321377 0.097107
v -19.206316 36.568077 -0.005099
v -19.250891 36.115452 -0.048829
v -18.981960 36.376369 -0.124863
v -18.727324 36.158146 -0.056593
v -19.020052 35.871376 -0.023139
v -18.571989 36.011818 0.276271
v -18.888065 35.692711 0.260611
v -19.104395 36.017551 1.066502
v -18.659828 36.063534 0.796175
v -18.981611 35.673218 0.646660
v -19.301497 35.398697 0.592399
v -19.614498 35.180977 0.575122
v -19.506834 35.444561 0.882326
v -19.882729 35.203789 0.862577
v -19.252361 35.730095 0.912951
v -19.475180 35.904812 1.238922
v -19.686541 35.516796 1.140496
v -20.025858 35.291824 1.185638
v -19.476429 35.744057 1.075889
v -18.189678 36.539482 1.195864
v -18.057837 36.651440 1.843432
v -18.130913 37.100742 2.185935
v -18.450386 37.361465 2.227616
v -18.766401 37.528225 2.122695
v -19.020803 37.620651 1.889970
v -19.222116 37.641254 1.602810
v -19.355715 37.606060 1.304121
v -19.417219 37.527794 1.016187
v -19.428055 37.423004 0.744184
v -19.388012 37.285748 0.488119
v -19.296726 37.120632 0.253046
v -19.152231 36.947067 0.058057
v -18.960489 36.783581 -0.079075
v -18.727541 36.628326 -0.122407
v -18.481005 36.473446 -0.020527
v -18.300367 36.371536 0.280901
v -18.248091 36.408192 0.715608
vt 0.143388 0.670559
vt 0.149426 0.670655
vt 0.151234 0.681376
vt 0.144213 0.681260
vt 0.176663 0.661244
vt 0.171492 0.668921
vt 0.166914 0.663147
vt 0.171640 0.657882
vt 0.165888 0.674990
vt 0.161500 0.667218
vt 0.155590 0.669713
vt 0.159047 0.679526
vt 0.177540 0.674059
vt 0.172169 0.681852
vt 0.182510 0.665072
vt 0.181209 0.652035
vt 0.174707 0.652331
vt 0.178936 0.647065
vt 0.175796 0.647911
vt 0.078488 0.685151
vt 0.083066 0.690469
vt 0.078721 0.694255
vt 0.075168 0.689338
vt 0.082115 0.681281
vt 0.087021 0.686642
vt 0.086492 0.677295
vt 0.091451 0.683152
vt 0.090648 0.673509
vt 0.095596 0.679938
vt 0.094930 0.670390
vt 0.099688 0.676988
vt 0.099720 0.667165
vt 0.104203 0.674387
vt 0.104309 0.663729
vt 0.108739 0.671553
vt 0.108548 0.660916
vt 0.113804 0.668846
vt 0.114311 0.658062
vt 0.119661 0.665421
vt 0.120719 0.654266
vt 0.125117 0.660430
vt 0.129230 0.655228
vt 0.133692 0.658675
vt 0.130933 0.665791
vt 0.131831 0.650787
vt 0.134802 0.653652
vt 0.125350 0.650089
vt 0.128215 0.646188
vt 0.186665 0.644274
vt 0.181675 0.642434
vt 0.192999 0.646473
vt 0.187416 0.655841
vt 0.192925 0.659806
vt 0.187913 0.668561
vt 0.197968 0.651326
vt 0.203477 0.655355
vt 0.197556 0.663539
vt 0.184276 0.677369
vt 0.180945 0.685510
vt 0.073952 0.697458
vt 0.070960 0.692986
vt 0.068813 0.699774
vt 0.066508 0.695566
vt 0.136304 0.680498
vt 0.137255 0.669301
vt 0.126978 0.674419
vt 0.129907 0.683892
vt 0.119037 0.677168
vt 0.123267 0.685309
vt 0.113349 0.679304
vt 0.117420 0.686821
vt 0.108443 0.681535
vt 0.112217 0.688640
vt 0.103938 0.683850
vt 0.107555 0.690628
vt 0.099561 0.686430
vt 0.103008 0.692912
vt 0.095258 0.689306
vt 0.098377 0.695523
vt 0.090838 0.692573
vt 0.093883 0.698505
vt 0.086397 0.696010
vt 0.089485 0.701624
vt 0.081914 0.699362
vt 0.085107 0.704521
vt 0.080127 0.707207
vt 0.076754 0.702428
vt 0.073751 0.710421
vt 0.070939 0.705018
vt 0.190926 0.678659
vt 0.190535 0.687382
vt 0.199047 0.683427
vt 0.203097 0.689095
vt 0.197736 0.693874
vt 0.205232 0.679008
vt 0.207876 0.684358
vt 0.210752 0.674831
vt 0.212243 0.680266
vt 0.203160 0.673129
vt 0.209589 0.667905
vt 0.197175 0.677263
vt 0.193009 0.671152
vt 0.200770 0.667831
vt 0.206173 0.661974
vt 0.196742 0.672410
vt 0.177255 0.693440
vt 0.165169 0.689962
vt 0.154374 0.691061
vt 0.146645 0.690987
vt 0.139804 0.690839
vt 0.133037 0.691632
vt 0.126312 0.692616
vt 0.120253 0.693895
vt 0.114967 0.695449
vt 0.110082 0.697247
vt 0.105302 0.699235
vt 0.100301 0.701519
vt 0.095533 0.704141
vt 0.091419 0.706763
vt 0.087698 0.709332
vt 0.083362 0.711933
vt 0.077695 0.715201
vt 0.192713 0.699288
vt 0.185386 0.695640
vn -0.0074 0.6705 0.7419
vn 0.5190 0.3411 0.7838
vn 0.7136 0.3337 0.6159
vn 0.2045 0.7385 0.6425
vn 0.1071 -0.9820 -0.1557
vn 0.2256 -0.9473 -0.2275
vn 0.3287 -0.9186 -0.2193
vn -0.0678 -0.9566 -0.2834
vn 0.6446 -0.7644 0.0147
vn 0.7130 -0.6803 0.1700
vn 0.7987 -0.1906 0.5707
vn 0.8947 -0.2703 0.3557
vn 0.1932 -0.9620 -0.1930
vn 0.5417 -0.8338 -0.1065
vn 0.3116 -0.9468 -0.0806
vn 0.3209 -0.9081 0.2691
vn -0.3227 -0.9452 0.0499
vn 0.2447 -0.5894 0.7699
vn -0.4313 -0.6007 0.6731
vn -0.6732 0.2474 -0.6969
vn -0.4923 0.3150 -0.8114
vn -0.2442 0.0560 -0.9681
vn -0.3578 0.0598 -0.9319
vn -0.6581 0.1902 -0.7286
vn -0.5730 0.3853 -0.7233
vn -0.6924 0.2833 -0.6636
vn -0.5871 0.4714 -0.6581
vn -0.8189 0.4214 -0.3896
vn -0.6439 0.5861 -0.4918
vn -0.7812 0.3693 -0.5033
vn -0.6488 0.5997 -0.4684
vn -0.7975 0.5158 -0.3130
vn -0.6410 0.7068 -0.2992
vn -0.8057 0.5923 -0.0031
vn -0.6292 0.7698 -0.1076
vn -0.8085 0.5835 -0.0767
vn -0.5801 0.8145 0.0086
vn -0.7020 0.6697 0.2423
vn -0.4594 0.8207 0.3396
vn -0.3636 0.4847 0.7955
vn -0.2842 0.5948 0.7519
vn -0.0139 0.0204 0.9997
vn -0.3218 0.1378 0.9367
vn -0.2956 0.6452 0.7045
vn 0.0488 0.0372 0.9981
vn 0.4332 -0.5334 0.7265
vn 0.4628 -0.7830 0.4155
vn 0.3941 -0.8597 0.3249
vn 0.5211 -0.8356 0.1739
vn 0.6298 -0.7427 0.2274
vn 0.4987 -0.8514 0.1627
vn 0.4281 -0.8603 0.2766
vn 0.3689 -0.8749 0.3139
vn 0.6348 -0.6834 0.3605
vn 0.2853 -0.9481 0.1407
vn 0.4736 -0.8764 0.0867
vn 0.1753 -0.4151 -0.8927
vn 0.1214 -0.3773 -0.9181
vn 0.5450 -0.7796 -0.3087
vn 0.5287 -0.7711 -0.3548
vn -0.1400 0.8188 0.5567
vn -0.2861 0.6871 0.6679
vn -0.3557 0.8398 0.4101
vn -0.3417 0.8742 0.3450
vn -0.4997 0.8611 0.0940
vn -0.4933 0.8515 0.1780
vn -0.6016 0.7939 -0.0880
vn -0.6168 0.7871 -0.0052
vn -0.6512 0.7155 -0.2531
vn -0.6951 0.6923 -0.1936
vn -0.6690 0.6163 -0.4154
vn -0.7332 0.5830 -0.3500
vn -0.6656 0.5444 -0.5104
vn -0.7342 0.4705 -0.4894
vn -0.6310 0.4588 -0.6255
vn -0.6937 0.3720 -0.6168
vn -0.5835 0.3776 -0.7190
vn -0.6149 0.2903 -0.7332
vn -0.4776 0.2449 -0.8438
vn -0.4534 0.1797 -0.8730
vn -0.2223 -0.0092 -0.9749
vn -0.1031 -0.0364 -0.9940
vn 0.4314 -0.4061 -0.8056
vn 0.2844 -0.4456 -0.8488
vn 0.7258 -0.6683 -0.1631
vn 0.6558 -0.7271 -0.2033
vn 0.4047 -0.7627 0.5045
vn 0.5904 -0.7546 0.2863
vn 0.6158 -0.7016 0.3585
vn 0.5689 -0.7667 0.2977
vn 0.5289 -0.7911 0.3074
vn 0.5157 -0.6667 0.5381
vn 0.3942 -0.7961 0.4592
vn 0.5019 -0.6020 0.6211
vn 0.5835 -0.6869 0.4333
vn 0.5702 -0.6452 0.5086
vn 0.3928 -0.8238 0.4086
vn 0.5899 -0.5385 0.6017
vn 0.6248 -0.7798 0.0383
vn 0.8485 -0.5185 0.1059
vn 0.8322 0.2397 0.5000
vn 0.3236 0.7208 0.6130
vn -0.0369 0.8410 0.5398
vn -0.3159 0.8613 0.3979
vn -0.5072 0.8301 0.2316
vn -0.6314 0.7745 0.0384
vn -0.7124 0.6823 -0.1643
vn -0.7512 0.5733 -0.3272
vn -0.7487 0.4459 -0.4905
vn -0.7029 0.3275 -0.6314
vn -0.5938 0.2469 -0.7658
vn -0.3671 0.1604 -0.9162
vn 0.0434 -0.0370 -0.9984
vn 0.5363 -0.3738 -0.7567
vn 0.7447 -0.6489 -0.1561
vn 0.6596 -0.7356 0.1545
usemtl male_feet_low:polySurface9SG.052
s 1
f 1/1/1 2/2/2 3/3/3 4/4/4
f 5/5/5 6/6/6 7/7/7 8/8/8
f 9/9/9 10/10/10 7/7/7 6/6/6
f 11/11/11 12/12/12 3/3/3 2/2/2
f 9/9/9 12/12/12 11/11/11 10/10/10
f 6/6/6 13/13/13 14/14/14 9/9/9
f 15/15/15 13/13/13 6/6/6 5/5/5
f 16/16/16 5/5/5 8/8/8 17/17/17
f 18/18/18 16/16/16 17/17/17 19/19/19
f 20/20/20 21/21/21 22/22/22 23/23/23
f 24/24/24 25/25/25 21/21/21 20/20/20
f 26/26/26 27/27/27 25/25/25 24/24/24
f 28/28/28 29/29/29 27/27/27 26/26/26
f 30/30/30 31/31/31 29/29/29 28/28/28
f 32/32/32 33/33/33 31/31/31 30/30/30
f 32/32/32 34/34/34 35/35/35 33/33/33
f 36/36/36 37/37/37 35/35/35 34/34/34
f 38/38/38 39/39/39 37/37/37 36/36/36
f 38/38/38 40/40/40 41/41/41 39/39/39
f 41/41/41 42/42/42 43/43/43 44/44/44
f 43/43/43 42/42/42 18/45/18 19/46/19
f 45/47/45 46/48/46 18/45/18 42/42/42
f 45/47/45 42/42/42 41/41/41 40/40/40
f 47/49/47 16/16/16 18/18/18 46/50/46
f 47/49/47 48/51/48 49/52/49 16/16/16
f 49/52/49 50/53/50 51/54/51 15/15/15
f 49/52/49 15/15/15 5/5/5 16/16/16
f 52/55/52 50/53/50 49/52/49 48/51/48
f 52/55/52 53/56/53 54/57/54 50/53/50
f 13/13/13 55/58/55 56/59/56 14/14/14
f 51/54/51 55/58/55 13/13/13 15/15/15
f 57/60/57 58/61/58 23/23/23 22/22/22
f 59/62/59 60/63/60 58/61/58 57/60/57
f 4/4/4 61/64/61 62/65/62 1/1/1
f 63/66/63 44/44/44 62/65/62 61/64/61
f 63/66/63 39/39/39 41/41/41 44/44/44
f 61/64/61 64/67/64 63/66/63
f 63/66/63 65/68/65 37/37/37 39/39/39
f 64/67/64 66/69/66 65/68/65 63/66/63
f 67/70/67 35/35/35 37/37/37 65/68/65
f 68/71/68 67/70/67 65/68/65 66/69/66
f 69/72/69 33/33/33 35/35/35 67/70/67
f 68/71/68 70/73/70 69/72/69 67/70/67
f 71/74/71 31/31/31 33/33/33 69/72/69
f 72/75/72 71/74/71 69/72/69 70/73/70
f 71/74/71 73/76/73 29/29/29 31/31/31
f 74/77/74 73/76/73 71/74/71 72/75/72
f 73/76/73 75/78/75 27/27/27 29/29/29
f 74/77/74 76/79/76 75/78/75 73/76/73
f 75/78/75 77/80/77 25/25/25 27/27/27
f 76/79/76 78/81/78 77/80/77 75/78/75
f 77/80/77 79/82/79 21/21/21 25/25/25
f 80/83/80 79/82/79 77/80/77 78/81/78
f 81/84/81 22/22/22 21/21/21 79/82/79
f 80/83/80 82/85/82 81/84/81 79/82/79
f 83/86/83 84/87/84 81/84/81 82/85/82
f 84/87/84 57/60/57 22/22/22 81/84/81
f 85/88/85 86/89/86 84/87/84 83/86/83
f 86/89/86 59/62/59 57/60/57 84/87/84
f 55/58/55 87/90/87 88/91/88 56/59/56
f 89/92/89 86/93/86 85/94/85 88/91/88
f 89/92/89 90/95/90 59/96/59 86/93/86
f 59/96/59 90/95/90 91/97/91 60/98/60
f 90/95/90 92/99/92 93/100/93 91/97/91
f 94/101/94 89/92/89 88/91/88 87/90/87
f 94/101/94 92/99/92 90/95/90 89/92/89
f 54/57/54 95/102/95 51/54/51 50/53/50
f 95/102/95 87/90/87 55/58/55 51/54/51
f 92/99/92 96/103/96 97/104/97 93/100/93
f 95/102/95 98/105/98 94/101/94 87/90/87
f 97/104/97 96/103/96 54/57/54 53/56/53
f 96/103/96 98/105/98 95/102/95 54/57/54
f 98/105/98 96/103/96 92/99/92 94/101/94
f 99/106/99 100/107/100 14/14/14 56/59/56
f 14/14/14 100/107/100 12/12/12 9/9/9
f 101/108/101 3/3/3 12/12/12 100/107/100
f 102/109/102 4/4/4 3/3/3 101/108/101
f 102/109/102 103/110/103 61/64/61 4/4/4
f 104/111/104 64/67/64 61/64/61 103/110/103
f 105/112/105 66/69/66 64/67/64 104/111/104
f 106/113/106 68/71/68 66/69/66 105/112/105
f 107/114/107 70/73/70 68/71/68 106/113/106
f 107/114/107 108/115/108 72/75/72 70/73/70
f 108/115/108 109/116/109 74/77/74 72/75/72
f 110/117/110 76/79/76 74/77/74 109/116/109
f 111/118/111 78/81/78 76/79/76 110/117/110
f 112/119/112 80/83/80 78/81/78 111/118/111
f 113/120/113 82/85/82 80/83/80 112/119/112
f 114/121/114 83/86/83 82/85/82 113/120/113
f 114/121/114 115/122/115 85/88/85 83/86/83
f 115/123/115 116/124/116 88/91/88 85/94/85
f 116/124/116 99/106/99 56/59/56 88/91/88
