# Blender v2.79 (sub 0) OBJ File: 'male.blend'
# www.blender.org
mtllib heel_lt.mtl
o male_27_heel_Lt_half_Lt
v 5.181557 2.077125 -1.060915
v 5.214270 2.002891 -1.483509
v 5.235323 1.665626 -1.452265
v 5.211896 1.714461 -1.001397
v 5.463089 1.852850 -2.718999
v 5.414587 1.533031 -2.731831
v 5.347712 1.570067 -2.332332
v 5.384978 1.890284 -2.330827
v 5.556060 1.830852 -3.039881
v 5.705883 1.821391 -3.261351
v 5.675581 1.490072 -3.293552
v 5.515702 1.506461 -3.061505
v 5.257898 1.312882 -1.901477
v 5.284416 1.616548 -1.897388
v 5.298756 1.272280 -2.341404
v 5.240433 1.348295 -1.454408
v 5.273617 0.991854 -2.345981
v 5.253990 1.030734 -1.911896
v 5.267672 1.059963 -1.476246
v 5.291210 1.941860 -1.911553
v 5.369284 1.234135 -2.744585
v 5.345273 0.951866 -2.745076
v 5.481779 1.201901 -3.079293
v 5.466361 0.914114 -3.077831
v 5.229497 1.368060 -1.015659
v 5.282694 1.068411 -1.059637
v 5.318852 0.806683 -1.501688
v 5.371521 0.819335 -1.105752
v 5.469526 0.610584 -1.147060
v 5.386600 0.589838 -1.524028
v 5.475015 0.413545 -1.546752
v 5.576581 0.441301 -1.187059
v 5.581266 0.277633 -1.577293
v 5.695607 0.311159 -1.232720
v 5.697591 0.174017 -1.621947
v 5.821223 0.210639 -1.287615
v 5.821335 0.096488 -1.686981
v 5.952367 0.133029 -1.353703
v 5.599169 0.134757 -1.944983
v 5.710713 0.067262 -1.992108
v 5.647203 0.054722 -2.200392
v 5.558712 0.099269 -2.235314
v 5.711012 0.024801 -2.337677
v 5.826455 0.022431 -2.092714
v 5.954628 0.043660 -1.775081
v 5.491024 0.234200 -1.926617
v 6.090603 0.075122 -1.429954
v 6.099829 0.011376 -1.874555
v 6.237065 0.035000 -1.511283
v 5.315817 0.549772 -1.920685
v 5.393471 0.370620 -1.921002
v 5.302486 0.503929 -2.322090
v 5.368194 0.323494 -2.296026
v 5.362953 0.460739 -2.693971
v 5.416957 0.280161 -2.642422
v 5.498122 0.148600 -2.576331
v 5.456920 0.189388 -2.266999
v 5.487330 0.421617 -3.002177
v 5.535625 0.244782 -2.928602
v 5.273726 0.731352 -2.339756
v 5.342592 0.689430 -2.728268
v 5.467551 0.649109 -3.051852
v 5.271918 0.773477 -1.919186
v 6.871101 1.541224 -2.847901
v 6.632242 1.516962 -3.159791
v 6.604527 1.869865 -3.083474
v 6.846283 1.903227 -2.789129
v 6.920708 1.211679 -2.923612
v 6.665314 1.190223 -3.230813
v 7.094964 1.953934 -2.464134
v 7.102743 1.578095 -2.493164
v 7.155399 1.237704 -2.559454
v 6.385226 1.502372 -3.384442
v 6.374440 1.851869 -3.313597
v 6.131522 1.835476 -3.410683
v 6.124306 1.490072 -3.467474
v 7.290503 1.619952 -2.104258
v 7.286542 2.014699 -2.096790
v 7.392771 2.087803 -1.698279
v 7.428270 1.664975 -1.684216
v 7.494421 1.270215 -1.750158
v 7.346328 1.260132 -2.161736
v 7.502498 0.265267 -1.926991
v 7.399295 0.155419 -1.904558
v 7.287123 0.159430 -2.274166
v 7.382920 0.271034 -2.306417
v 7.211724 0.272560 -2.667643
v 7.260438 0.440613 -2.697065
v 7.446250 0.441027 -2.319870
v 7.573247 0.430825 -1.930575
v 7.133839 0.164840 -2.616650
v 7.280143 0.085785 -1.875226
v 7.174265 0.092094 -2.238551
v 7.460594 0.668952 -2.299428
v 7.596161 0.655941 -1.903000
v 7.263461 0.666003 -2.686708
v 7.017955 0.425519 -3.029248
v 7.013255 0.648688 -3.035270
v 6.725448 0.620898 -3.308439
v 6.700474 0.889873 -3.287188
v 6.976852 0.914201 -2.995449
v 7.222106 0.934396 -2.635252
v 7.420824 0.944143 -2.240861
v 6.417637 0.593890 -3.469536
v 6.406646 0.868486 -3.472393
v 6.394897 1.174310 -3.438864
v 6.731133 0.397601 -3.278253
v 6.988598 0.260343 -2.978445
v 6.719884 0.236041 -3.201737
v 6.938592 0.157522 -2.900151
v 6.703133 0.136937 -3.094680
v 6.432194 0.211495 -3.318155
v 6.447777 0.111925 -3.192382
v 6.424798 0.369994 -3.415418
v 7.567817 0.935968 -1.839745
v 5.902997 1.823406 -3.383220
v 5.882911 1.484513 -3.426537
v 5.866439 1.165133 -3.462345
v 6.118673 1.164333 -3.509252
v 5.858593 0.862977 -3.473192
v 6.117682 0.858081 -3.529906
v 6.122035 0.582237 -3.507148
v 5.862432 0.589726 -3.441809
v 5.666184 0.390208 -3.225935
v 5.643093 0.613891 -3.290344
v 5.882211 0.367126 -3.370548
v 5.638545 0.882652 -3.322635
v 5.650297 1.178056 -3.320108
v 5.919898 0.206021 -3.268120
v 5.711204 0.222158 -3.134667
v 5.975455 0.095485 -3.140465
v 5.776768 0.102377 -3.018584
v 6.053802 0.023702 -2.972370
v 5.866032 0.022933 -2.861834
v 5.610406 0.117757 -2.831983
v 5.708952 0.035626 -2.698495
v 5.599738 0.063858 -2.485494
v 5.981895 -0.013269 -2.636791
v 6.159777 -0.010323 -2.737300
v 5.828592 -0.000956 -2.498882
v 6.160004 0.201832 -3.332168
v 6.200115 0.097805 -3.201184
v 6.135057 0.359226 -3.438177
v 6.262206 0.033661 -3.031754
v 6.483070 0.054270 -3.032721
v 7.044190 0.100954 -2.564037
v 7.049667 0.048640 -2.209549
v 6.942696 0.060358 -2.528851
v 6.909191 0.019395 -2.187381
v 6.808259 0.032789 -2.525484
v 6.753400 0.000256 -2.159967
v 6.644400 0.010928 -2.519154
v 6.588113 -0.010504 -2.116225
v 6.466472 -0.005835 -2.487039
v 6.548762 0.024624 -2.814531
v 6.352427 0.003180 -2.797832
v 6.699759 0.080612 -2.963555
v 6.729942 0.049580 -2.786418
v 6.889176 0.099020 -2.812709
v 6.856265 0.068645 -2.730976
v 6.287556 -0.015551 -2.424213
v 6.117049 -0.015075 -2.332288
v 6.256195 -0.005210 -1.970391
v 6.420386 -0.012403 -2.052531
v 6.548337 -0.006817 -1.662717
v 6.390637 0.009420 -1.590775
v 5.961625 -0.004014 -2.216731
v 6.707103 -0.013107 -1.724101
v 6.863007 -0.008358 -1.773558
v 7.011894 0.009336 -1.812245
v 7.150944 0.040453 -1.844611
vt 0.209663 0.081458
vt 0.202800 0.080691
vt 0.202021 0.086369
vt 0.210178 0.087471
vt 0.188126 0.067886
vt 0.184269 0.071049
vt 0.187934 0.077888
vt 0.191648 0.072989
vt 0.185910 0.062712
vt 0.184976 0.058052
vt 0.180891 0.058866
vt 0.181861 0.064436
vt 0.192738 0.087723
vt 0.194427 0.083255
vt 0.184808 0.081685
vt 0.200955 0.091136
vt 0.161989 0.082764
vt 0.168254 0.076930
vt 0.165211 0.073504
vt 0.159988 0.078188
vt 0.154802 0.087507
vt 0.153448 0.082464
vt 0.196331 0.078008
vt 0.180160 0.074391
vt 0.169499 0.068389
vt 0.173524 0.071408
vt 0.177226 0.066113
vt 0.171931 0.063286
vt 0.209615 0.092550
vt 0.147351 0.091101
vt 0.146632 0.085590
vt 0.151280 0.078799
vt 0.144896 0.081122
vt 0.143494 0.077265
vt 0.149531 0.075564
vt 0.148166 0.072690
vt 0.142452 0.073875
vt 0.147195 0.070054
vt 0.141745 0.070833
vt 0.146632 0.067551
vt 0.141374 0.067970
vt 0.146453 0.065035
vt 0.141266 0.065179
vt 0.151424 0.066545
vt 0.151076 0.064484
vt 0.154275 0.063358
vt 0.155425 0.064221
vt 0.155520 0.061442
vt 0.151448 0.062196
vt 0.146608 0.062424
vt 0.152406 0.068234
vt 0.141338 0.062376
vt 0.146920 0.059717
vt 0.141542 0.059525
vt 0.155401 0.072498
vt 0.153724 0.070174
vt 0.160180 0.068617
vt 0.158276 0.066904
vt 0.163618 0.064556
vt 0.161510 0.063394
vt 0.159689 0.062448
vt 0.156718 0.065479
vt 0.165594 0.060651
vt 0.163438 0.059980
vt 0.162480 0.070797
vt 0.166217 0.066161
vt 0.168313 0.061669
vt 0.157461 0.075433
vt 0.188186 0.032334
vt 0.184437 0.038263
vt 0.189132 0.040372
vt 0.192690 0.035724
vt 0.183526 0.029196
vt 0.179621 0.035712
vt 0.197086 0.031723
vt 0.192822 0.026249
vt 0.189024 0.023578
vt 0.181933 0.044432
vt 0.186605 0.045247
vt 0.185347 0.049847
vt 0.180939 0.049691
vt 0.199098 0.022536
vt 0.202380 0.029256
vt 0.208238 0.028166
vt 0.206621 0.021182
vt 0.204045 0.015696
vt 0.195840 0.018295
vt 0.145866 0.034287
vt 0.144716 0.037245
vt 0.149495 0.039018
vt 0.150753 0.036419
vt 0.155988 0.039473
vt 0.157653 0.037233
vt 0.152550 0.033795
vt 0.147387 0.030957
vt 0.154742 0.041306
vt 0.143925 0.039964
vt 0.148693 0.041366
vt 0.154718 0.030334
vt 0.149280 0.027087
vt 0.159893 0.034299
vt 0.161606 0.040875
vt 0.163953 0.038599
vt 0.166732 0.042947
vt 0.170026 0.040575
vt 0.167020 0.035460
vt 0.162839 0.030441
vt 0.160995 0.020727
vt 0.157473 0.025770
vt 0.166756 0.025614
vt 0.170817 0.031292
vt 0.174351 0.036730
vt 0.168290 0.047163
vt 0.171679 0.045798
vt 0.176483 0.043630
vt 0.164241 0.044516
vt 0.159809 0.042492
vt 0.162324 0.045558
vt 0.158431 0.043714
vt 0.160779 0.046289
vt 0.163798 0.048577
vt 0.162133 0.048924
vt 0.165750 0.048026
vt 0.151580 0.022440
vt 0.154418 0.016654
vt 0.184844 0.054123
vt 0.180663 0.054255
vt 0.176303 0.054315
vt 0.176291 0.049631
vt 0.172338 0.054231
vt 0.172159 0.050290
vt 0.168936 0.050817
vt 0.169152 0.054159
vt 0.166433 0.057177
vt 0.169020 0.057621
vt 0.166660 0.054123
vt 0.172338 0.058315
vt 0.176519 0.059178
vt 0.164660 0.054087
vt 0.164361 0.056878
vt 0.162827 0.054039
vt 0.162468 0.056662
vt 0.160755 0.053943
vt 0.160360 0.056459
vt 0.161522 0.059453
vt 0.159485 0.059046
vt 0.157916 0.061693
vt 0.157413 0.056387
vt 0.157832 0.053919
vt 0.156658 0.058914
vt 0.164504 0.051392
vt 0.162743 0.051476
vt 0.166469 0.051176
vt 0.160791 0.051488
vt 0.160360 0.049092
vt 0.153820 0.042971
vt 0.148393 0.043642
vt 0.153376 0.044696
vt 0.148633 0.046037
vt 0.153532 0.046696
vt 0.148321 0.048637
vt 0.153748 0.048972
vt 0.147974 0.051380
vt 0.153688 0.051452
vt 0.157796 0.049104
vt 0.158000 0.051476
vt 0.159258 0.046816
vt 0.157114 0.046960
vt 0.157245 0.044720
vt 0.156179 0.045415
vt 0.153424 0.054039
vt 0.152969 0.056674
vt 0.147255 0.056962
vt 0.147603 0.054171
vt 0.142164 0.053704
vt 0.141817 0.056614
vt 0.152334 0.059381
vt 0.142560 0.050805
vt 0.143027 0.047966
vt 0.143518 0.045247
vt 0.143530 0.042576
vn -0.9983 -0.0578 0.0123
vn -0.9940 -0.0573 -0.0927
vn -0.9967 -0.0300 -0.0756
vn -0.9989 -0.0457 0.0065
vn -0.9617 0.1397 -0.2360
vn -0.9596 0.1458 -0.2405
vn -0.9778 0.1201 -0.1716
vn -0.9772 0.0955 -0.1895
vn -0.8986 0.1424 -0.4151
vn -0.6945 0.1369 -0.7063
vn -0.6934 0.1286 -0.7089
vn -0.8929 0.1368 -0.4289
vn -0.9965 0.0443 -0.0714
vn -0.9900 0.0462 -0.1336
vn -0.9843 0.1074 -0.1402
vn -0.9987 -0.0425 -0.0287
vn -0.9932 0.0277 -0.1126
vn -0.9993 -0.0372 -0.0061
vn -0.9887 -0.1444 0.0402
vn -0.9868 0.0127 -0.1617
vn -0.9616 0.1144 -0.2495
vn -0.9657 0.0334 -0.2575
vn -0.8903 0.0925 -0.4459
vn -0.8894 0.0046 -0.4572
vn -0.9955 -0.0946 0.0062
vn -0.9672 -0.2497 0.0463
vn -0.9589 -0.2561 0.1224
vn -0.9147 -0.3862 0.1192
vn -0.8458 -0.4974 0.1928
vn -0.9023 -0.3836 0.1968
vn -0.8014 -0.5454 0.2457
vn -0.7362 -0.6313 0.2437
vn -0.6619 -0.7006 0.2665
vn -0.5978 -0.7564 0.2656
vn -0.5024 -0.8250 0.2587
vn -0.4623 -0.8475 0.2608
vn -0.3353 -0.9170 0.2160
vn -0.3360 -0.9133 0.2300
vn -0.5550 -0.8018 0.2215
vn -0.3402 -0.9220 0.1851
vn -0.3663 -0.9226 0.1214
vn -0.5901 -0.8010 0.1012
vn -0.2452 -0.9686 0.0411
vn -0.1759 -0.9781 0.1110
vn -0.1953 -0.9689 0.1520
vn -0.7276 -0.6531 0.2097
vn -0.2292 -0.9566 0.1798
vn -0.1032 -0.9902 0.0937
vn -0.1488 -0.9810 0.1243
vn -0.9494 -0.2895 0.1218
vn -0.8609 -0.4779 0.1746
vn -0.9716 -0.2338 -0.0365
vn -0.8981 -0.4393 0.0190
vn -0.9458 -0.2285 -0.2307
vn -0.8738 -0.4514 -0.1809
vn -0.7206 -0.6837 -0.1155
vn -0.7685 -0.6362 0.0684
vn -0.8499 -0.2809 -0.4458
vn -0.7598 -0.5196 -0.3908
vn -0.9939 -0.0751 -0.0808
vn -0.9647 -0.0691 -0.2543
vn -0.8810 -0.1093 -0.4604
vn -0.9884 -0.1398 0.0591
vn 0.7847 0.1888 -0.5904
vn 0.7103 0.1977 -0.6756
vn 0.7279 0.1794 -0.6618
vn 0.7889 0.1338 -0.5998
vn 0.7684 0.2550 -0.5869
vn 0.6717 0.2123 -0.7098
vn 0.8579 0.0651 -0.5096
vn 0.8500 0.1481 -0.5056
vn 0.8326 0.2619 -0.4880
vn 0.4985 0.1775 -0.8486
vn 0.5419 0.1850 -0.8198
vn 0.1209 0.1669 -0.9785
vn 0.0822 0.1510 -0.9851
vn 0.9179 0.1230 -0.3774
vn 0.9317 0.0402 -0.3611
vn 0.9633 0.1143 -0.2428
vn 0.9465 0.1620 -0.2792
vn 0.9188 0.2419 -0.3119
vn 0.8903 0.2498 -0.3808
vn 0.8129 -0.5299 -0.2419
vn 0.6003 -0.7794 -0.1791
vn 0.5969 -0.7675 -0.2338
vn 0.8049 -0.4974 -0.3237
vn 0.7649 -0.4678 -0.4429
vn 0.8493 -0.1365 -0.5099
vn 0.9113 -0.1650 -0.3773
vn 0.9349 -0.2098 -0.2863
vn 0.5843 -0.7450 -0.3220
vn 0.3982 -0.9085 -0.1272
vn 0.3929 -0.9066 -0.1539
vn 0.9155 0.1047 -0.3884
vn 0.9504 0.0620 -0.3047
vn 0.8484 0.1226 -0.5150
vn 0.7396 -0.1497 -0.6562
vn 0.7515 0.0972 -0.6525
vn 0.5907 0.0192 -0.8066
vn 0.6263 0.1651 -0.7619
vn 0.7525 0.2333 -0.6159
vn 0.8285 0.2607 -0.4956
vn 0.8886 0.2536 -0.3821
vn 0.3204 -0.0872 -0.9433
vn 0.3766 0.0749 -0.9233
vn 0.4385 0.1511 -0.8859
vn 0.5522 -0.2255 -0.8027
vn 0.6673 -0.4685 -0.5790
vn 0.4819 -0.5254 -0.7012
vn 0.5222 -0.7392 -0.4254
vn 0.3713 -0.7811 -0.5020
vn 0.2207 -0.6093 -0.7616
vn 0.1734 -0.8359 -0.5207
vn 0.2702 -0.3317 -0.9039
vn 0.9227 0.2278 -0.3111
vn -0.3380 0.1448 -0.9299
vn -0.3531 0.1336 -0.9260
vn -0.3724 0.0841 -0.9242
vn 0.0397 0.1052 -0.9937
vn -0.3941 -0.0269 -0.9187
vn -0.0019 0.0038 -1.0000
vn -0.0430 -0.1702 -0.9845
vn -0.4091 -0.1956 -0.8913
vn -0.6628 -0.3610 -0.6560
vn -0.7000 -0.1659 -0.6946
vn -0.3948 -0.4144 -0.8200
vn -0.7053 -0.0231 -0.7085
vn -0.6983 0.0794 -0.7114
vn -0.3301 -0.6585 -0.6763
vn -0.5654 -0.6030 -0.5628
vn -0.2124 -0.8612 -0.4618
vn -0.3953 -0.8269 -0.3998
vn -0.0804 -0.9691 -0.2330
vn -0.1980 -0.9598 -0.1992
vn -0.5797 -0.7637 -0.2839
vn -0.3358 -0.9322 -0.1347
vn -0.4813 -0.8757 -0.0398
vn -0.0670 -0.9966 -0.0480
vn 0.0019 -0.9970 -0.0778
vn -0.1505 -0.9886 -0.0084
vn -0.0640 -0.6620 -0.7467
vn -0.0267 -0.8650 -0.5010
vn -0.0682 -0.4058 -0.9114
vn 0.0277 -0.9668 -0.2541
vn 0.1406 -0.9511 -0.2751
vn 0.4002 -0.8923 -0.2088
vn 0.2496 -0.9627 -0.1047
vn 0.2511 -0.9591 -0.1309
vn 0.1511 -0.9858 -0.0740
vn 0.1550 -0.9836 -0.0924
vn 0.0831 -0.9954 -0.0479
vn 0.1028 -0.9924 -0.0682
vn 0.0323 -0.9993 -0.0184
vn 0.0594 -0.9974 -0.0409
vn 0.1207 -0.9847 -0.1254
vn 0.0617 -0.9929 -0.1014
vn 0.2587 -0.9202 -0.2937
vn 0.1791 -0.9726 -0.1482
vn 0.3758 -0.8835 -0.2797
vn 0.2564 -0.9520 -0.1675
vn 0.0169 -0.9998 -0.0111
vn -0.0298 -0.9993 0.0205
vn -0.0495 -0.9975 0.0503
vn -0.0104 -0.9998 0.0147
vn -0.0515 -0.9980 0.0380
vn -0.0939 -0.9926 0.0768
vn -0.0896 -0.9943 0.0573
vn -0.0027 -1.0000 0.0028
vn 0.0610 -0.9977 -0.0307
vn 0.1453 -0.9874 -0.0621
vn 0.2521 -0.9633 -0.0920
usemtl male_feet_low:polySurface9SG.041
s 1
f 1/1/1 2/2/2 3/3/3 4/4/4
f 5/5/5 6/6/6 7/7/7 8/8/8
f 9/9/9 10/10/10 11/11/11 12/12/12
f 5/5/5 9/9/9 12/12/12 6/6/6
f 13/13/13 14/14/14 7/7/7 15/15/15
f 16/16/16 3/3/3 14/14/14 13/13/13
f 13/17/13 15/18/15 17/19/17 18/20/18
f 16/21/16 13/17/13 18/20/18 19/22/19
f 7/7/7 14/14/14 20/23/20 8/8/8
f 2/2/2 20/23/20 14/14/14 3/3/3
f 7/7/7 6/6/6 21/24/21 15/15/15
f 22/25/22 21/26/21 23/27/23 24/28/24
f 15/18/15 21/26/21 22/25/22 17/19/17
f 6/6/6 12/12/12 23/27/23 21/24/21
f 16/16/16 25/29/25 4/4/4 3/3/3
f 25/30/25 16/21/16 19/22/19 26/31/26
f 26/31/26 19/22/19 27/32/27 28/33/28
f 29/34/29 28/33/28 27/32/27 30/35/30
f 29/34/29 30/35/30 31/36/31 32/37/32
f 32/37/32 31/36/31 33/38/33 34/39/34
f 34/39/34 33/38/33 35/40/35 36/41/36
f 37/42/37 38/43/38 36/41/36 35/40/35
f 37/42/37 35/40/35 39/44/39 40/45/40
f 41/46/41 40/45/40 39/44/39 42/47/42
f 40/45/40 41/46/41 43/48/43 44/49/44
f 37/42/37 40/45/40 44/49/44 45/50/45
f 35/40/35 33/38/33 46/51/46 39/44/39
f 47/52/47 38/43/38 37/42/37 45/50/45
f 47/52/47 45/50/45 48/53/48 49/54/49
f 50/55/50 51/56/51 31/36/31 30/35/30
f 52/57/52 53/58/53 51/56/51 50/55/50
f 52/57/52 54/59/54 55/60/55 53/58/53
f 56/61/56 57/62/57 53/58/53 55/60/55
f 51/56/51 53/58/53 57/62/57 46/51/46
f 55/60/55 54/59/54 58/63/58 59/64/59
f 54/59/54 52/57/52 60/65/60 61/66/61
f 62/67/62 58/63/58 54/59/54 61/66/61
f 63/68/63 60/65/60 52/57/52 50/55/50
f 27/32/27 63/68/63 50/55/50 30/35/30
f 19/22/19 18/20/18 63/68/63 27/32/27
f 63/68/63 18/20/18 17/19/17 60/65/60
f 51/56/51 46/51/46 33/38/33 31/36/31
f 64/69/64 65/70/65 66/71/66 67/72/67
f 68/73/68 69/74/69 65/70/65 64/69/64
f 64/69/64 67/72/67 70/75/70 71/76/71
f 72/77/72 68/73/68 64/69/64 71/76/71
f 65/70/65 73/78/73 74/79/74 66/71/66
f 75/80/75 74/79/74 73/78/73 76/81/76
f 77/82/77 71/76/71 70/75/70 78/83/78
f 78/83/78 79/84/79 80/85/80 77/82/77
f 80/85/80 81/86/81 82/87/82 77/82/77
f 82/87/82 72/77/72 71/76/71 77/82/77
f 83/88/83 84/89/84 85/90/85 86/91/86
f 86/91/86 87/92/87 88/93/88 89/94/89
f 90/95/90 83/88/83 86/91/86 89/94/89
f 85/90/85 91/96/91 87/92/87 86/91/86
f 85/90/85 84/89/84 92/97/92 93/98/93
f 94/99/94 95/100/95 90/95/90 89/94/89
f 89/94/89 88/93/88 96/101/96 94/99/94
f 88/93/88 97/102/97 98/103/98 96/101/96
f 98/103/98 99/104/99 100/105/100 101/106/101
f 96/101/96 98/103/98 101/106/101 102/107/102
f 82/108/82 103/109/103 102/107/102 72/110/72
f 103/109/103 94/99/94 96/101/96 102/107/102
f 68/111/68 72/110/72 102/107/102 101/106/101
f 68/111/68 101/106/101 100/105/100 69/112/69
f 100/105/100 99/104/99 104/113/104 105/114/105
f 100/105/100 105/114/105 106/115/106 69/112/69
f 98/103/98 97/102/97 107/116/107 99/104/99
f 107/116/107 97/102/97 108/117/108 109/118/109
f 110/119/110 111/120/111 109/118/109 108/117/108
f 112/121/112 109/118/109 111/120/111 113/122/113
f 109/118/109 112/121/112 114/123/114 107/116/107
f 88/93/88 87/92/87 108/117/108 97/102/97
f 99/104/99 107/116/107 114/123/114 104/113/104
f 115/124/115 95/100/95 94/99/94 103/109/103
f 115/124/115 103/109/103 82/108/82 81/125/81
f 17/19/17 22/25/22 61/66/61 60/65/60
f 61/66/61 22/25/22 24/28/24 62/67/62
f 116/126/116 117/127/117 11/11/11 10/10/10
f 117/127/117 116/126/116 75/80/75 76/81/76
f 118/128/118 117/127/117 76/81/76 119/129/119
f 120/130/120 118/128/118 119/129/119 121/131/121
f 120/130/120 121/131/121 122/132/122 123/133/123
f 124/134/124 125/135/125 123/133/123 126/136/126
f 62/67/62 125/135/125 124/134/124 58/63/58
f 62/67/62 24/28/24 127/137/127 125/135/125
f 23/27/23 128/138/128 127/137/127 24/28/24
f 128/138/128 11/11/11 117/127/117 118/128/118
f 128/138/128 118/128/118 120/130/120 127/137/127
f 12/12/12 11/11/11 128/138/128 23/27/23
f 127/137/127 120/130/120 123/133/123 125/135/125
f 124/134/124 126/136/126 129/139/129 130/140/130
f 131/141/131 132/142/132 130/140/130 129/139/129
f 131/141/131 133/143/133 134/144/134 132/142/132
f 135/145/135 132/142/132 134/144/134 136/146/136
f 56/61/56 135/145/135 136/146/136 137/147/137
f 56/61/56 55/60/55 59/64/59 135/145/135
f 59/64/59 130/140/130 132/142/132 135/145/135
f 138/148/138 134/144/134 133/143/133 139/149/139
f 140/150/140 136/146/136 134/144/134 138/148/138
f 141/151/141 142/152/142 131/141/131 129/139/129
f 141/151/141 143/153/143 114/123/114 112/121/112
f 126/136/126 143/153/143 141/151/141 129/139/129
f 123/133/123 122/132/122 143/153/143 126/136/126
f 122/132/122 104/113/104 114/123/114 143/153/143
f 141/151/141 112/121/112 113/122/113 142/152/142
f 144/154/144 133/143/133 131/141/131 142/152/142
f 113/122/113 145/155/145 144/154/144 142/152/142
f 124/134/124 130/140/130 59/64/59 58/63/58
f 119/129/119 106/115/106 105/114/105 121/131/121
f 119/129/119 76/81/76 73/78/73 106/115/106
f 104/113/104 122/132/122 121/131/121 105/114/105
f 85/90/85 93/98/93 146/156/146 91/96/91
f 146/156/146 93/98/93 147/157/147 148/158/148
f 148/158/148 147/157/147 149/159/149 150/160/150
f 150/160/150 149/159/149 151/161/151 152/162/152
f 152/162/152 151/161/151 153/163/153 154/164/154
f 155/165/155 152/162/152 154/164/154 156/166/156
f 155/165/155 145/155/145 157/167/157 158/168/158
f 155/165/155 158/168/158 150/160/150 152/162/152
f 157/167/157 159/169/159 160/170/160 158/168/158
f 159/169/159 157/167/157 111/120/111 110/119/110
f 159/169/159 146/156/146 148/158/148 160/170/160
f 148/158/148 150/160/150 158/168/158 160/170/160
f 110/119/110 91/96/91 146/156/146 159/169/159
f 113/122/113 111/120/111 157/167/157 145/155/145
f 145/155/145 155/165/155 156/166/156 144/154/144
f 139/149/139 156/166/156 154/164/154 161/171/161
f 138/148/138 139/149/139 161/171/161 162/172/162
f 163/173/163 162/172/162 161/171/161 164/174/164
f 163/173/163 164/174/164 165/175/165 166/176/166
f 163/173/163 166/176/166 49/54/49 48/53/48
f 48/53/48 167/177/167 162/172/162 163/173/163
f 162/172/162 167/177/167 140/150/140 138/148/138
f 164/174/164 161/171/161 154/164/154 153/163/153
f 168/178/168 153/163/153 151/161/151 169/179/169
f 164/174/164 153/163/153 168/178/168 165/175/165
f 169/179/169 151/161/151 149/159/149 170/180/170
f 156/166/156 139/149/139 133/143/133 144/154/144
f 92/97/92 171/181/171 147/157/147 93/98/93
f 171/181/171 170/180/170 149/159/149 147/157/147
f 91/96/91 110/119/110 108/117/108 87/92/87
f 73/78/73 65/70/65 69/74/69 106/115/106
f 46/51/46 57/62/57 42/47/42 39/44/39
f 42/47/42 57/62/57 56/61/56 137/147/137
f 42/47/42 137/147/137 43/48/43 41/46/41
f 136/146/136 140/150/140 43/48/43 137/147/137
f 44/49/44 43/48/43 140/150/140 167/177/167
f 167/177/167 48/53/48 45/50/45 44/49/44
