# Blender v2.79 (sub 0) OBJ File: 'male.blend'
# www.blender.org
mtllib hip.mtl
o male_11_hip_middle
v 0.000000 33.712460 4.354984
v 0.000000 33.072319 4.177116
v 0.874097 33.084881 4.094500
v 0.845712 33.726261 4.280417
v 0.000000 32.480061 4.016293
v 0.906476 32.486004 3.937781
v 0.000000 31.917513 3.914518
v 0.937067 31.915810 3.835260
v 0.000000 31.375328 3.876369
v 0.955395 31.367744 3.783726
v 1.629035 33.793350 3.967983
v 1.684950 33.145248 3.774237
v 1.826143 31.918533 3.565082
v 1.762990 32.518436 3.654143
v 1.836908 31.351255 3.438064
v 2.587121 32.556793 3.346758
v 2.642242 32.025169 3.219095
v 2.522802 31.924381 3.253244
v 3.777186 34.080299 2.880062
v 3.117004 33.988388 3.276072
v 3.221658 33.297054 3.126943
v 3.804166 33.383598 2.654693
v 2.468705 33.217999 3.434626
v 2.335902 33.899315 3.520466
v 3.309235 32.617134 2.970283
v 3.858077 33.170952 2.632449
v 4.035195 33.409939 2.403211
v 4.265617 33.678902 2.188660
v 4.234043 34.141914 2.292767
v 4.506458 34.140877 1.603612
v 0.000000 34.409145 4.501651
v 0.845712 33.726261 4.280417
v 0.820042 34.417892 4.454734
v 4.558138 34.836853 1.750453
v 4.206675 34.836018 2.446359
v 4.234043 34.141914 2.292767
v 4.506458 34.140877 1.603612
v 4.589705 34.082687 0.859402
v 4.703314 34.781227 0.981881
v 4.619832 34.009705 0.108723
v 4.579701 34.695389 0.228120
v 3.777186 34.080299 2.880062
v 3.684185 34.774548 3.013879
v 2.986239 34.679573 3.372621
v 3.117004 33.988388 3.276072
v 2.230767 34.586143 3.658976
v 1.586342 34.473778 4.174343
v 1.629035 33.793350 3.967983
v 2.335902 33.899315 3.520466
v -0.845712 33.726261 4.280417
v -0.874097 33.084881 4.094500
v -0.906476 32.486004 3.937781
v -0.937067 31.915810 3.835260
v -0.955395 31.367744 3.783726
v -1.629035 33.793350 3.967983
v -1.684950 33.145248 3.774237
v -1.762990 32.518436 3.654143
v -1.826143 31.918533 3.565082
v -1.836908 31.351255 3.438064
v -2.587121 32.556793 3.346758
v -2.642242 32.025169 3.219095
v -2.522802 31.924381 3.253244
v -3.777186 34.080299 2.880062
v -3.804166 33.383598 2.654693
v -3.221658 33.297054 3.126943
v -3.117004 33.988388 3.276072
v -2.335902 33.899315 3.520466
v -2.468705 33.217999 3.434626
v -3.309235 32.617134 2.970283
v -3.858077 33.170952 2.632449
v -4.035195 33.409939 2.403211
v -4.265617 33.678902 2.188660
v -4.234043 34.141914 2.292767
v -4.506458 34.140877 1.603612
v -0.820042 34.417892 4.454734
v -0.845712 33.726261 4.280417
v -4.558138 34.836853 1.750453
v -4.506458 34.140877 1.603612
v -4.234043 34.141914 2.292767
v -4.206675 34.836018 2.446359
v -4.703314 34.781227 0.981881
v -4.589705 34.082687 0.859402
v -4.579701 34.695389 0.228120
v -4.619832 34.009705 0.108723
v -3.777186 34.080299 2.880062
v -3.117004 33.988388 3.276072
v -2.986239 34.679573 3.372621
v -3.684185 34.774548 3.013879
v -2.230767 34.586143 3.658976
v -2.335902 33.899315 3.520466
v -1.629035 33.793350 3.967983
v -1.586342 34.473778 4.174343
vt 0.500000 0.442146
vt 0.500000 0.432235
vt 0.485428 0.432150
vt 0.486098 0.442146
vt 0.500000 0.423074
vt 0.484858 0.422884
vt 0.500000 0.414443
vt 0.484438 0.414159
vt 0.500000 0.406259
vt 0.484308 0.405917
vt 0.472148 0.442335
vt 0.470928 0.432188
vt 0.469168 0.413409
vt 0.469868 0.422542
vt 0.469098 0.404741
vt 0.455208 0.422106
vt 0.454551 0.413705
vt 0.456742 0.412330
vt 0.432038 0.444450
vt 0.444648 0.443729
vt 0.442858 0.432776
vt 0.430298 0.433041
vt 0.456568 0.432349
vt 0.458288 0.442952
vt 0.441656 0.421757
vt 0.429855 0.429592
vt 0.424564 0.432913
vt 0.418906 0.436734
vt 0.419808 0.444346
vt 0.407428 0.443236
vt 0.500000 0.452872
vt 0.486098 0.442146
vt 0.486768 0.452891
vt 0.408668 0.454522
vt 0.421278 0.455537
vt 0.419808 0.444346
vt 0.407428 0.443236
vt 0.395028 0.441188
vt 0.395978 0.452644
vt 0.382658 0.439149
vt 0.383748 0.449922
vt 0.432038 0.444450
vt 0.433758 0.455480
vt 0.446588 0.454579
vt 0.444648 0.443729
vt 0.459838 0.453687
vt 0.473518 0.453137
vt 0.472148 0.442335
vt 0.458288 0.442952
vt 0.486098 0.442146
vt 0.485428 0.432150
vt 0.484858 0.422884
vt 0.484438 0.414159
vt 0.484308 0.405917
vt 0.472148 0.442335
vt 0.470928 0.432188
vt 0.469868 0.422542
vt 0.469168 0.413409
vt 0.469098 0.404741
vt 0.455208 0.422106
vt 0.454551 0.413705
vt 0.456742 0.412330
vt 0.432038 0.444450
vt 0.430298 0.433041
vt 0.442858 0.432776
vt 0.444648 0.443729
vt 0.458288 0.442952
vt 0.456568 0.432349
vt 0.441656 0.421757
vt 0.429855 0.429592
vt 0.424564 0.432913
vt 0.418906 0.436734
vt 0.419808 0.444346
vt 0.407428 0.443236
vt 0.486768 0.452891
vt 0.486098 0.442146
vt 0.408668 0.454522
vt 0.407428 0.443236
vt 0.419808 0.444346
vt 0.421278 0.455537
vt 0.395978 0.452644
vt 0.395028 0.441188
vt 0.383748 0.449922
vt 0.382658 0.439149
vt 0.432038 0.444450
vt 0.444648 0.443729
vt 0.446588 0.454579
vt 0.433758 0.455480
vt 0.459838 0.453687
vt 0.458288 0.442952
vt 0.472148 0.442335
vt 0.473518 0.453137
vn 0.0917 -0.2700 0.9585
vn 0.0909 -0.2627 0.9606
vn 0.2282 -0.2385 0.9440
vn 0.2303 -0.2580 0.9383
vn 0.0872 -0.2156 0.9726
vn 0.2089 -0.1856 0.9602
vn 0.0871 -0.1285 0.9879
vn 0.2036 -0.1319 0.9701
vn 0.1009 -0.0421 0.9940
vn 0.2391 -0.0884 0.9670
vn 0.4227 -0.1823 0.8877
vn 0.3952 -0.1557 0.9053
vn 0.3451 -0.1434 0.9275
vn 0.3507 -0.1323 0.9271
vn 0.3738 -0.1384 0.9171
vn 0.4034 -0.1158 0.9077
vn 0.3941 -0.1425 0.9080
vn 0.3813 -0.1442 0.9131
vn 0.6645 -0.1508 0.7319
vn 0.4571 -0.1284 0.8801
vn 0.4816 -0.1120 0.8692
vn 0.6641 -0.1201 0.7379
vn 0.4034 -0.1013 0.9094
vn 0.4163 -0.1088 0.9027
vn 0.4728 -0.0900 0.8765
vn 0.6127 -0.0514 0.7887
vn 0.7663 -0.1304 0.6291
vn 0.8002 -0.1165 0.5884
vn 0.8101 -0.1106 0.5757
vn 0.9298 -0.0192 0.3676
vn 0.0574 -0.1817 0.9817
vn 0.0739 -0.2233 0.9719
vn 0.2253 -0.2305 0.9466
vn 0.2017 -0.1933 0.9602
vn 0.9457 -0.0626 0.3191
vn 0.8226 -0.0300 0.5678
vn 0.8506 -0.0880 0.5185
vn 0.9546 -0.1293 0.2684
vn 0.9954 -0.0882 0.0361
vn 0.9974 -0.0593 0.0418
vn 0.9974 -0.0429 -0.0575
vn 0.9955 -0.0313 -0.0895
vn 0.6462 -0.0668 0.7602
vn 0.6142 -0.0231 0.7888
vn 0.4336 -0.0733 0.8981
vn 0.4191 -0.0830 0.9042
vn 0.5072 -0.1361 0.8510
vn 0.4774 -0.1817 0.8597
vn 0.4870 -0.1837 0.8539
vn 0.4608 -0.1201 0.8794
vn -0.0917 -0.2700 0.9585
vn -0.2303 -0.2580 0.9383
vn -0.2282 -0.2385 0.9440
vn -0.0908 -0.2622 0.9607
vn -0.2089 -0.1856 0.9602
vn -0.0872 -0.2156 0.9726
vn -0.2036 -0.1320 0.9701
vn -0.0871 -0.1285 0.9879
vn -0.2391 -0.0884 0.9670
vn -0.1009 -0.0421 0.9940
vn -0.4227 -0.1823 0.8877
vn -0.3952 -0.1557 0.9053
vn -0.3507 -0.1323 0.9271
vn -0.3451 -0.1434 0.9275
vn -0.3738 -0.1384 0.9171
vn -0.4034 -0.1158 0.9077
vn -0.3941 -0.1425 0.9080
vn -0.3813 -0.1442 0.9131
vn -0.6645 -0.1508 0.7319
vn -0.6641 -0.1201 0.7379
vn -0.4816 -0.1120 0.8692
vn -0.4571 -0.1284 0.8801
vn -0.4163 -0.1088 0.9027
vn -0.4031 -0.1010 0.9096
vn -0.4305 -0.1046 0.8965
vn -0.6127 -0.0514 0.7887
vn -0.7663 -0.1304 0.6291
vn -0.8002 -0.1165 0.5884
vn -0.8101 -0.1106 0.5757
vn -0.9298 -0.0192 0.3676
vn -0.0574 -0.1817 0.9817
vn -0.2017 -0.1933 0.9602
vn -0.2253 -0.2305 0.9466
vn -0.0739 -0.2233 0.9719
vn -0.9457 -0.0626 0.3191
vn -0.9546 -0.1293 0.2684
vn -0.8506 -0.0880 0.5185
vn -0.8226 -0.0300 0.5678
vn -0.9974 -0.0593 0.0418
vn -0.9954 -0.0882 0.0361
vn -0.9955 -0.0313 -0.0895
vn -0.9974 -0.0429 -0.0575
vn -0.6462 -0.0668 0.7602
vn -0.4191 -0.0830 0.9042
vn -0.4336 -0.0733 0.8981
vn -0.6142 -0.0231 0.7888
vn -0.5072 -0.1361 0.8510
vn -0.4608 -0.1200 0.8794
vn -0.4870 -0.1837 0.8539
vn -0.4774 -0.1817 0.8597
usemtl male_feet_low:polySurface9SG.016
s 1
f 1/1/1 2/2/2 3/3/3 4/4/4
f 2/2/2 5/5/5 6/6/6 3/3/3
f 5/5/5 7/7/7 8/8/8 6/6/6
f 7/7/7 9/9/9 10/10/10 8/8/8
f 11/11/11 4/4/4 3/3/3 12/12/12
f 8/8/8 13/13/13 14/14/14 6/6/6
f 10/10/10 15/15/15 13/13/13 8/8/8
f 14/14/14 13/13/13 16/16/16
f 17/17/17 16/16/16 18/18/18
f 13/13/13 18/18/18 16/16/16
f 19/19/19 20/20/20 21/21/21 22/22/22
f 12/12/12 23/23/23 24/24/24 11/11/11
f 23/23/23 12/12/12 14/14/14 16/16/16
f 23/23/23 21/21/21 20/20/20 24/24/24
f 16/16/16 25/25/25 21/21/21 23/23/23
f 12/12/12 3/3/3 6/6/6 14/14/14
f 18/18/18 13/13/13 15/15/15
f 25/25/25 16/16/16 17/17/17
f 26/26/26 22/22/22 21/21/21 25/25/25
f 27/27/27 22/22/22 26/26/26
f 22/22/22 27/27/27 19/19/19
f 28/28/28 29/29/29 27/27/27
f 29/29/29 19/19/19 27/27/27
f 30/30/30 29/29/29 28/28/28
f 31/31/31 1/1/32 32/32/33 33/33/34
f 34/34/35 35/35/36 36/36/37 37/37/38
f 34/34/35 37/37/38 38/38/39 39/39/40
f 38/38/39 40/40/41 41/41/42 39/39/40
f 42/42/43 43/43/44 44/44/45 45/45/46
f 42/42/43 36/36/37 35/35/36 43/43/44
f 46/46/47 47/47/48 48/48/49 49/49/50
f 46/46/47 49/49/50 45/45/46 44/44/45
f 48/48/49 47/47/48 33/33/34 32/32/33
f 1/1/51 50/50/52 51/51/53 2/2/54
f 2/2/54 51/51/53 52/52/55 5/5/56
f 5/5/56 52/52/55 53/53/57 7/7/58
f 7/7/58 53/53/57 54/54/59 9/9/60
f 55/55/61 56/56/62 51/51/53 50/50/52
f 53/53/57 52/52/55 57/57/63 58/58/64
f 54/54/59 53/53/57 58/58/64 59/59/65
f 57/57/63 60/60/66 58/58/64
f 61/61/67 62/62/68 60/60/66
f 58/58/64 60/60/66 62/62/68
f 63/63/69 64/64/70 65/65/71 66/66/72
f 56/56/62 55/55/61 67/67/73 68/68/74
f 68/68/74 60/60/66 57/57/63 56/56/62
f 68/68/74 67/67/73 66/66/72 65/65/71
f 60/60/66 68/68/74 65/65/71 69/69/75
f 56/56/62 57/57/63 52/52/55 51/51/53
f 62/62/68 59/59/65 58/58/64
f 69/69/75 61/61/67 60/60/66
f 70/70/76 69/69/75 65/65/71 64/64/70
f 71/71/77 70/70/76 64/64/70
f 64/64/70 63/63/69 71/71/77
f 72/72/78 71/71/77 73/73/79
f 71/71/77 63/63/69 73/73/79
f 74/74/80 72/72/78 73/73/79
f 31/31/81 75/75/82 76/76/83 1/1/84
f 77/77/85 78/78/86 79/79/87 80/80/88
f 77/77/85 81/81/89 82/82/90 78/78/86
f 82/82/90 81/81/89 83/83/91 84/84/92
f 85/85/93 86/86/94 87/87/95 88/88/96
f 85/85/93 88/88/96 80/80/88 79/79/87
f 89/89/97 90/90/98 91/91/99 92/92/100
f 89/89/97 87/87/95 86/86/94 90/90/98
f 91/91/99 76/76/83 75/75/82 92/92/100
