# Blender v2.79 (sub 0) OBJ File: 'male.blend'
# www.blender.org
mtllib knee_rt.mtl
o male_14_knee_Rt_half_Rt
v -3.316228 18.701557 -1.688258
v -3.514647 17.913687 -1.672368
v -4.080644 18.040527 -1.872015
v -3.873937 18.800989 -1.948245
v -2.909653 18.630959 -1.184134
v -3.032213 17.782335 -1.257699
v -3.178150 16.962492 -1.402256
v -3.692252 17.146832 -1.797999
v -3.439332 16.173410 -1.581143
v -3.870128 16.380053 -2.050977
v -2.765409 17.672611 -0.735380
v -2.964024 16.811131 -0.860625
v -3.258365 15.992106 -1.046172
v -3.624610 15.152035 -1.328650
v -3.689876 15.316457 -1.876396
v -3.025280 16.721083 -0.335955
v -3.323693 15.878283 -0.537931
v -3.734775 15.044368 -0.853356
v -3.897820 13.992268 -1.180621
v -3.718950 14.092296 -1.688020
v -3.556179 15.827165 -0.104993
v -3.917428 14.964908 -0.421612
v -3.987926 15.516046 -2.440080
v -3.714154 14.248189 -2.297519
v -4.025413 14.432501 -2.920389
v -4.479316 15.683657 -2.852118
v -4.350353 16.563618 -2.454745
v -4.221921 17.316139 -2.125260
v -4.882659 16.667900 -2.598966
v -4.746132 17.430387 -2.265588
v -4.600487 18.128571 -1.890521
v -5.235049 17.469936 -2.191463
v -5.060668 18.168501 -1.815211
v -4.943607 18.964201 -1.797971
v -4.432065 18.906685 -1.863573
v -5.476140 18.164349 -1.634455
v -5.448961 18.985624 -1.719704
v -2.616182 18.556477 -0.651905
v -2.532159 18.475779 -0.084385
v -2.779889 17.594223 -0.193236
v -2.617782 18.365023 0.503242
v -2.969097 17.522932 0.309906
v -3.276380 16.679640 0.108176
v -3.238194 17.433485 0.792988
v -3.612954 16.655127 0.493917
v -3.860815 15.795809 0.274403
v -4.177575 14.910891 -0.028729
v -3.924070 16.598192 0.896644
v -4.166761 15.747036 0.657877
v -4.495510 14.867479 0.335991
v -5.035769 15.769815 -2.977323
v -4.582777 14.588096 -3.360714
v -5.211967 14.686286 -3.517017
v -5.545264 15.798400 -2.884500
v -5.804342 14.741496 -3.443193
v -5.381775 16.705851 -2.528699
v -5.998925 15.795115 -2.656077
v -5.818241 16.690250 -2.296114
v -5.641755 17.435724 -1.937804
v -6.131082 16.597775 -1.896851
v -5.953728 17.349348 -1.565603
v -5.912727 18.142775 -1.426354
v -6.320184 17.285818 -1.205183
v -6.286773 18.085909 -1.073141
v -6.195601 18.931547 -1.002560
v -5.902870 18.983126 -1.460573
v -6.402744 17.969536 -0.543611
v -6.253688 18.817902 -0.427945
v -2.779498 18.193537 1.125480
v -3.244193 18.116217 1.653859
v -3.631174 17.390722 1.201629
v -3.873471 18.179150 1.896835
v -4.106109 17.420589 1.452331
v -4.278759 16.566669 1.253492
v -4.513068 15.744276 1.004786
v -4.567548 17.443541 1.635170
v -4.708673 16.587111 1.464490
v -6.387419 15.751467 -2.297240
v -6.339339 14.764257 -3.199916
v -6.799108 14.751805 -2.808000
v -6.708954 15.689820 -1.845239
v -7.108689 14.681502 -2.271630
v -6.431016 16.516766 -1.470781
v -6.799663 15.549143 -1.286667
v -6.564239 16.392584 -0.964511
v -6.507420 17.174513 -0.712422
v -6.463061 16.237623 -0.427896
v -6.386485 17.022812 -0.165904
v -6.280112 17.826168 0.017445
v -6.115070 16.883888 0.337229
v -6.027966 17.702541 0.532334
v -5.994771 18.548162 0.709617
v -6.168252 18.674038 0.161147
v -5.753003 17.613674 0.994308
v -5.628977 18.482639 1.112191
v -4.906002 18.378540 1.710430
v -5.038174 17.490145 1.614466
v -4.430807 18.315817 1.804944
v -5.291834 18.427814 1.463953
v -5.449442 17.545568 1.389069
v -5.568628 16.699741 1.216291
v -5.167018 16.637541 1.446703
v -5.865346 16.776060 0.817986
v -6.159484 16.083044 0.061993
v -5.907403 15.976050 0.570405
v -6.711716 15.388495 -0.704379
v -6.340044 15.210913 -0.208285
v -7.201510 14.547159 -1.638709
v -7.115036 14.389367 -0.978067
v -4.193947 13.940057 -0.763126
v -4.480027 13.892277 -0.355919
v -4.798981 13.848704 0.011428
v -6.738508 14.202704 -0.418575
v -4.926620 14.891489 0.678649
v -4.879578 15.835729 1.211117
v -5.050479 15.325898 0.998303
v -5.276863 15.898983 1.201818
v -5.370439 15.319916 0.935470
v -5.647082 15.434646 0.801899
v -5.634180 15.951505 0.983970
v -5.880196 15.092381 0.321512
v -5.227677 13.838368 0.233486
v -5.486740 14.751678 0.580068
v -5.727719 13.886755 0.191332
v -6.251361 14.031521 0.008226
vt 0.071885 0.406263
vt 0.071833 0.389388
vt 0.085466 0.388752
vt 0.084922 0.406006
vt 0.058816 0.406611
vt 0.058446 0.389839
vt 0.057903 0.373601
vt 0.071567 0.373037
vt 0.058211 0.357680
vt 0.071761 0.356788
vt 0.047337 0.390229
vt 0.046875 0.373857
vt 0.047122 0.357886
vt 0.048178 0.340662
vt 0.058990 0.340129
vt 0.037530 0.373714
vt 0.037941 0.357609
vt 0.039366 0.340785
vt 0.038956 0.321777
vt 0.048096 0.320721
vt 0.240414 0.311581
vt 0.248610 0.328486
vt 0.239922 0.332425
vt 0.232218 0.315171
vt 0.071895 0.338754
vt 0.058754 0.319510
vt 0.070972 0.317900
vt 0.084215 0.336928
vt 0.084902 0.355218
vt 0.085282 0.371908
vt 0.095714 0.353721
vt 0.096771 0.370513
vt 0.097324 0.388024
vt 0.106967 0.369385
vt 0.107777 0.387131
vt 0.107490 0.404919
vt 0.096822 0.405503
vt 0.117882 0.386013
vt 0.118118 0.404108
vt 0.047542 0.406755
vt 0.037571 0.406222
vt 0.037735 0.390106
vt 0.265177 0.361743
vt 0.272604 0.377366
vt 0.263495 0.381284
vt 0.255524 0.365405
vt 0.247687 0.348746
vt 0.256971 0.344909
vt 0.245215 0.368503
vt 0.238229 0.352038
vt 0.231213 0.335769
vt 0.223806 0.318423
vt 0.228741 0.354962
vt 0.222381 0.338744
vt 0.214964 0.321367
vt 0.094452 0.335318
vt 0.082768 0.316094
vt 0.092831 0.314566
vt 0.103633 0.334118
vt 0.101869 0.313458
vt 0.105408 0.352500
vt 0.112783 0.333092
vt 0.115040 0.351413
vt 0.117102 0.368421
vt 0.125309 0.350213
vt 0.127617 0.367159
vt 0.128642 0.384608
vt 0.138695 0.365784
vt 0.139803 0.382956
vt 0.139937 0.400969
vt 0.128889 0.402826
vt 0.151333 0.380997
vt 0.151938 0.399102
vt 0.252447 0.384587
vt 0.240291 0.387675
vt 0.234516 0.371477
vt 0.228361 0.390599
vt 0.224207 0.374124
vt 0.219457 0.357485
vt 0.213825 0.341914
vt 0.214554 0.375755
vt 0.210748 0.359465
vt 0.122488 0.331943
vt 0.110793 0.312565
vt 0.120077 0.311745
vt 0.132848 0.330938
vt 0.129843 0.311006
vt 0.136110 0.349043
vt 0.143876 0.329871
vt 0.147312 0.347843
vt 0.149959 0.364307
vt 0.159119 0.346653
vt 0.161848 0.362891
vt 0.163612 0.379458
vt 0.173686 0.361866
vt 0.175706 0.378412
vt 0.177235 0.395953
vt 0.164720 0.397287
vt 0.186631 0.377796
vt 0.188755 0.395194
vt 0.208132 0.394045
vt 0.205455 0.376750
vt 0.217611 0.392753
vt 0.198910 0.394722
vt 0.196387 0.377284
vt 0.193771 0.361045
vt 0.202347 0.360563
vt 0.184385 0.361291
vt 0.171213 0.345617
vt 0.182446 0.345535
vt 0.155703 0.328794
vt 0.168351 0.327799
vt 0.140408 0.310083
vt 0.151897 0.308924
vt 0.225017 0.295311
vt 0.233859 0.292224
vt 0.216113 0.298379
vt 0.207106 0.301035
vt 0.164146 0.307590
vt 0.204891 0.325173
vt 0.206665 0.345104
vt 0.202921 0.335236
vt 0.199423 0.346417
vt 0.196869 0.334959
vt 0.190868 0.336456
vt 0.191678 0.346571
vt 0.182538 0.327758
vt 0.197741 0.302984
vt 0.193289 0.322536
vt 0.187729 0.304072
vt 0.176599 0.306052
vn 0.5500 -0.1313 -0.8248
vn 0.5535 -0.0361 -0.8321
vn 0.2564 0.0744 -0.9637
vn 0.1688 -0.0906 -0.9815
vn 0.7963 -0.1040 -0.5959
vn 0.7905 -0.0809 -0.6071
vn 0.7964 -0.0824 -0.5991
vn 0.6050 0.0743 -0.7928
vn 0.8531 -0.0991 -0.5122
vn 0.7102 0.1146 -0.6946
vn 0.9523 -0.1708 -0.2529
vn 0.9513 -0.2383 -0.1956
vn 0.9363 -0.3175 -0.1504
vn 0.9760 -0.2176 -0.0127
vn 0.9396 -0.0007 -0.3423
vn 0.9159 -0.3384 0.2161
vn 0.8817 -0.4204 0.2142
vn 0.8942 -0.3578 0.2692
vn 0.9095 -0.2531 0.3297
vn 0.9921 -0.1043 0.0701
vn 0.7808 -0.4287 0.4546
vn 0.8014 -0.4107 0.4349
vn 0.7773 0.1843 -0.6015
vn 0.9601 0.0725 -0.2700
vn 0.7831 0.2215 -0.5811
vn 0.4916 0.3174 -0.8109
vn 0.4944 0.2722 -0.8255
vn 0.4203 0.2462 -0.8733
vn 0.1032 0.3787 -0.9197
vn 0.0918 0.4044 -0.9099
vn -0.0193 0.2235 -0.9745
vn -0.2762 0.4627 -0.8424
vn -0.2408 0.2546 -0.9366
vn -0.2018 0.0201 -0.9792
vn -0.0981 0.0153 -0.9951
vn -0.4606 0.1719 -0.8708
vn -0.3697 -0.0351 -0.9285
vn 0.9432 -0.1538 -0.2946
vn 0.9585 -0.2821 0.0402
vn 0.9479 -0.2962 0.1169
vn 0.8851 -0.4235 0.1929
vn 0.8568 -0.4224 0.2959
vn 0.7970 -0.3957 0.4563
vn 0.7315 -0.5302 0.4286
vn 0.7309 -0.4266 0.5327
vn 0.7348 -0.4124 0.5386
vn 0.7400 -0.4215 0.5241
vn 0.6690 -0.4088 0.6208
vn 0.6767 -0.4260 0.6004
vn 0.6230 -0.4437 0.6443
vn 0.0948 0.4105 -0.9069
vn 0.4735 0.3414 -0.8120
vn 0.0892 0.4370 -0.8950
vn -0.2486 0.4585 -0.8532
vn -0.2318 0.4974 -0.8360
vn -0.2805 0.4202 -0.8630
vn -0.5176 0.4859 -0.7043
vn -0.5961 0.4303 -0.6778
vn -0.5795 0.4151 -0.7013
vn -0.7398 0.4187 -0.5267
vn -0.7124 0.3095 -0.6298
vn -0.6573 0.1119 -0.7453
vn -0.8682 0.2134 -0.4479
vn -0.8969 0.1314 -0.4223
vn -0.9118 0.1098 -0.3957
vn -0.6286 0.0018 -0.7777
vn -0.9922 0.1216 0.0281
vn -0.9897 0.1375 0.0392
vn 0.7470 -0.5626 0.3542
vn 0.4801 -0.6118 0.6287
vn 0.5417 -0.5420 0.6425
vn 0.1799 -0.4932 0.8511
vn 0.3165 -0.4212 0.8500
vn 0.5085 -0.3517 0.7859
vn 0.5252 -0.4356 0.7311
vn 0.0568 -0.2406 0.9690
vn 0.1755 -0.2844 0.9425
vn -0.7001 0.4893 -0.5201
vn -0.4753 0.5293 -0.7028
vn -0.6728 0.5228 -0.5234
vn -0.8618 0.4340 -0.2627
vn -0.8540 0.4568 -0.2489
vn -0.8691 0.3501 -0.3495
vn -0.9456 0.3178 0.0692
vn -0.9808 0.1936 0.0238
vn -0.9948 0.1022 -0.0018
vn -0.9218 0.0382 0.3858
vn -0.9357 -0.0033 0.3527
vn -0.9458 0.0506 0.3208
vn -0.8848 -0.0492 0.4634
vn -0.8789 -0.0056 0.4769
vn -0.8746 -0.0094 0.4847
vn -0.9554 0.0656 0.2879
vn -0.8109 -0.0006 0.5852
vn -0.7806 0.0111 0.6250
vn -0.3195 -0.0684 0.9451
vn -0.3049 -0.1051 0.9466
vn -0.0512 -0.2495 0.9670
vn -0.6371 0.0245 0.7704
vn -0.6526 -0.0164 0.7575
vn -0.6802 -0.1059 0.7254
vn -0.2937 -0.1986 0.9350
vn -0.8523 -0.0567 0.5199
vn -0.8544 -0.0634 0.5158
vn -0.8487 -0.1134 0.5165
vn -0.8890 0.1865 0.4181
vn -0.7767 0.0563 0.6273
vn -0.9328 0.3533 0.0714
vn -0.8800 0.2470 0.4058
vn 0.8173 -0.3496 0.4581
vn 0.7510 -0.3901 0.5328
vn 0.5994 -0.4170 0.6832
vn -0.7418 0.1244 0.6590
vn 0.3213 -0.4801 0.8163
vn 0.1781 -0.3866 0.9049
vn 0.1250 -0.4842 0.8660
vn -0.3159 -0.2880 0.9040
vn -0.3493 -0.4293 0.8329
vn -0.7153 -0.2635 0.6472
vn -0.7099 -0.1837 0.6799
vn -0.7058 -0.0951 0.7020
vn 0.1994 -0.4193 0.8857
vn -0.3252 -0.3256 0.8878
vn -0.3334 -0.2542 0.9079
vn -0.6258 -0.0130 0.7799
usemtl male_feet_low:polySurface9SG.021
s 1
f 1/1/1 2/2/2 3/3/3 4/4/4
f 2/2/2 1/1/1 5/5/5 6/6/6
f 2/2/2 6/6/6 7/7/7 8/8/8
f 7/7/7 9/9/9 10/10/10 8/8/8
f 7/7/7 6/6/6 11/11/11 12/12/12
f 7/7/7 12/12/12 13/13/13 9/9/9
f 13/13/13 14/14/14 15/15/15 9/9/9
f 13/13/13 12/12/12 16/16/16 17/17/17
f 13/13/13 17/17/17 18/18/18 14/14/14
f 14/14/14 18/18/18 19/19/19 20/20/20
f 18/21/18 17/22/17 21/23/21 22/24/22
f 23/25/23 15/15/15 24/26/24 25/27/25
f 15/15/15 14/14/14 20/20/20 24/26/24
f 23/25/23 10/10/10 9/9/9 15/15/15
f 10/10/10 23/25/23 26/28/26 27/29/27
f 10/10/10 27/29/27 28/30/28 8/8/8
f 28/30/28 27/29/27 29/31/29 30/32/30
f 28/30/28 30/32/30 31/33/31 3/3/3
f 28/30/28 3/3/3 2/2/2 8/8/8
f 31/33/31 30/32/30 32/34/32 33/35/33
f 31/33/31 33/35/33 34/36/34 35/37/35
f 31/33/31 35/37/35 4/4/4 3/3/3
f 34/36/34 33/35/33 36/38/36 37/39/37
f 38/40/38 11/11/11 6/6/6 5/5/5
f 38/40/38 39/41/39 40/42/40 11/11/11
f 40/42/40 16/16/16 12/12/12 11/11/11
f 40/43/40 39/44/39 41/45/41 42/46/42
f 40/43/40 42/46/42 43/47/43 16/48/16
f 43/47/43 21/23/21 17/22/17 16/48/16
f 43/47/43 42/46/42 44/49/44 45/50/45
f 43/47/43 45/50/45 46/51/46 21/23/21
f 46/51/46 47/52/47 22/24/22 21/23/21
f 46/51/46 45/50/45 48/53/48 49/54/49
f 46/51/46 49/54/49 50/55/50 47/52/47
f 51/56/51 26/28/26 52/57/52 53/58/53
f 26/28/26 23/25/23 25/27/25 52/57/52
f 54/59/54 51/56/51 53/58/53 55/60/55
f 51/56/51 54/59/54 56/61/56 29/31/29
f 51/56/51 29/31/29 27/29/27 26/28/26
f 56/61/56 54/59/54 57/62/57 58/63/58
f 56/61/56 58/63/58 59/64/59 32/34/32
f 56/61/56 32/34/32 30/32/30 29/31/29
f 59/64/59 58/63/58 60/65/60 61/66/61
f 59/64/59 61/66/61 62/67/62 36/38/36
f 59/64/59 36/38/36 33/35/33 32/34/32
f 62/67/62 61/66/61 63/68/63 64/69/64
f 62/67/62 64/69/64 65/70/65 66/71/66
f 62/67/62 66/71/66 37/39/37 36/38/36
f 65/70/65 64/69/64 67/72/67 68/73/68
f 69/74/69 44/49/44 42/46/42 41/45/41
f 69/74/69 70/75/70 71/76/71 44/49/44
f 71/76/71 48/53/48 45/50/45 44/49/44
f 71/76/71 70/75/70 72/77/72 73/78/73
f 71/76/71 73/78/73 74/79/74 48/53/48
f 74/79/74 75/80/75 49/54/49 48/53/48
f 74/79/74 73/78/73 76/81/76 77/82/77
f 78/83/78 57/62/57 79/84/79 80/85/80
f 57/62/57 54/59/54 55/60/55 79/84/79
f 81/86/81 78/83/78 80/85/80 82/87/82
f 78/83/78 81/86/81 83/88/83 60/65/60
f 78/83/78 60/65/60 58/63/58 57/62/57
f 83/88/83 81/86/81 84/89/84 85/90/85
f 83/88/83 85/90/85 86/91/86 63/68/63
f 83/88/83 63/68/63 61/66/61 60/65/60
f 86/91/86 85/90/85 87/92/87 88/93/88
f 86/91/86 88/93/88 89/94/89 67/72/67
f 86/91/86 67/72/67 64/69/64 63/68/63
f 89/94/89 88/93/88 90/95/90 91/96/91
f 89/94/89 91/96/91 92/97/92 93/98/93
f 89/94/89 93/98/93 68/73/68 67/72/67
f 92/97/92 91/96/91 94/99/94 95/100/95
f 96/101/96 97/102/97 76/81/76 98/103/98
f 96/101/96 99/104/99 100/105/100 97/102/97
f 100/105/100 101/106/101 102/107/102 97/102/97
f 100/105/100 99/104/99 95/100/95 94/99/94
f 100/105/100 94/99/94 103/108/103 101/106/101
f 103/108/103 94/99/94 91/96/91 90/95/90
f 103/108/103 90/95/90 104/109/104 105/110/105
f 104/109/104 90/95/90 88/93/88 87/92/87
f 104/109/104 87/92/87 106/111/106 107/112/107
f 106/111/106 87/92/87 85/90/85 84/89/84
f 84/89/84 81/86/81 82/87/82 108/113/108
f 97/102/97 102/107/102 77/82/77 76/81/76
f 98/103/98 76/81/76 73/78/73 72/77/72
f 84/89/84 108/113/108 109/114/109 106/111/106
f 22/24/22 110/115/110 19/116/19 18/21/18
f 111/117/111 110/115/110 22/24/22 47/52/47
f 112/118/112 111/117/111 47/52/47 50/55/50
f 106/111/106 109/114/109 113/119/113 107/112/107
f 50/55/50 49/54/49 75/80/75 114/120/114
f 75/80/75 74/79/74 77/82/77 115/121/115
f 115/121/115 116/122/116 114/120/114 75/80/75
f 115/121/115 77/82/77 102/107/102 117/123/117
f 118/124/118 116/122/116 115/121/115 117/123/117
f 119/125/119 118/124/118 117/123/117 120/126/120
f 103/108/103 105/110/105 120/126/120 101/106/101
f 104/109/104 107/112/107 121/127/121 105/110/105
f 105/110/105 121/127/121 119/125/119 120/126/120
f 101/106/101 120/126/120 117/123/117 102/107/102
f 114/120/114 122/128/122 112/118/112 50/55/50
f 123/129/123 124/130/124 122/128/122 114/120/114
f 121/127/121 125/131/125 124/130/124 123/129/123
f 107/112/107 113/119/113 125/131/125 121/127/121
f 118/124/118 119/125/119 121/127/121 123/129/123
f 116/122/116 118/124/118 123/129/123 114/120/114
