# Blender v2.79 (sub 0) OBJ File: 'male.blend'
# www.blender.org
mtllib leg_rt.mtl
o male_21_leg_Rt_half_Rt
v -6.192135 23.852135 -0.815358
v -6.563384 23.810705 -0.010654
v -6.544863 24.886902 -0.007315
v -6.168459 24.906567 -0.833441
v -6.160513 22.793324 -0.811407
v -6.508501 22.731577 -0.035754
v -6.072746 21.742815 -0.832148
v -6.367096 21.663408 -0.100400
v -5.748859 23.853678 -1.540179
v -5.821615 22.807087 -1.558943
v -5.818648 21.758457 -1.547277
v -5.361542 21.717741 -2.129261
v -5.347771 22.769405 -2.221410
v -5.361033 20.730606 -1.993398
v -5.789217 20.766357 -1.510602
v -4.713799 21.636778 -2.491065
v -4.645930 22.685764 -2.637676
v -4.773818 20.659719 -2.268796
v -4.108557 20.573238 -2.352504
v -3.958037 21.544516 -2.586059
v -4.266454 19.711645 -2.076369
v -4.850370 19.785198 -2.012949
v -3.410409 20.460466 -2.318098
v -3.173177 21.440155 -2.480892
v -3.650789 19.592976 -2.117643
v -3.873937 18.800989 -1.948245
v -4.432065 18.906685 -1.863573
v -2.770097 20.376764 -1.944905
v -3.071297 19.510704 -1.792887
v -3.316228 18.701557 -1.688258
v -4.943607 18.964201 -1.797971
v -5.448961 18.985624 -1.719704
v -5.395783 19.831326 -1.852113
v -5.902870 18.983126 -1.460573
v -5.818853 19.849899 -1.474996
v -6.060910 19.811651 -0.939901
v -6.005076 20.742512 -0.877855
v -6.178960 20.650187 -0.193960
v -6.448544 25.956017 -0.003391
v -6.280529 26.991894 -0.012951
v -5.839710 26.950819 -0.809537
v -6.043489 25.948816 -0.824455
v -5.471322 25.880474 -1.462382
v -5.635954 24.877590 -1.508525
v -5.268985 23.817547 -2.241069
v -5.103800 24.822687 -2.164537
v -4.543025 23.725445 -2.680160
v -4.392208 24.712515 -2.608674
v -3.677527 23.608435 -2.767878
v -3.814816 22.585955 -2.733506
v -2.955842 22.479549 -2.587380
v -2.460121 21.345625 -2.066830
v -2.174203 22.373205 -2.138632
v -2.355651 20.341702 -1.317139
v -2.018213 21.294538 -1.376412
v -2.674884 19.471973 -1.229801
v -2.909653 18.630959 -1.184134
v -2.173491 20.324957 -0.628391
v -2.451774 19.438553 -0.618874
v -2.616182 18.556477 -0.651905
v -2.312814 19.365612 -0.010369
v -2.532159 18.475779 -0.084385
v -6.195601 18.931547 -1.002560
v -6.253688 18.817902 -0.427945
v -6.077962 19.705143 -0.307979
v -5.608576 27.865770 -0.834196
v -6.069425 27.937164 -0.056980
v -4.953408 27.710110 -1.421736
v -5.238507 26.838694 -1.421328
v -4.419434 27.518188 -2.072755
v -4.588542 26.672346 -1.893861
v -4.832538 25.763527 -1.967576
v -3.928447 26.487854 -2.241143
v -4.179020 25.631987 -2.420720
v -3.391801 25.465258 -2.535199
v -3.541687 24.567379 -2.684845
v -2.781902 23.493732 -2.599745
v -2.651209 24.440962 -2.522330
v -1.954345 23.384483 -2.141523
v -1.806215 24.342512 -2.078056
v -1.687190 22.300732 -1.400268
v -1.864050 21.273775 -0.618957
v -1.527817 22.269541 -0.588898
v -2.072366 20.273720 0.051397
v -1.845044 21.243404 0.126517
v -1.028810 24.318729 -0.479077
v -1.047204 24.370375 0.338614
v -1.277565 23.300673 0.273897
v -1.238804 23.290104 -0.541406
v -0.898421 25.331276 -0.409961
v -0.897983 25.431082 0.395860
v -1.260767 24.299505 -1.314288
v -1.147092 25.253633 -1.232458
v -1.051969 26.138107 -1.162434
v -0.804653 26.264635 -0.348368
v -0.782034 26.403837 0.450574
v -0.942481 26.849178 -1.136668
v -0.712493 26.996992 -0.310841
v -0.688032 27.153278 0.495110
v -1.514714 26.812040 -1.869930
v -1.620492 26.096666 -1.890037
v -2.419537 26.164167 -2.328898
v -2.264259 26.895136 -2.388631
v -1.708585 25.249739 -1.976108
v -2.538742 25.329332 -2.407404
v -1.431100 23.311823 -1.378255
v -1.565574 22.256048 0.202651
v -3.220232 26.307451 -2.421479
v -3.775971 27.272213 -2.517016
v -3.033720 27.039398 -2.649220
vt 0.144942 0.490686
vt 0.158473 0.489066
vt 0.159601 0.506986
vt 0.145578 0.508587
vt 0.144101 0.472519
vt 0.157324 0.471042
vt 0.142357 0.453993
vt 0.155036 0.452414
vt 0.132130 0.491938
vt 0.131494 0.473812
vt 0.130181 0.455153
vt 0.118189 0.456045
vt 0.118774 0.474797
vt 0.117953 0.438411
vt 0.129063 0.437591
vt 0.106044 0.456486
vt 0.105828 0.475361
vt 0.106803 0.438822
vt 0.095478 0.439160
vt 0.093775 0.457009
vt 0.095970 0.422450
vt 0.107049 0.422101
vt 0.083825 0.439540
vt 0.081086 0.457532
vt 0.084276 0.422768
vt 0.084922 0.406006
vt 0.096822 0.405503
vt 0.070756 0.439796
vt 0.071525 0.422911
vt 0.071885 0.406263
vt 0.107490 0.404919
vt 0.118118 0.404108
vt 0.117861 0.421496
vt 0.128889 0.402826
vt 0.128673 0.420419
vt 0.139885 0.418931
vt 0.140501 0.436237
vt 0.152492 0.434503
vt 0.160955 0.524682
vt 0.162535 0.542449
vt 0.147681 0.543751
vt 0.146430 0.526138
vt 0.132664 0.526928
vt 0.132222 0.509561
vt 0.119072 0.492728
vt 0.119143 0.509961
vt 0.105726 0.493210
vt 0.105746 0.510064
vt 0.092165 0.493538
vt 0.092749 0.475802
vt 0.079096 0.476459
vt 0.067053 0.457635
vt 0.064017 0.476541
vt 0.057451 0.439601
vt 0.052989 0.457091
vt 0.058549 0.422963
vt 0.058816 0.406611
vt 0.045685 0.438504
vt 0.047060 0.422583
vt 0.047542 0.406755
vt 0.036658 0.421403
vt 0.037571 0.406222
vt 0.139937 0.400969
vt 0.151938 0.399102
vt 0.151990 0.417187
vt 0.148717 0.559405
vt 0.163592 0.558328
vt 0.133874 0.559559
vt 0.133300 0.544141
vt 0.119225 0.558759
vt 0.119287 0.543669
vt 0.119236 0.527195
vt 0.105613 0.542767
vt 0.105777 0.526436
vt 0.092165 0.525964
vt 0.092062 0.510105
vt 0.077998 0.494143
vt 0.077588 0.510464
vt 0.062242 0.494205
vt 0.061185 0.510556
vt 0.049081 0.475669
vt 0.040454 0.455532
vt 0.035848 0.474161
vt 0.034217 0.436134
vt 0.028236 0.453214
vt 0.030852 0.511223
vt 0.017363 0.512198
vt 0.019281 0.492123
vt 0.032771 0.492728
vt 0.029683 0.528970
vt 0.016193 0.530796
vt 0.045019 0.510608
vt 0.043911 0.527123
vt 0.042516 0.543505
vt 0.027918 0.545906
vt 0.014347 0.548183
vt 0.041100 0.556010
vt 0.026000 0.558226
vt 0.012131 0.560554
vt 0.058785 0.554933
vt 0.059852 0.541987
vt 0.077383 0.541700
vt 0.076542 0.555240
vt 0.060498 0.526097
vt 0.077424 0.525902
vt 0.046650 0.493497
vt 0.022769 0.472201
vt 0.092113 0.542110
vt 0.104977 0.557425
vt 0.091200 0.556061
vn -0.8839 0.0147 -0.4674
vn -0.9093 -0.0092 -0.4161
vn -0.9052 0.0550 -0.4214
vn -0.8547 0.0739 -0.5138
vn -0.9091 -0.0333 -0.4153
vn -0.9117 -0.0572 -0.4069
vn -0.9306 -0.0662 -0.3600
vn -0.9272 -0.0895 -0.3637
vn -0.8288 0.0696 -0.5551
vn -0.8617 0.0057 -0.5074
vn -0.8709 -0.0430 -0.4895
vn -0.6490 -0.0778 -0.7568
vn -0.6733 -0.0043 -0.7393
vn -0.5955 -0.1120 -0.7955
vn -0.8585 -0.0311 -0.5119
vn -0.3156 -0.1387 -0.9387
vn -0.3201 -0.0515 -0.9460
vn -0.2859 -0.2022 -0.9367
vn -0.0655 -0.2340 -0.9700
vn -0.0171 -0.1697 -0.9853
vn -0.1176 -0.2414 -0.9633
vn -0.2266 -0.2187 -0.9491
vn 0.2465 -0.2618 -0.9331
vn 0.2939 -0.2004 -0.9346
vn 0.1835 -0.2714 -0.9448
vn 0.1382 -0.2427 -0.9602
vn -0.1414 -0.2145 -0.9664
vn 0.6303 -0.3117 -0.7110
vn 0.6113 -0.3106 -0.7278
vn 0.5986 -0.2780 -0.7512
vn -0.1867 -0.2045 -0.9609
vn -0.4284 -0.0983 -0.8982
vn -0.4946 -0.1102 -0.8621
vn -0.7709 0.0600 -0.6341
vn -0.8068 0.0253 -0.5903
vn -0.9653 0.0782 -0.2492
vn -0.9549 -0.0328 -0.2953
vn -0.9680 -0.0583 -0.2442
vn -0.8874 0.1273 -0.4431
vn -0.8614 0.1708 -0.4784
vn -0.7848 0.1767 -0.5940
vn -0.8206 0.1404 -0.5539
vn -0.6797 0.1823 -0.7105
vn -0.7620 0.1390 -0.6325
vn -0.6700 0.0924 -0.7365
vn -0.6238 0.2056 -0.7541
vn -0.3099 0.0579 -0.9490
vn -0.2988 0.1842 -0.9364
vn 0.0437 0.0172 -0.9989
vn 0.0177 -0.0847 -0.9962
vn 0.3219 -0.1210 -0.9390
vn 0.6454 -0.2603 -0.7181
vn 0.6553 -0.1885 -0.7314
vn 0.8522 -0.3293 -0.4066
vn 0.8702 -0.3056 -0.3864
vn 0.8336 -0.2959 -0.4664
vn 0.8238 -0.2429 -0.5123
vn 0.9343 -0.2946 -0.2008
vn 0.9261 -0.2537 -0.2793
vn 0.9278 -0.2026 -0.3133
vn 0.9507 -0.2334 -0.2042
vn 0.9586 -0.1951 -0.2073
vn -0.9623 0.1568 -0.2222
vn -0.9840 0.1758 -0.0292
vn -0.9928 0.0794 -0.0901
vn -0.7614 0.1836 -0.6217
vn -0.8473 0.1830 -0.4985
vn -0.6642 0.1414 -0.7340
vn -0.6527 0.1650 -0.7395
vn -0.6145 -0.0083 -0.7888
vn -0.5703 0.1123 -0.8137
vn -0.5520 0.2457 -0.7969
vn -0.3752 0.0329 -0.9263
vn -0.3033 0.2442 -0.9211
vn 0.0303 0.1532 -0.9877
vn 0.0544 0.1139 -0.9920
vn 0.3357 -0.0261 -0.9416
vn 0.3354 0.0538 -0.9405
vn 0.6609 -0.0990 -0.7439
vn 0.6587 -0.0224 -0.7521
vn 0.8844 -0.2542 -0.3915
vn 0.9457 -0.2985 -0.1285
vn 0.9553 -0.2810 -0.0924
vn 0.9533 -0.2657 -0.1439
vn 0.9590 -0.2804 -0.0421
vn 0.9815 -0.1538 -0.1138
vn 0.9850 -0.1693 0.0323
vn 0.9702 -0.2383 0.0437
vn 0.9700 -0.2242 -0.0941
vn 0.9855 -0.1075 -0.1316
vn 0.9925 -0.1214 0.0121
vn 0.8972 -0.1002 -0.4301
vn 0.8924 -0.0613 -0.4470
vn 0.8893 -0.0813 -0.4501
vn 0.9848 -0.1093 -0.1347
vn 0.9931 -0.1170 -0.0022
vn 0.8973 -0.1141 -0.4264
vn 0.9855 -0.1245 -0.1153
vn 0.9922 -0.1243 -0.0062
vn 0.6689 -0.1090 -0.7353
vn 0.6577 -0.0504 -0.7516
vn 0.3387 -0.0474 -0.9397
vn 0.3579 -0.1729 -0.9176
vn 0.6532 0.0040 -0.7572
vn 0.3266 0.0723 -0.9424
vn 0.8953 -0.1753 -0.4096
vn 0.9591 -0.2818 0.0254
vn -0.0259 -0.0342 -0.9991
vn -0.4191 -0.1857 -0.8887
vn -0.0534 -0.2448 -0.9681
usemtl male_feet_low:polySurface9SG.033
s 1
f 1/1/1 2/2/2 3/3/3 4/4/4
f 2/2/2 1/1/1 5/5/5 6/6/6
f 6/6/6 5/5/5 7/7/7 8/8/8
f 5/5/5 1/1/1 9/9/9 10/10/10
f 11/11/11 7/7/7 5/5/5 10/10/10
f 12/12/12 11/11/11 10/10/10 13/13/13
f 11/11/11 12/12/12 14/14/14 15/15/15
f 16/16/16 12/12/12 13/13/13 17/17/17
f 18/18/18 14/14/14 12/12/12 16/16/16
f 19/19/19 18/18/18 16/16/16 20/20/20
f 19/19/19 21/21/21 22/22/22 18/18/18
f 23/23/23 19/19/19 20/20/20 24/24/24
f 19/19/19 23/23/23 25/25/25 21/21/21
f 25/25/25 26/26/26 27/27/27 21/21/21
f 25/25/25 23/23/23 28/28/28 29/29/29
f 25/25/25 29/29/29 30/30/30 26/26/26
f 31/31/31 32/32/32 33/33/33 22/22/22
f 31/31/31 22/22/22 21/21/21 27/27/27
f 33/33/33 32/32/32 34/34/34 35/35/35
f 33/33/33 35/35/35 15/15/15 14/14/14
f 33/33/33 14/14/14 18/18/18 22/22/22
f 15/15/15 35/35/35 36/36/36 37/37/37
f 8/8/8 7/7/7 37/37/37 38/38/38
f 37/37/37 7/7/7 11/11/11 15/15/15
f 39/39/39 40/40/40 41/41/41 42/42/42
f 39/39/39 42/42/42 4/4/4 3/3/3
f 4/4/4 42/42/42 43/43/43 44/44/44
f 44/44/44 9/9/9 1/1/1 4/4/4
f 45/45/45 9/9/9 44/44/44 46/46/46
f 45/45/45 13/13/13 10/10/10 9/9/9
f 47/47/47 45/45/45 46/46/46 48/48/48
f 45/45/45 47/47/47 17/17/17 13/13/13
f 17/17/17 47/47/47 49/49/49 50/50/50
f 50/50/50 20/20/20 16/16/16 17/17/17
f 24/24/24 20/20/20 50/50/50 51/51/51
f 52/52/52 24/24/24 51/51/51 53/53/53
f 52/52/52 28/28/28 23/23/23 24/24/24
f 54/54/54 28/28/28 52/52/52 55/55/55
f 28/28/28 54/54/54 56/56/56 29/29/29
f 56/56/56 57/57/57 30/30/30 29/29/29
f 56/56/56 54/54/54 58/58/58 59/59/59
f 56/56/56 59/59/59 60/60/60 57/57/57
f 60/60/60 59/59/59 61/61/61 62/62/62
f 63/63/63 64/64/64 65/65/65 36/36/36
f 63/63/63 36/36/36 35/35/35 34/34/34
f 65/65/65 38/38/38 37/37/37 36/36/36
f 66/66/66 41/41/41 40/40/40 67/67/67
f 66/66/66 68/68/68 69/69/69 41/41/41
f 69/69/69 43/43/43 42/42/42 41/41/41
f 69/69/69 68/68/68 70/70/70 71/71/71
f 69/69/69 71/71/71 72/72/72 43/43/43
f 72/72/72 46/46/46 44/44/44 43/43/43
f 72/72/72 71/71/71 73/73/73 74/74/74
f 72/72/72 74/74/74 48/48/48 46/46/46
f 48/48/48 74/74/74 75/75/75 76/76/76
f 76/76/76 49/49/49 47/47/47 48/48/48
f 77/77/77 49/49/49 76/76/76 78/78/78
f 77/77/77 51/51/51 50/50/50 49/49/49
f 79/79/79 77/77/77 78/78/78 80/80/80
f 77/77/77 79/79/79 53/53/53 51/51/51
f 55/55/55 52/52/52 53/53/53 81/81/81
f 82/82/82 55/55/55 81/81/81 83/83/83
f 82/82/82 58/58/58 54/54/54 55/55/55
f 84/84/84 58/58/58 82/82/82 85/85/85
f 84/84/84 61/61/61 59/59/59 58/58/58
f 86/86/86 87/87/87 88/88/88 89/89/89
f 87/87/87 86/86/86 90/90/90 91/91/91
f 90/90/90 86/86/86 92/92/92 93/93/93
f 90/90/90 93/93/93 94/94/94 95/95/95
f 90/90/90 95/95/95 96/96/96 91/91/91
f 95/95/95 94/94/94 97/97/97 98/98/98
f 95/95/95 98/98/98 99/99/99 96/96/96
f 100/100/100 101/101/101 102/102/102 103/103/103
f 101/101/101 100/100/100 97/97/97 94/94/94
f 101/101/101 94/94/94 93/93/93 104/104/104
f 104/104/104 80/80/80 78/78/78 105/105/105
f 104/104/104 105/105/105 102/102/102 101/101/101
f 80/80/80 104/104/104 93/93/93 92/92/92
f 106/106/106 79/79/79 80/80/80 92/92/92
f 106/106/106 92/92/92 86/86/86 89/89/89
f 89/89/89 83/83/83 81/81/81 106/106/106
f 89/89/89 88/88/88 107/107/107 83/83/83
f 107/107/107 85/85/85 82/82/82 83/83/83
f 106/106/106 81/81/81 53/53/53 79/79/79
f 105/105/105 78/78/78 76/76/76 75/75/75
f 105/105/105 75/75/75 108/108/108 102/102/102
f 108/108/108 75/75/75 74/74/74 73/73/73
f 108/108/108 73/73/73 109/109/109 110/110/110
f 108/108/108 110/110/110 103/103/103 102/102/102
f 109/109/109 73/73/73 71/71/71 70/70/70
