# Blender v2.79 (sub 0) OBJ File: 'male.blend'
# www.blender.org
mtllib leg_21_rt.mtl
o male_24_leg_Rt_half_Rt
v -6.478336 9.018307 -0.425055
v -6.521912 7.828025 -0.637201
v -6.075082 7.806778 -0.673003
v -5.978649 8.982728 -0.448765
v -6.953345 9.086861 -0.711581
v -6.945827 7.872510 -0.882546
v -7.106200 6.788934 -1.428318
v -6.899710 6.762177 -0.990583
v -7.210273 7.929735 -1.374523
v -7.021313 5.760673 -1.372357
v -6.847433 5.770828 -0.980341
v -7.256825 6.798173 -1.902614
v -7.429640 7.961742 -1.898233
v -7.143777 5.739279 -1.811323
v -7.160254 5.712267 -2.273854
v -7.285272 6.793282 -2.392499
v -7.114669 4.629117 -2.106614
v -7.099064 4.775453 -1.652083
v -7.032270 5.684866 -2.724673
v -7.124190 6.786922 -2.849660
v -6.980335 4.671046 -2.575341
v -6.702779 4.532499 -2.940323
v -6.767703 5.662585 -3.097067
v -6.405114 4.591673 -3.240709
v -6.476736 5.635860 -3.401451
v -6.986442 4.831936 -1.238431
v -6.829511 4.881160 -0.872476
v -5.667141 7.793100 -0.852397
v -5.538386 8.969879 -0.681105
v -5.323384 7.784409 -1.181210
v -5.142793 8.958105 -1.032894
v -7.311503 9.165268 -1.233107
v -7.600228 9.218445 -1.811935
v -7.594642 9.260999 -2.431419
v -7.440141 7.981224 -2.443361
v -7.284113 7.986310 -2.947648
v -6.888741 6.769274 -3.261929
v -7.054146 7.968706 -3.415023
v -6.553350 6.753010 -3.577870
v -6.119875 5.614098 -3.554191
v -6.124719 6.739214 -3.722037
v -6.120957 4.563154 -3.423906
v -5.438365 6.672204 -1.207641
v -5.749946 6.694399 -0.907466
v -5.821984 5.693641 -0.863817
v -5.505190 5.643641 -1.120330
v -4.962470 7.755560 -1.526908
v -5.154844 6.641587 -1.565692
v -4.591699 7.707668 -1.882370
v -4.842004 6.597746 -1.914416
v -4.310822 8.864200 -1.803497
v -4.713050 8.916637 -1.390224
v -4.324689 7.666634 -2.334317
v -4.035624 8.829432 -2.337364
v -7.508121 9.268670 -3.016509
v -7.259295 9.255875 -3.547070
v -6.816790 9.228701 -3.957122
v -6.660517 7.951207 -3.774246
v -6.144980 7.929147 -3.957654
v -5.661180 6.704632 -3.724478
v -5.581757 7.881632 -3.964074
v -5.061905 4.445905 -1.698978
v -5.042529 4.483959 -2.168588
v -4.853088 5.494264 -2.271523
v -5.034925 5.537706 -1.864412
v -5.244981 4.543367 -1.240729
v -5.247571 5.588556 -1.471181
v -5.553186 4.723409 -0.934736
v -5.881171 4.805453 -0.713602
v -4.604709 6.556335 -2.323778
v -4.284208 7.660153 -2.897248
v -4.523848 7.703685 -3.456548
v -4.155562 8.849087 -3.718928
v -3.932331 8.816483 -3.000742
v -5.529194 9.102205 -4.212609
v -6.207363 9.186610 -4.150856
v -4.802407 8.970911 -4.136196
v -5.014744 7.796445 -3.817531
v -5.187236 6.640858 -3.599960
v -5.793851 4.435681 -3.446198
v -5.729496 5.582954 -3.568185
v -5.088566 4.466835 -2.602335
v -4.814458 5.473144 -2.724204
v -4.577250 6.545809 -2.810548
v -4.785548 6.576465 -3.278855
v -5.330414 5.537547 -3.445831
v -5.458955 4.497540 -3.315400
v -4.993536 5.493358 -3.150839
v -5.210402 4.470484 -3.014886
v -6.539896 6.736576 -0.750582
v -6.543975 5.763556 -0.752902
v -6.181765 5.735498 -0.734135
v -6.133477 6.715721 -0.756216
v -6.563617 4.898387 -0.640525
v -6.226070 4.869234 -0.601906
vt 0.165479 0.224285
vt 0.159899 0.204486
vt 0.167449 0.202373
vt 0.173142 0.222007
vt 0.156770 0.226757
vt 0.151508 0.206887
vt 0.137772 0.189479
vt 0.146758 0.187140
vt 0.142019 0.209585
vt 0.135115 0.169558
vt 0.143732 0.167855
vt 0.128755 0.191684
vt 0.132623 0.212088
vt 0.126160 0.171291
vt 0.117164 0.173004
vt 0.120005 0.193603
vt 0.115327 0.153165
vt 0.124847 0.151914
vt 0.108065 0.174697
vt 0.111388 0.195336
vt 0.105562 0.154663
vt 0.095704 0.156386
vt 0.098986 0.176318
vt 0.086913 0.157935
vt 0.090554 0.177713
vt 0.134007 0.151001
vt 0.142357 0.150232
vt 0.174968 0.200260
vt 0.180825 0.219597
vt 0.182795 0.197952
vt 0.189021 0.216755
vt 0.146830 0.229475
vt 0.137003 0.231947
vt 0.127873 0.233978
vt 0.123770 0.214109
vt 0.115379 0.215832
vt 0.102925 0.196875
vt 0.107162 0.217268
vt 0.094586 0.198178
vt 0.082912 0.178708
vt 0.086389 0.199142
vt 0.079547 0.159095
vt 0.177440 0.179723
vt 0.169962 0.181426
vt 0.166064 0.163218
vt 0.173480 0.161967
vt 0.190652 0.195398
vt 0.184918 0.177939
vt 0.198336 0.192628
vt 0.192150 0.176102
vt 0.206029 0.209708
vt 0.197556 0.213431
vt 0.031396 0.237087
vt 0.033571 0.217401
vt 0.042218 0.218345
vt 0.040946 0.237692
vt 0.119420 0.235568
vt 0.111101 0.236871
vt 0.102556 0.237815
vt 0.098709 0.218478
vt 0.089939 0.219361
vt 0.078286 0.199696
vt 0.080912 0.219884
vt 0.033776 0.161033
vt 0.042085 0.160377
vt 0.043890 0.179241
vt 0.035838 0.179067
vt 0.179563 0.144231
vt 0.187226 0.144425
vt 0.188201 0.160028
vt 0.181010 0.160869
vt 0.171408 0.144908
vt 0.163427 0.146026
vt 0.043695 0.198742
vt 0.035520 0.198003
vt 0.051491 0.219155
vt 0.061524 0.219781
vt 0.062355 0.238564
vt 0.051266 0.238194
vt 0.083804 0.238595
vt 0.093478 0.238359
vt 0.073413 0.238656
vt 0.071495 0.220007
vt 0.069977 0.199840
vt 0.072992 0.159925
vt 0.075690 0.179344
vt 0.050568 0.160336
vt 0.052097 0.179457
vt 0.052158 0.199286
vt 0.061134 0.199665
vt 0.068376 0.179611
vt 0.066366 0.160408
vt 0.060457 0.179600
vt 0.058990 0.160531
vt 0.154883 0.185006
vt 0.151395 0.166193
vt 0.158647 0.164644
vt 0.162443 0.183160
vt 0.149292 0.149154
vt 0.155949 0.147605
vn -0.2683 -0.1613 0.9497
vn -0.2665 -0.1322 0.9547
vn 0.2301 -0.1447 0.9623
vn 0.2429 -0.1948 0.9503
vn -0.7076 -0.1129 0.6975
vn -0.7356 -0.1077 0.6687
vn -0.9243 -0.0864 0.3717
vn -0.7689 -0.0682 0.6357
vn -0.8963 -0.1143 0.4285
vn -0.9403 -0.0272 0.3393
vn -0.7959 0.0088 0.6054
vn -0.9775 -0.1125 0.1784
vn -0.9711 -0.1329 0.1983
vn -0.9861 -0.0568 0.1564
vn -0.9877 -0.0921 -0.1262
vn -0.9818 -0.1317 -0.1367
vn -0.9912 -0.0624 -0.1170
vn -0.9894 -0.0204 0.1439
vn -0.8975 -0.1241 -0.4232
vn -0.9048 -0.1483 -0.3993
vn -0.8975 -0.1072 -0.4278
vn -0.7630 -0.1357 -0.6320
vn -0.7688 -0.1484 -0.6220
vn -0.6091 -0.1435 -0.7800
vn -0.5709 -0.1553 -0.8062
vn -0.9439 0.0130 0.3299
vn -0.8048 0.0614 0.5904
vn 0.5527 -0.1437 0.8209
vn 0.5396 -0.2060 0.8163
vn 0.6780 -0.1559 0.7183
vn 0.6204 -0.2249 0.7514
vn -0.8672 -0.1038 0.4870
vn -0.9656 -0.1136 0.2339
vn -0.9898 -0.1300 -0.0586
vn -0.9823 -0.1400 -0.1244
vn -0.9227 -0.1611 -0.3503
vn -0.7789 -0.1689 -0.6039
vn -0.7873 -0.1812 -0.5894
vn -0.5238 -0.1776 -0.8331
vn -0.2286 -0.1402 -0.9634
vn -0.1835 -0.1751 -0.9673
vn -0.2514 -0.1253 -0.9597
vn 0.7227 -0.0581 0.6888
vn 0.5402 -0.0446 0.8404
vn 0.5095 0.0595 0.8584
vn 0.7222 0.0531 0.6897
vn 0.6828 -0.1813 0.7077
vn 0.7568 -0.0947 0.6467
vn 0.7713 -0.2062 0.6022
vn 0.8076 -0.1532 0.5694
vn 0.7622 -0.2686 0.5890
vn 0.6404 -0.2466 0.7274
vn 0.9254 -0.2406 0.2928
vn 0.9092 -0.2959 0.2928
vn -0.9491 -0.1731 -0.2631
vn -0.8060 -0.2105 -0.5532
vn -0.4973 -0.2145 -0.8406
vn -0.5047 -0.1817 -0.8439
vn -0.1866 -0.1811 -0.9656
vn 0.1069 -0.1823 -0.9774
vn 0.0599 -0.2092 -0.9760
vn 0.9441 0.0045 0.3297
vn 0.9821 -0.1426 0.1229
vn 0.9650 -0.1729 0.1972
vn 0.9027 -0.0585 0.4262
vn 0.8581 0.0872 0.5061
vn 0.8320 0.0250 0.5542
vn 0.7081 0.1134 0.6969
vn 0.4904 0.1207 0.8631
vn 0.9357 -0.2142 0.2804
vn 0.9464 -0.2863 -0.1497
vn 0.7301 -0.3089 -0.6095
vn 0.7185 -0.2927 -0.6309
vn 0.9393 -0.3137 -0.1391
vn 0.0121 -0.2031 -0.9791
vn -0.1956 -0.1976 -0.9606
vn 0.3169 -0.2385 -0.9180
vn 0.3551 -0.2668 -0.8959
vn 0.4199 -0.2100 -0.8830
vn 0.1444 -0.1277 -0.9812
vn 0.1235 -0.1406 -0.9823
vn 0.9553 -0.2459 -0.1641
vn 0.9566 -0.2363 -0.1705
vn 0.9528 -0.2466 -0.1769
vn 0.7561 -0.2419 -0.6082
vn 0.4790 -0.1787 -0.8594
vn 0.5128 -0.1740 -0.8407
vn 0.7940 -0.2267 -0.5641
vn 0.8222 -0.2407 -0.5158
vn -0.2933 -0.0542 0.9545
vn -0.3442 0.0553 0.9373
vn 0.1648 0.0686 0.9839
vn 0.1997 -0.0442 0.9789
vn -0.3625 0.1258 0.9235
vn 0.1548 0.1385 0.9782
usemtl male_feet_low:polySurface9SG.037
s 1
f 1/1/1 2/2/2 3/3/3 4/4/4
f 1/1/1 5/5/5 6/6/6 2/2/2
f 7/7/7 8/8/8 6/6/6 9/9/9
f 8/8/8 7/7/7 10/10/10 11/11/11
f 12/12/12 7/7/7 9/9/9 13/13/13
f 14/14/14 10/10/10 7/7/7 12/12/12
f 15/15/15 14/14/14 12/12/12 16/16/16
f 14/14/14 15/15/15 17/17/17 18/18/18
f 19/19/19 15/15/15 16/16/16 20/20/20
f 21/21/21 17/17/17 15/15/15 19/19/19
f 22/22/22 21/21/21 19/19/19 23/23/23
f 24/24/24 22/22/22 23/23/23 25/25/25
f 11/11/11 10/10/10 26/26/26 27/27/27
f 26/26/26 10/10/10 14/14/14 18/18/18
f 3/3/3 28/28/28 29/29/29 4/4/4
f 29/29/29 28/28/28 30/30/30 31/31/31
f 32/32/32 9/9/9 6/6/6 5/5/5
f 32/32/32 33/33/33 13/13/13 9/9/9
f 13/13/13 33/33/33 34/34/34 35/35/35
f 35/35/35 16/16/16 12/12/12 13/13/13
f 20/20/20 16/16/16 35/35/35 36/36/36
f 37/37/37 20/20/20 36/36/36 38/38/38
f 37/37/37 23/23/23 19/19/19 20/20/20
f 25/25/25 23/23/23 37/37/37 39/39/39
f 40/40/40 25/25/25 39/39/39 41/41/41
f 40/40/40 42/42/42 24/24/24 25/25/25
f 43/43/43 44/44/44 45/45/45 46/46/46
f 47/47/47 30/30/30 43/43/43 48/48/48
f 43/43/43 30/30/30 28/28/28 44/44/44
f 49/49/49 47/47/47 48/48/48 50/50/50
f 47/47/47 49/49/49 51/51/51 52/52/52
f 47/47/47 52/52/52 31/31/31 30/30/30
f 51/53/51 49/54/49 53/55/53 54/56/54
f 55/57/55 36/36/36 35/35/35 34/34/34
f 55/57/55 56/58/56 38/38/38 36/36/36
f 38/38/38 56/58/56 57/59/57 58/60/58
f 58/60/58 39/39/39 37/37/37 38/38/38
f 41/41/41 39/39/39 58/60/58 59/61/59
f 60/62/60 41/41/41 59/61/59 61/63/61
f 62/64/62 63/65/63 64/66/64 65/67/65
f 66/68/66 62/69/62 65/70/65 67/71/67
f 68/72/68 66/68/66 67/71/67 46/46/46
f 69/73/69 68/72/68 46/46/46 45/45/45
f 50/50/50 48/48/48 67/71/67 65/70/65
f 67/71/67 48/48/48 43/43/43 46/46/46
f 70/74/70 50/75/50 65/67/65 64/66/64
f 70/74/70 53/55/53 49/54/49 50/75/50
f 71/76/71 72/77/72 73/78/73 74/79/74
f 71/76/71 74/79/74 54/56/54 53/55/53
f 75/80/75 61/63/61 59/61/59 76/81/76
f 75/80/75 77/82/77 78/83/78 61/63/61
f 78/83/78 77/82/77 73/78/73 72/77/72
f 78/83/78 79/84/79 60/62/60 61/63/61
f 76/81/76 59/61/59 58/60/58 57/59/57
f 80/85/80 42/42/42 40/40/40 81/86/81
f 60/62/60 81/86/81 40/40/40 41/41/41
f 64/66/64 63/65/63 82/87/82 83/88/83
f 71/76/71 53/55/53 70/74/70 84/89/84
f 72/77/72 71/76/71 84/89/84 85/90/85
f 85/90/85 79/84/79 78/83/78 72/77/72
f 64/66/64 83/88/83 84/89/84 70/74/70
f 81/86/81 86/91/86 87/92/87 80/85/80
f 60/62/60 79/84/79 86/91/86 81/86/81
f 88/93/88 86/91/86 79/84/79 85/90/85
f 83/88/83 82/87/82 89/94/89 88/93/88
f 83/88/83 88/93/88 85/90/85 84/89/84
f 86/91/86 88/93/88 89/94/89 87/92/87
f 90/95/90 2/2/2 6/6/6 8/8/8
f 90/95/90 8/8/8 11/11/11 91/96/91
f 92/97/92 93/98/93 90/95/90 91/96/91
f 93/98/93 3/3/3 2/2/2 90/95/90
f 44/44/44 28/28/28 3/3/3 93/98/93
f 11/11/11 27/27/27 94/99/94 91/96/91
f 45/45/45 44/44/44 93/98/93 92/97/92
f 69/73/69 45/45/45 92/97/92 95/100/95
f 95/100/95 92/97/92 91/96/91 94/99/94
