# Blender v2.79 (sub 0) OBJ File: 'male.blend'
# www.blender.org
mtllib lowerabdomen.mtl
o male_10_lowerAbdomen_middle
v 0.000000 35.928284 4.537779
v -0.779573 35.930229 4.543460
v -0.797775 35.151592 4.574010
v 0.000000 35.146091 4.591825
v -0.820042 34.417892 4.454734
v 0.000000 34.409145 4.501651
v -4.419073 36.133186 1.932120
v -4.528322 35.509109 1.863144
v -4.110126 35.505146 2.539661
v -4.004707 36.140594 2.603890
v -4.641317 36.073807 1.168258
v -4.706800 35.455574 1.084352
v -4.703314 34.781227 0.981881
v -4.558138 34.836853 1.750453
v -4.573404 35.977665 0.393560
v -4.621537 35.367580 0.307173
v -4.579701 34.695389 0.228120
v -4.206675 34.836018 2.446359
v -3.684185 34.774548 3.013879
v -2.986239 34.679573 3.372621
v -2.857966 35.356174 3.444218
v -3.550689 35.445904 3.080803
v -2.753782 36.033157 3.465597
v -3.459375 36.098633 3.146509
v -2.160981 35.975792 3.951819
v -2.196924 35.264801 3.863970
v -1.554673 35.186089 4.336845
v -1.517314 35.941742 4.352444
v -1.586342 34.473778 4.174343
v -2.230767 34.586143 3.658976
v 0.797775 35.151592 4.574010
v 0.779573 35.930229 4.543460
v 0.820042 34.417892 4.454734
v 4.419073 36.133186 1.932120
v 4.004707 36.140594 2.603890
v 4.110126 35.505146 2.539661
v 4.528322 35.509109 1.863144
v 4.706800 35.455574 1.084352
v 4.641317 36.073807 1.168258
v 4.558138 34.836853 1.750453
v 4.703314 34.781227 0.981881
v 4.621537 35.367580 0.307173
v 4.573404 35.977665 0.393560
v 4.579701 34.695389 0.228120
v 4.206675 34.836018 2.446359
v 3.684185 34.774548 3.013879
v 3.550689 35.445904 3.080803
v 2.857966 35.356174 3.444218
v 2.986239 34.679573 3.372621
v 3.459375 36.098633 3.146509
v 2.753782 36.033157 3.465597
v 2.160981 35.975792 3.951819
v 1.517314 35.941742 4.352444
v 1.554673 35.186089 4.336845
v 2.196924 35.264801 3.863970
v 1.586342 34.473778 4.174343
v 2.230767 34.586143 3.658976
vt 0.500000 0.475406
vt 0.487218 0.475462
vt 0.487238 0.464015
vt 0.500000 0.463987
vt 0.486768 0.452891
vt 0.500000 0.452872
vt 0.410808 0.475244
vt 0.409768 0.465248
vt 0.422688 0.466187
vt 0.423878 0.476155
vt 0.397678 0.473234
vt 0.396768 0.463371
vt 0.395978 0.452644
vt 0.408668 0.454522
vt 0.384868 0.470607
vt 0.384138 0.460715
vt 0.383748 0.449922
vt 0.421278 0.455537
vt 0.433758 0.455480
vt 0.446588 0.454579
vt 0.448498 0.465144
vt 0.435438 0.465979
vt 0.449418 0.475273
vt 0.436668 0.475946
vt 0.462278 0.475083
vt 0.461378 0.464300
vt 0.474518 0.464120
vt 0.474788 0.475187
vt 0.473518 0.453137
vt 0.459838 0.453687
vt 0.487238 0.464015
vt 0.487218 0.475462
vt 0.486768 0.452891
vt 0.410808 0.475244
vt 0.423878 0.476155
vt 0.422688 0.466187
vt 0.409768 0.465248
vt 0.396768 0.463371
vt 0.397678 0.473234
vt 0.408668 0.454522
vt 0.395978 0.452644
vt 0.384138 0.460715
vt 0.384868 0.470607
vt 0.383748 0.449922
vt 0.421278 0.455537
vt 0.433758 0.455480
vt 0.435438 0.465979
vt 0.448498 0.465144
vt 0.446588 0.454579
vt 0.436668 0.475946
vt 0.449418 0.475273
vt 0.462278 0.475083
vt 0.474788 0.475187
vt 0.474518 0.464120
vt 0.461378 0.464300
vt 0.473518 0.453137
vt 0.459838 0.453687
vn -0.0074 0.0542 0.9985
vn -0.1393 0.0375 0.9895
vn -0.1612 -0.0593 0.9851
vn -0.0241 -0.0423 0.9988
vn -0.2016 -0.1934 0.9602
vn -0.0573 -0.1818 0.9817
vn -0.9079 0.0974 0.4077
vn -0.9273 0.0482 0.3712
vn -0.7886 0.0446 0.6133
vn -0.7710 0.0594 0.6340
vn -0.9893 0.1078 0.0980
vn -0.9974 0.0450 0.0555
vn -0.9973 -0.0595 0.0418
vn -0.9456 -0.0629 0.3191
vn -0.9882 0.1067 -0.1102
vn -0.9917 0.0342 -0.1243
vn -0.9955 -0.0314 -0.0894
vn -0.8226 -0.0302 0.5678
vn -0.6141 -0.0232 0.7889
vn -0.4335 -0.0734 0.8981
vn -0.4865 -0.0343 0.8730
vn -0.5811 0.0188 0.8136
vn -0.5183 0.0002 0.8552
vn -0.5646 0.0191 0.8252
vn -0.5745 -0.0178 0.8183
vn -0.5613 -0.0865 0.8231
vn -0.4473 -0.0906 0.8898
vn -0.4197 -0.0046 0.9077
vn -0.4774 -0.1817 0.8597
vn -0.5073 -0.1361 0.8510
vn 0.0074 0.0542 0.9985
vn 0.0241 -0.0423 0.9988
vn 0.1613 -0.0593 0.9851
vn 0.1393 0.0375 0.9895
vn 0.0573 -0.1818 0.9817
vn 0.2016 -0.1934 0.9602
vn 0.9079 0.0974 0.4077
vn 0.7710 0.0594 0.6340
vn 0.7886 0.0446 0.6133
vn 0.9273 0.0482 0.3712
vn 0.9974 0.0450 0.0555
vn 0.9893 0.1078 0.0980
vn 0.9456 -0.0629 0.3191
vn 0.9973 -0.0595 0.0418
vn 0.9917 0.0342 -0.1243
vn 0.9882 0.1067 -0.1102
vn 0.9955 -0.0314 -0.0894
vn 0.8226 -0.0302 0.5678
vn 0.6141 -0.0232 0.7889
vn 0.5811 0.0188 0.8136
vn 0.4865 -0.0343 0.8730
vn 0.4335 -0.0734 0.8981
vn 0.5645 0.0191 0.8252
vn 0.5183 0.0002 0.8552
vn 0.5743 -0.0180 0.8185
vn 0.4197 -0.0046 0.9077
vn 0.4473 -0.0906 0.8898
vn 0.5613 -0.0865 0.8231
vn 0.4774 -0.1817 0.8597
vn 0.5073 -0.1361 0.8510
usemtl male_feet_low:polySurface9SG.015
s 1
f 1/1/1 2/2/2 3/3/3 4/4/4
f 4/4/4 3/3/3 5/5/5 6/6/6
f 7/7/7 8/8/8 9/9/9 10/10/10
f 7/7/7 11/11/11 12/12/12 8/8/8
f 12/12/12 13/13/13 14/14/14 8/8/8
f 12/12/12 11/11/11 15/15/15 16/16/16
f 12/12/12 16/16/16 17/17/17 13/13/13
f 14/14/14 18/18/18 9/9/9 8/8/8
f 19/19/19 20/20/20 21/21/21 22/22/22
f 19/19/19 22/22/22 9/9/9 18/18/18
f 22/22/22 21/21/21 23/23/23 24/24/24
f 22/22/22 24/24/24 10/10/10 9/9/9
f 25/25/25 26/26/26 27/27/27 28/28/28
f 25/25/25 23/23/23 21/21/21 26/26/26
f 27/27/27 29/29/29 5/5/5 3/3/3
f 27/27/27 3/3/3 2/2/2 28/28/28
f 27/27/27 26/26/26 30/30/30 29/29/29
f 30/30/30 26/26/26 21/21/21 20/20/20
f 1/1/31 4/4/32 31/31/33 32/32/34
f 4/4/32 6/6/35 33/33/36 31/31/33
f 34/34/37 35/35/38 36/36/39 37/37/40
f 34/34/37 37/37/40 38/38/41 39/39/42
f 38/38/41 37/37/40 40/40/43 41/41/44
f 38/38/41 42/42/45 43/43/46 39/39/42
f 38/38/41 41/41/44 44/44/47 42/42/45
f 40/40/43 37/37/40 36/36/39 45/45/48
f 46/46/49 47/47/50 48/48/51 49/49/52
f 46/46/49 45/45/48 36/36/39 47/47/50
f 47/47/50 50/50/53 51/51/54 48/48/51
f 47/47/50 36/36/39 35/35/38 50/50/53
f 52/52/55 53/53/56 54/54/57 55/55/58
f 52/52/55 55/55/58 48/48/51 51/51/54
f 54/54/57 31/31/33 33/33/36 56/56/59
f 54/54/57 53/53/56 32/32/34 31/31/33
f 54/54/57 56/56/59 57/57/60 55/55/58
f 57/57/60 49/49/52 48/48/51 55/55/58
