# Blender v2.79 (sub 0) OBJ File: 'male.blend'
# www.blender.org
mtllib neck.mtl
o male_02_neck_middle
v -3.210884 49.448494 -1.486203
v -2.612535 49.712124 -1.472644
v -2.340037 49.822300 -2.137030
v -2.955332 49.527138 -2.247028
v -3.214386 49.179348 -0.860026
v -2.661454 49.463009 -0.917355
v -2.263066 49.770695 -0.920788
v -2.168527 49.981991 -1.428749
v -3.065460 48.841900 -0.338714
v -2.571454 49.182446 -0.444359
v -2.223432 49.527184 -0.468188
v -2.007933 49.862408 -0.462955
v -1.993531 50.076160 -0.926922
v -2.363302 48.901955 0.020071
v -2.081204 49.289864 -0.016977
v -1.921866 49.644524 0.003257
v -1.862024 49.990993 0.044823
v -1.900651 50.214188 -0.466024
v -1.857187 49.085793 0.464432
v -1.743496 49.440437 0.479966
v -1.646407 49.749390 0.515167
v -1.530936 48.915855 0.935224
v -1.420032 49.248440 0.900840
v -1.275343 49.519817 0.873548
v -1.059214 48.743546 1.237286
v -0.955414 49.058350 1.142871
v -0.851201 49.325645 1.146751
v -0.521971 48.573357 1.271312
v -0.472695 48.918476 1.310267
v -0.444676 49.177464 1.423803
v 0.000000 48.843666 1.469035
v 0.000000 49.084236 1.620260
v -1.670144 50.563660 -1.418390
v -1.367627 50.647808 -1.815448
v -1.584894 50.366081 -1.879487
v -1.873400 50.267994 -1.405443
v -1.835022 50.407589 -0.957693
v -1.892002 50.095245 -1.993086
v -1.120040 50.311207 -2.228992
v -1.366257 49.974285 -2.437288
v -1.740809 49.634041 -2.699855
v -0.700921 49.679501 -2.509756
v -0.912388 49.242371 -2.845804
v -1.273635 48.800938 -3.252995
v -2.307670 49.273033 -2.949745
v 0.000000 49.541828 -2.480446
v 0.000000 48.999786 -2.739127
v 0.000000 48.475845 -3.113790
v -0.564410 50.154392 -2.327853
v 0.000000 50.075977 -2.321377
v -0.472198 50.571541 -2.159107
v 0.000000 50.526112 -2.138540
v -0.945355 50.640152 -2.079370
v 0.000000 48.518391 1.343790
v -0.606258 48.153328 1.438488
v 0.000000 48.042530 1.391070
v -0.710368 47.766777 1.865425
v 0.000000 47.448288 1.623745
v -2.799892 48.520927 0.184684
v -2.453861 48.326275 0.785071
v -2.068722 48.681316 0.527582
v -1.989812 48.172115 1.346656
v -1.677025 48.507397 1.017352
v -1.397121 47.989761 1.744800
v -1.181668 48.353649 1.382246
v 0.000000 49.543831 1.818484
v -0.397820 49.613907 1.704114
v -0.419389 49.407948 1.555799
v 0.000000 49.325417 1.714902
v -0.400914 50.953480 -2.006900
v 0.000000 50.926517 -1.956743
v -0.347910 51.316936 -1.916557
v 0.000000 51.310516 -1.870551
v -1.024613 51.320541 -1.734387
v -1.183955 50.965397 -1.766143
v -1.500492 50.912052 -1.446017
v -1.329895 51.306126 -1.480812
v -0.691381 51.322544 -1.877622
v -0.803236 50.974232 -1.955033
v -1.717830 50.810101 -1.016484
v -1.840452 50.650055 -0.499699
v -1.790088 51.277287 -0.608378
v -1.567994 51.278015 -1.106941
v -1.814584 50.384354 0.079018
v -0.736097 49.782486 1.443335
v -0.770148 49.573250 1.258133
v -1.127210 49.786964 0.922063
v -1.542548 50.062531 0.577468
v -1.790281 50.894485 0.146449
v -1.064209 50.025608 1.099859
v -1.426347 50.365852 0.685222
v 3.210884 49.448494 -1.486203
v 2.955332 49.527138 -2.247028
v 2.340037 49.822300 -2.137030
v 2.612535 49.712124 -1.472644
v 2.661454 49.463009 -0.917355
v 3.214386 49.179348 -0.860026
v 2.168527 49.981991 -1.428749
v 2.263066 49.770695 -0.920788
v 2.571454 49.182446 -0.444359
v 3.065460 48.841900 -0.338714
v 2.223432 49.527184 -0.468188
v 1.993531 50.076160 -0.926922
v 2.007933 49.862408 -0.462955
v 2.081204 49.289864 -0.016977
v 2.363302 48.901955 0.020071
v 1.921866 49.644524 0.003257
v 1.900651 50.214188 -0.466024
v 1.862024 49.990993 0.044823
v 1.743496 49.440437 0.479966
v 1.857187 49.085793 0.464432
v 1.646407 49.749390 0.515167
v 1.420032 49.248440 0.900840
v 1.530936 48.915855 0.935224
v 1.275343 49.519817 0.873548
v 0.955414 49.058350 1.142871
v 1.059214 48.743546 1.237286
v 0.851201 49.325645 1.146751
v 0.472695 48.918476 1.310267
v 0.521971 48.573357 1.271312
v 0.444676 49.177464 1.423803
v 1.670144 50.563660 -1.418390
v 1.873400 50.267994 -1.405443
v 1.584894 50.366081 -1.879487
v 1.367627 50.647808 -1.815448
v 1.835022 50.407589 -0.957693
v 1.892002 50.095245 -1.993086
v 1.366257 49.974285 -2.437288
v 1.120040 50.311207 -2.228992
v 1.740809 49.634041 -2.699855
v 0.912388 49.242371 -2.845804
v 0.700921 49.679501 -2.509756
v 2.307670 49.273033 -2.949745
v 1.273635 48.800938 -3.252995
v 0.564410 50.154392 -2.327853
v 0.472198 50.571541 -2.159107
v 0.945355 50.640152 -2.079370
v 0.606258 48.153328 1.438488
v 0.710368 47.766777 1.865425
v 2.799892 48.520927 0.184684
v 2.068722 48.681316 0.527582
v 2.453861 48.326275 0.785071
v 1.677025 48.507397 1.017352
v 1.989812 48.172115 1.346656
v 1.181668 48.353649 1.382246
v 1.397121 47.989761 1.744800
v 0.419389 49.407948 1.555799
v 0.397820 49.613907 1.704114
v 0.400914 50.953480 -2.006900
v 0.347910 51.316936 -1.916557
v 1.024613 51.320541 -1.734387
v 1.329895 51.306126 -1.480812
v 1.500492 50.912052 -1.446017
v 1.183955 50.965397 -1.766143
v 0.803236 50.974232 -1.955033
v 0.691381 51.322544 -1.877622
v 1.717830 50.810101 -1.016484
v 1.840452 50.650055 -0.499699
v 1.567994 51.278015 -1.106941
v 1.790088 51.277287 -0.608378
v 1.814584 50.384354 0.079018
v 0.736097 49.782486 1.443335
v 0.770148 49.573250 1.258133
v 1.127210 49.786964 0.922063
v 1.542548 50.062531 0.577468
v 1.790281 50.894485 0.146449
v 1.064209 50.025608 1.099859
v 1.426347 50.365852 0.685222
vt 0.556525 0.367602
vt 0.546894 0.370884
vt 0.539135 0.362026
vt 0.549314 0.357180
vt 0.428188 0.717387
vt 0.432178 0.708718
vt 0.440008 0.713991
vt 0.435188 0.721740
vt 0.444978 0.719198
vt 0.440268 0.725922
vt 0.437198 0.700998
vt 0.444318 0.707391
vt 0.449728 0.712939
vt 0.453198 0.717899
vt 0.448138 0.724186
vt 0.450318 0.700714
vt 0.455138 0.706727
vt 0.458818 0.711620
vt 0.461628 0.716078
vt 0.455528 0.722641
vt 0.462068 0.700382
vt 0.465178 0.705361
vt 0.467988 0.709430
vt 0.470588 0.694398
vt 0.472798 0.699633
vt 0.475188 0.703569
vt 0.480278 0.689845
vt 0.481568 0.695346
vt 0.483178 0.699310
vt 0.490278 0.687664
vt 0.490888 0.693203
vt 0.491538 0.697158
vt 0.500000 0.692444
vt 0.500000 0.696617
vt 0.529845 0.378167
vt 0.522624 0.374696
vt 0.526604 0.371443
vt 0.534135 0.376365
vt 0.444098 0.734856
vt 0.443048 0.730398
vt 0.449638 0.729033
vt 0.531744 0.367071
vt 0.539634 0.374051
vt 0.517944 0.366720
vt 0.521845 0.360053
vt 0.528034 0.352808
vt 0.510975 0.354837
vt 0.514424 0.345837
vt 0.520525 0.336922
vt 0.537454 0.345903
vt 0.500000 0.353158
vt 0.500000 0.343371
vt 0.500000 0.333498
vt 0.508974 0.363439
vt 0.500000 0.362291
vt 0.507424 0.370220
vt 0.500000 0.369603
vt 0.514974 0.371993
vt 0.500000 0.687237
vt 0.488948 0.680020
vt 0.500000 0.679840
vt 0.486518 0.670470
vt 0.500000 0.669578
vt 0.444158 0.693326
vt 0.452858 0.685891
vt 0.458318 0.693971
vt 0.463398 0.679299
vt 0.467768 0.687712
vt 0.474888 0.674045
vt 0.478428 0.682742
vt 0.500000 0.704432
vt 0.494198 0.705295
vt 0.492858 0.701321
vt 0.500000 0.700723
vt 0.506114 0.376982
vt 0.500000 0.376840
vt 0.505194 0.382274
vt 0.500000 0.382492
vt 0.515024 0.383801
vt 0.518704 0.379230
vt 0.525355 0.381686
vt 0.520634 0.386229
vt 0.510064 0.382672
vt 0.512234 0.377589
vt 0.451278 0.735482
vt 0.445108 0.740518
vt 0.457668 0.729166
vt 0.460238 0.739228
vt 0.452658 0.743249
vt 0.446508 0.746938
vt 0.464608 0.721645
vt 0.488438 0.706888
vt 0.485788 0.703313
vt 0.478638 0.707428
vt 0.471498 0.713716
vt 0.468738 0.729355
vt 0.482298 0.710824
vt 0.475228 0.717889
vt 0.556525 0.367602
vt 0.549314 0.357180
vt 0.539135 0.362026
vt 0.546894 0.370884
vt 0.428188 0.717387
vt 0.435188 0.721740
vt 0.440008 0.713991
vt 0.432178 0.708718
vt 0.440268 0.725922
vt 0.444978 0.719198
vt 0.444318 0.707391
vt 0.437198 0.700998
vt 0.449728 0.712939
vt 0.448138 0.724186
vt 0.453198 0.717899
vt 0.455138 0.706727
vt 0.450318 0.700714
vt 0.458818 0.711620
vt 0.455528 0.722641
vt 0.461628 0.716078
vt 0.465178 0.705361
vt 0.462068 0.700382
vt 0.467988 0.709430
vt 0.472798 0.699633
vt 0.470588 0.694398
vt 0.475188 0.703569
vt 0.481568 0.695346
vt 0.480278 0.689845
vt 0.483178 0.699310
vt 0.490888 0.693203
vt 0.490278 0.687664
vt 0.491538 0.697158
vt 0.529845 0.378167
vt 0.534135 0.376365
vt 0.526604 0.371443
vt 0.522624 0.374696
vt 0.444098 0.734856
vt 0.449638 0.729033
vt 0.443048 0.730398
vt 0.539634 0.374051
vt 0.531744 0.367071
vt 0.521845 0.360053
vt 0.517944 0.366720
vt 0.528034 0.352808
vt 0.514424 0.345837
vt 0.510975 0.354837
vt 0.537454 0.345903
vt 0.520525 0.336922
vt 0.508974 0.363439
vt 0.507424 0.370220
vt 0.514974 0.371993
vt 0.488948 0.680020
vt 0.486518 0.670470
vt 0.444158 0.693326
vt 0.458318 0.693971
vt 0.452858 0.685891
vt 0.467768 0.687712
vt 0.463398 0.679299
vt 0.478428 0.682742
vt 0.474888 0.674045
vt 0.492858 0.701321
vt 0.494198 0.705295
vt 0.506114 0.376982
vt 0.505194 0.382274
vt 0.515024 0.383801
vt 0.520634 0.386229
vt 0.525355 0.381686
vt 0.518704 0.379230
vt 0.512234 0.377589
vt 0.510064 0.382672
vt 0.445108 0.740518
vt 0.451278 0.735482
vt 0.457668 0.729166
vt 0.452658 0.743249
vt 0.460238 0.739228
vt 0.446508 0.746938
vt 0.464608 0.721645
vt 0.488438 0.706888
vt 0.485788 0.703313
vt 0.478638 0.707428
vt 0.471498 0.713716
vt 0.468738 0.729355
vt 0.482298 0.710824
vt 0.475228 0.717889
vn -0.4101 0.8952 0.1742
vn -0.4637 0.8792 0.1098
vn -0.3677 0.8583 -0.3580
vn -0.3634 0.8884 -0.2804
vn -0.3771 0.8012 0.4647
vn -0.4563 0.7864 0.4165
vn -0.6427 0.7037 0.3030
vn -0.5986 0.8006 0.0258
vn -0.3664 0.7249 0.5833
vn -0.4585 0.6915 0.5582
vn -0.6788 0.5772 0.4539
vn -0.8722 0.4072 0.2712
vn -0.8275 0.5488 0.1186
vn -0.4937 0.6563 0.5706
vn -0.7195 0.4626 0.5179
vn -0.8702 0.2849 0.4019
vn -0.9303 0.1557 0.3320
vn -0.9717 0.2214 0.0820
vn -0.7155 0.3811 0.5855
vn -0.7818 0.2511 0.5707
vn -0.7736 0.1625 0.6125
vn -0.5658 0.3525 0.7454
vn -0.5694 0.2671 0.7775
vn -0.5805 0.1658 0.7972
vn -0.2433 0.3123 0.9183
vn -0.3564 0.1666 0.9194
vn -0.5370 0.0060 0.8435
vn -0.0624 0.1667 0.9840
vn -0.3068 -0.1292 0.9430
vn -0.4916 -0.2747 0.8263
vn -0.3156 -0.3050 0.8985
vn -0.4050 -0.3948 0.8247
vn -0.8269 0.4505 -0.3367
vn -0.5943 0.4984 -0.6312
vn -0.5486 0.6641 -0.5080
vn -0.7472 0.6511 -0.1334
vn -0.9367 0.3345 -0.1037
vn -0.4456 0.7990 -0.4038
vn -0.1953 0.5266 -0.8274
vn -0.0958 0.6287 -0.7717
vn -0.0699 0.6805 -0.7294
vn 0.1213 0.4575 -0.8809
vn 0.1634 0.5493 -0.8195
vn 0.1417 0.5722 -0.8078
vn -0.1254 0.7203 -0.6823
vn 0.1474 0.4205 -0.8953
vn 0.2172 0.5311 -0.8190
vn 0.2340 0.5575 -0.7965
vn 0.0358 0.3737 -0.9269
vn 0.0753 0.3319 -0.9403
vn 0.0052 0.3877 -0.9218
vn 0.0837 0.3743 -0.9235
vn -0.2553 0.4502 -0.8557
vn -0.0890 0.0652 0.9939
vn 0.1669 0.4953 0.8525
vn 0.2330 0.4191 0.8776
vn 0.2443 0.5963 0.7647
vn 0.3379 0.5005 0.7970
vn -0.3917 0.7321 0.5574
vn -0.3703 0.7702 0.5194
vn -0.5006 0.6559 0.5649
vn -0.2649 0.7748 0.5741
vn -0.3918 0.6495 0.6517
vn -0.0244 0.7355 0.6771
vn -0.0958 0.6192 0.7794
vn -0.3580 -0.4599 0.8126
vn -0.5343 -0.4382 0.7228
vn -0.5487 -0.3665 0.7514
vn -0.3908 -0.4158 0.8212
vn 0.0121 0.3229 -0.9464
vn 0.1183 0.3133 -0.9423
vn 0.0251 0.2353 -0.9716
vn 0.1338 0.2173 -0.9669
vn -0.5233 0.2945 -0.7996
vn -0.5705 0.3650 -0.7357
vn -0.8067 0.3200 -0.4968
vn -0.7580 0.2782 -0.5900
vn -0.2417 0.2724 -0.9313
vn -0.2627 0.3522 -0.8983
vn -0.9340 0.2023 -0.2946
vn -0.9925 0.1150 -0.0402
vn -0.9822 0.0987 -0.1599
vn -0.9063 0.1890 -0.3781
vn -0.9497 0.0792 0.3030
vn -0.7269 -0.3485 0.5917
vn -0.6917 -0.2193 0.6881
vn -0.6921 -0.0542 0.7198
vn -0.7902 0.0404 0.6115
vn -0.9776 0.0576 0.2027
vn -0.7544 -0.1981 0.6258
vn -0.8079 -0.0205 0.5890
vn 0.4101 0.8952 0.1742
vn 0.3634 0.8884 -0.2804
vn 0.3677 0.8583 -0.3580
vn 0.4637 0.8792 0.1098
vn 0.4563 0.7864 0.4165
vn 0.3771 0.8012 0.4647
vn 0.5986 0.8006 0.0258
vn 0.6427 0.7037 0.3030
vn 0.4585 0.6915 0.5582
vn 0.3664 0.7249 0.5833
vn 0.6788 0.5773 0.4539
vn 0.8275 0.5488 0.1186
vn 0.8722 0.4072 0.2712
vn 0.7195 0.4627 0.5179
vn 0.4936 0.6563 0.5707
vn 0.8702 0.2849 0.4019
vn 0.9717 0.2214 0.0820
vn 0.9303 0.1557 0.3320
vn 0.7818 0.2511 0.5707
vn 0.7155 0.3811 0.5855
vn 0.7736 0.1624 0.6125
vn 0.5694 0.2671 0.7775
vn 0.5658 0.3525 0.7454
vn 0.5805 0.1658 0.7972
vn 0.3564 0.1666 0.9193
vn 0.2433 0.3123 0.9183
vn 0.5371 0.0060 0.8435
vn 0.3069 -0.1291 0.9430
vn 0.0623 0.1667 0.9840
vn 0.4916 -0.2747 0.8263
vn 0.8269 0.4504 -0.3367
vn 0.7472 0.6510 -0.1334
vn 0.5486 0.6641 -0.5080
vn 0.5943 0.4984 -0.6312
vn 0.9367 0.3345 -0.1037
vn 0.4456 0.7990 -0.4038
vn 0.0958 0.6287 -0.7717
vn 0.1953 0.5266 -0.8274
vn 0.0699 0.6805 -0.7294
vn -0.1634 0.5493 -0.8195
vn -0.1213 0.4575 -0.8809
vn 0.1254 0.7203 -0.6823
vn -0.1417 0.5722 -0.8078
vn -0.0358 0.3737 -0.9269
vn -0.0052 0.3877 -0.9218
vn 0.2553 0.4502 -0.8556
vn -0.1669 0.4953 0.8525
vn -0.2443 0.5963 0.7647
vn 0.3917 0.7321 0.5574
vn 0.5006 0.6559 0.5649
vn 0.3703 0.7702 0.5194
vn 0.3918 0.6495 0.6516
vn 0.2649 0.7748 0.5741
vn 0.0959 0.6192 0.7794
vn 0.0249 0.7356 0.6769
vn 0.5487 -0.3665 0.7514
vn 0.5342 -0.4382 0.7229
vn -0.0121 0.3229 -0.9464
vn -0.0251 0.2354 -0.9716
vn 0.5233 0.2944 -0.7996
vn 0.7580 0.2782 -0.5900
vn 0.8067 0.3200 -0.4968
vn 0.5705 0.3650 -0.7357
vn 0.2627 0.3522 -0.8983
vn 0.2417 0.2724 -0.9313
vn 0.9340 0.2023 -0.2946
vn 0.9925 0.1150 -0.0402
vn 0.9063 0.1890 -0.3781
vn 0.9822 0.0987 -0.1599
vn 0.9497 0.0792 0.3030
vn 0.7269 -0.3485 0.5917
vn 0.6917 -0.2193 0.6881
vn 0.6921 -0.0542 0.7198
vn 0.7902 0.0403 0.6115
vn 0.9776 0.0576 0.2027
vn 0.7545 -0.1981 0.6258
vn 0.8079 -0.0205 0.5890
usemtl male_feet_low:polySurface9SG.001
s 1
f 1/1/1 2/2/2 3/3/3 4/4/4
f 1/5/1 5/6/5 6/7/6 2/8/2
f 6/7/6 7/9/7 8/10/8 2/8/2
f 6/7/6 5/6/5 9/11/9 10/12/10
f 6/7/6 10/12/10 11/13/11 7/9/7
f 11/13/11 12/14/12 13/15/13 7/9/7
f 11/13/11 10/12/10 14/16/14 15/17/15
f 11/13/11 15/17/15 16/18/16 12/14/12
f 16/18/16 17/19/17 18/20/18 12/14/12
f 16/18/16 15/17/15 19/21/19 20/22/20
f 16/18/16 20/22/20 21/23/21 17/19/17
f 20/22/20 19/21/19 22/24/22 23/25/23
f 20/22/20 23/25/23 24/26/24 21/23/21
f 23/25/23 22/24/22 25/27/25 26/28/26
f 23/25/23 26/28/26 27/29/27 24/26/24
f 26/28/26 25/27/25 28/30/28 29/31/29
f 26/28/26 29/31/29 30/32/30 27/29/27
f 30/32/30 29/31/29 31/33/31 32/34/32
f 33/35/33 34/36/34 35/37/35 36/38/36
f 33/39/33 36/40/36 13/15/13 37/41/37
f 37/41/37 13/15/13 12/14/12 18/20/18
f 36/38/36 35/37/35 38/42/38 8/43/8
f 36/40/36 8/10/8 7/9/7 13/15/13
f 38/42/38 35/37/35 39/44/39 40/45/40
f 38/42/38 40/45/40 41/46/41 3/3/3
f 38/42/38 3/3/3 2/2/2 8/43/8
f 41/46/41 40/45/40 42/47/42 43/48/43
f 41/46/41 43/48/43 44/49/44 45/50/45
f 41/46/41 45/50/45 4/4/4 3/3/3
f 43/48/43 42/47/42 46/51/46 47/52/47
f 43/48/43 47/52/47 48/53/48 44/49/44
f 46/51/46 42/47/42 49/54/49 50/55/50
f 50/55/50 49/54/49 51/56/51 52/57/52
f 51/56/51 49/54/49 39/44/39 53/58/53
f 49/54/49 42/47/42 40/45/40 39/44/39
f 39/44/39 35/37/35 34/36/34 53/58/53
f 31/33/31 29/31/29 28/30/28 54/59/54
f 54/59/54 28/30/28 55/60/55 56/61/56
f 56/61/56 55/60/55 57/62/57 58/63/58
f 59/64/59 14/16/14 10/12/10 9/11/9
f 59/64/59 60/65/60 61/66/61 14/16/14
f 61/66/61 19/21/19 15/17/15 14/16/14
f 61/66/61 60/65/60 62/67/62 63/68/63
f 61/66/61 63/68/63 22/24/22 19/21/19
f 63/68/63 62/67/62 64/69/64 65/70/65
f 63/68/63 65/70/65 25/27/25 22/24/22
f 65/70/65 64/69/64 57/62/57 55/60/55
f 65/70/65 55/60/55 28/30/28 25/27/25
f 66/71/66 67/72/67 68/73/68 69/74/69
f 69/74/69 68/73/68 30/32/30 32/34/32
f 52/57/52 51/56/51 70/75/70 71/76/71
f 71/76/71 70/75/70 72/77/72 73/78/73
f 74/79/74 75/80/75 76/81/76 77/82/77
f 74/79/74 78/83/78 79/84/79 75/80/75
f 79/84/79 53/58/53 34/36/34 75/80/75
f 79/84/79 78/83/78 72/77/72 70/75/70
f 79/84/79 70/75/70 51/56/51 53/58/53
f 34/36/34 33/35/33 76/81/76 75/80/75
f 33/39/33 37/41/37 80/85/80 76/86/76
f 80/85/80 37/41/37 18/20/18 81/87/81
f 80/85/80 81/87/81 82/88/82 83/89/83
f 80/85/80 83/89/83 77/90/77 76/86/76
f 81/87/81 18/20/18 17/19/17 84/91/84
f 85/92/85 86/93/86 68/73/68 67/72/67
f 86/93/86 27/29/27 30/32/30 68/73/68
f 86/93/86 87/94/87 24/26/24 27/29/27
f 21/23/21 88/95/88 84/91/84 17/19/17
f 87/94/87 88/95/88 21/23/21 24/26/24
f 84/91/84 89/96/89 82/88/82 81/87/81
f 90/97/90 91/98/91 88/95/88 87/94/87
f 91/98/91 89/96/89 84/91/84 88/95/88
f 85/92/85 90/97/90 87/94/87 86/93/86
f 92/99/92 93/100/93 94/101/94 95/102/95
f 92/103/92 95/104/95 96/105/96 97/106/97
f 96/105/96 95/104/95 98/107/98 99/108/99
f 96/105/96 100/109/100 101/110/101 97/106/97
f 96/105/96 99/108/99 102/111/102 100/109/100
f 102/111/102 99/108/99 103/112/103 104/113/104
f 102/111/102 105/114/105 106/115/106 100/109/100
f 102/111/102 104/113/104 107/116/107 105/114/105
f 107/116/107 104/113/104 108/117/108 109/118/109
f 107/116/107 110/119/110 111/120/111 105/114/105
f 107/116/107 109/118/109 112/121/112 110/119/110
f 110/119/110 113/122/113 114/123/114 111/120/111
f 110/119/110 112/121/112 115/124/115 113/122/113
f 113/122/113 116/125/116 117/126/117 114/123/114
f 113/122/113 115/124/115 118/127/118 116/125/116
f 116/125/116 119/128/119 120/129/120 117/126/117
f 116/125/116 118/127/118 121/130/121 119/128/119
f 121/130/121 32/34/32 31/33/31 119/128/119
f 122/131/122 123/132/123 124/133/124 125/134/125
f 122/135/122 126/136/126 103/112/103 123/137/123
f 126/136/126 108/117/108 104/113/104 103/112/103
f 123/132/123 98/138/98 127/139/127 124/133/124
f 123/137/123 103/112/103 99/108/99 98/107/98
f 127/139/127 128/140/128 129/141/129 124/133/124
f 127/139/127 94/101/94 130/142/130 128/140/128
f 127/139/127 98/138/98 95/102/95 94/101/94
f 130/142/130 131/143/131 132/144/132 128/140/128
f 130/142/130 133/145/133 134/146/134 131/143/131
f 130/142/130 94/101/94 93/100/93 133/145/133
f 131/143/131 47/52/47 46/51/46 132/144/132
f 131/143/131 134/146/134 48/53/48 47/52/47
f 46/51/46 50/55/50 135/147/135 132/144/132
f 50/55/50 52/57/52 136/148/136 135/147/135
f 136/148/136 137/149/137 129/141/129 135/147/135
f 135/147/135 129/141/129 128/140/128 132/144/132
f 129/141/129 137/149/137 125/134/125 124/133/124
f 31/33/31 54/59/54 120/129/120 119/128/119
f 54/59/54 56/61/56 138/150/138 120/129/120
f 56/61/56 58/63/58 139/151/139 138/150/138
f 140/152/140 101/110/101 100/109/100 106/115/106
f 140/152/140 106/115/106 141/153/141 142/154/142
f 141/153/141 106/115/106 105/114/105 111/120/111
f 141/153/141 143/155/143 144/156/144 142/154/142
f 141/153/141 111/120/111 114/123/114 143/155/143
f 143/155/143 145/157/145 146/158/146 144/156/144
f 143/155/143 114/123/114 117/126/117 145/157/145
f 145/157/145 138/150/138 139/151/139 146/158/146
f 145/157/145 117/126/117 120/129/120 138/150/138
f 66/71/66 69/74/69 147/159/147 148/160/148
f 69/74/69 32/34/32 121/130/121 147/159/147
f 52/57/52 71/76/71 149/161/149 136/148/136
f 71/76/71 73/78/73 150/162/150 149/161/149
f 151/163/151 152/164/152 153/165/153 154/166/154
f 151/163/151 154/166/154 155/167/155 156/168/156
f 155/167/155 154/166/154 125/134/125 137/149/137
f 155/167/155 149/161/149 150/162/150 156/168/156
f 155/167/155 137/149/137 136/148/136 149/161/149
f 125/134/125 154/166/154 153/165/153 122/131/122
f 122/135/122 153/169/153 157/170/157 126/136/126
f 157/170/157 158/171/158 108/117/108 126/136/126
f 157/170/157 159/172/159 160/173/160 158/171/158
f 157/170/157 153/169/153 152/174/152 159/172/159
f 158/171/158 161/175/161 109/118/109 108/117/108
f 162/176/162 148/160/148 147/159/147 163/177/163
f 163/177/163 147/159/147 121/130/121 118/127/118
f 163/177/163 118/127/118 115/124/115 164/178/164
f 112/121/112 109/118/109 161/175/161 165/179/165
f 164/178/164 115/124/115 112/121/112 165/179/165
f 161/175/161 158/171/158 160/173/160 166/180/166
f 167/181/167 164/178/164 165/179/165 168/182/168
f 168/182/168 165/179/165 161/175/161 166/180/166
f 162/176/162 163/177/163 164/178/164 167/181/167
