# Blender v2.79 (sub 0) OBJ File: 'male.blend'
# www.blender.org
mtllib nose.mtl
o male_31_nose_middle
v 0.612039 52.695564 3.093697
v 0.493512 52.853035 3.162415
v 0.451474 52.728264 3.258005
v 0.525028 52.611088 3.223354
v 0.441899 52.672726 3.344955
v 0.349544 52.802116 3.364959
v 0.365211 52.697601 3.437713
v 0.388914 52.597565 3.480582
v 0.478681 52.590302 3.354743
v 0.097630 52.340473 3.442203
v 0.212057 52.364056 3.305556
v 0.212604 52.479172 3.321422
v 0.069478 52.486530 3.376955
v 0.113017 52.334400 3.653770
v 0.000000 52.297234 3.697280
v 0.000000 52.261681 3.518168
v 0.348187 52.339233 3.311181
v 0.334039 52.396843 3.377349
v 0.298457 52.383583 3.484889
v 0.224614 52.469692 3.434365
v 0.175564 52.557137 3.392817
v 0.163588 52.579838 3.306987
v 0.097329 52.738956 3.370612
v 0.089972 52.745529 3.349345
v 0.114561 52.761547 3.338749
v 0.118276 52.745083 3.363194
v 0.093293 52.697346 3.379482
v 0.073271 52.712151 3.340680
v 0.130056 52.701405 3.364692
v 0.124141 52.720470 3.321811
v 0.187267 53.587158 3.252760
v 0.105328 53.600536 3.316706
v 0.102141 53.432842 3.413127
v 0.193309 53.414951 3.355054
v 0.273750 53.392830 3.249604
v 0.260656 53.572941 3.167309
v 0.000000 53.435814 3.423147
v 0.000000 53.245682 3.544624
v 0.097751 53.240513 3.529557
v 0.000000 53.602203 3.328294
v 0.187587 53.219585 3.461529
v 0.095878 53.044498 3.634851
v 0.181908 53.027901 3.558606
v 0.284754 53.195202 3.342226
v 0.265478 53.000179 3.428691
v 0.000000 53.048500 3.655080
v 0.000000 52.877697 3.749100
v 0.105384 52.878059 3.728262
v 0.195204 52.868141 3.646791
v 0.118581 52.744179 3.803820
v 0.221110 52.742165 3.720704
v 0.264844 52.843361 3.510424
v 0.290044 52.723637 3.579397
v 0.235779 52.622471 3.767484
v 0.309386 52.612152 3.623257
v 0.128829 52.622139 3.860926
v 0.130550 52.491211 3.878235
v 0.236301 52.501503 3.781957
v 0.318190 52.503567 3.646380
v 0.215021 52.400429 3.747480
v 0.298960 52.410362 3.638881
v 0.400958 52.495411 3.511325
v 0.375987 52.405720 3.519857
v 0.240345 52.369331 3.592138
v 0.435612 52.389622 3.403615
v 0.482542 52.480175 3.382069
v 0.471753 52.358917 3.298172
v 0.537519 52.467857 3.254598
v 0.470408 52.327374 3.182400
v 0.551927 52.462845 3.117046
v 0.363095 52.269997 3.251482
v 0.121411 52.372406 3.822976
v 0.190712 52.356373 3.681280
v 0.000000 52.354259 3.857195
v 0.000000 52.486530 3.900167
v 0.000000 52.616516 3.877171
v 0.000000 52.737198 3.817405
v 0.373039 52.952534 3.281007
v 0.235651 52.259773 3.297298
v 0.106058 52.259808 3.326543
v 0.139087 52.655586 3.309045
v 0.148565 52.635193 3.372760
v 0.000000 52.652668 3.335591
v 0.000000 52.579376 3.343308
v 0.093942 52.635712 3.397260
v 0.108214 52.561424 3.427627
v 0.145428 52.447098 3.507740
v 0.000000 52.242397 3.360600
v 0.334248 53.561615 3.064956
v 0.351986 53.389030 3.110337
v 0.410625 53.173286 3.160307
v -0.612039 52.695564 3.093697
v -0.525028 52.611088 3.223354
v -0.451474 52.728264 3.258005
v -0.493512 52.853035 3.162415
v -0.441899 52.672726 3.344955
v -0.365211 52.697601 3.437713
v -0.349544 52.802116 3.364959
v -0.478681 52.590302 3.354743
v -0.388914 52.597565 3.480582
v -0.097630 52.340473 3.442203
v -0.069478 52.486530 3.376955
v -0.212604 52.479172 3.321422
v -0.212057 52.364056 3.305556
v -0.113017 52.334400 3.653770
v -0.334039 52.396843 3.377349
v -0.348187 52.339233 3.311181
v -0.224614 52.469692 3.434365
v -0.298457 52.383583 3.484889
v -0.163588 52.579838 3.306987
v -0.175564 52.557137 3.392817
v -0.097329 52.738956 3.370612
v -0.118276 52.745083 3.363194
v -0.114561 52.761547 3.338749
v -0.089972 52.745529 3.349345
v -0.073271 52.712151 3.340680
v -0.093293 52.697346 3.379482
v -0.130056 52.701405 3.364692
v -0.124141 52.720470 3.321811
v -0.187267 53.587158 3.252760
v -0.193309 53.414951 3.355054
v -0.102141 53.432842 3.413127
v -0.105328 53.600536 3.316706
v -0.260656 53.572941 3.167309
v -0.273750 53.392830 3.249604
v -0.097751 53.240513 3.529557
v -0.187587 53.219585 3.461529
v -0.181908 53.027901 3.558606
v -0.095878 53.044498 3.634851
v -0.284754 53.195202 3.342226
v -0.265478 53.000179 3.428691
v -0.105384 52.878059 3.728262
v -0.195204 52.868141 3.646791
v -0.221110 52.742165 3.720704
v -0.118581 52.744179 3.803820
v -0.264844 52.843361 3.510424
v -0.290044 52.723637 3.579397
v -0.309386 52.612152 3.623257
v -0.235779 52.622471 3.767484
v -0.236301 52.501503 3.781957
v -0.130550 52.491211 3.878235
v -0.128829 52.622139 3.860926
v -0.318190 52.503567 3.646380
v -0.298960 52.410362 3.638881
v -0.215021 52.400429 3.747480
v -0.400958 52.495411 3.511325
v -0.375987 52.405720 3.519857
v -0.240345 52.369331 3.592138
v -0.482542 52.480175 3.382069
v -0.435612 52.389622 3.403615
v -0.537519 52.467857 3.254598
v -0.471753 52.358917 3.298172
v -0.551927 52.462845 3.117046
v -0.470408 52.327374 3.182400
v -0.363095 52.269997 3.251482
v -0.190712 52.356373 3.681280
v -0.121411 52.372406 3.822976
v -0.373039 52.952534 3.281007
v -0.235651 52.259773 3.297298
v -0.106058 52.259808 3.326543
v -0.148565 52.635193 3.372760
v -0.139087 52.655586 3.309045
v -0.108214 52.561424 3.427627
v -0.093942 52.635712 3.397260
v -0.145428 52.447098 3.507740
v -0.334248 53.561615 3.064956
v -0.351986 53.389030 3.110337
v -0.410625 53.173286 3.160307
vt 0.481094 0.852287
vt 0.483884 0.857427
vt 0.485464 0.854667
vt 0.484104 0.850737
vt 0.487144 0.853427
vt 0.489144 0.857617
vt 0.489804 0.855047
vt 0.490114 0.852527
vt 0.487024 0.850907
vt 0.498054 0.842867
vt 0.493484 0.841907
vt 0.492484 0.843107
vt 0.496594 0.843527
vt 0.498524 0.847227
vt 0.500000 0.847297
vt 0.500000 0.843597
vt 0.490364 0.843007
vt 0.490904 0.845107
vt 0.492294 0.847347
vt 0.493074 0.846197
vt 0.493404 0.845717
vt 0.493054 0.843557
vt 0.494754 0.845207
vt 0.494614 0.844657
vt 0.494254 0.844877
vt 0.494204 0.845207
vt 0.495174 0.845337
vt 0.494984 0.844327
vt 0.494114 0.845407
vt 0.493544 0.844307
vt 0.494614 0.878067
vt 0.497414 0.878347
vt 0.497904 0.873347
vt 0.495314 0.872877
vt 0.492114 0.872297
vt 0.491994 0.877467
vt 0.500000 0.873537
vt 0.500000 0.867997
vt 0.498304 0.867787
vt 0.500000 0.878487
vt 0.495854 0.867487
vt 0.498444 0.862867
vt 0.496064 0.862777
vt 0.492134 0.866967
vt 0.492424 0.862367
vt 0.500000 0.862937
vt 0.500000 0.859187
vt 0.498234 0.859167
vt 0.495854 0.859097
vt 0.498214 0.856597
vt 0.495854 0.856457
vt 0.492704 0.858747
vt 0.492794 0.856057
vt 0.495934 0.854217
vt 0.493034 0.853537
vt 0.498324 0.854387
vt 0.498524 0.852227
vt 0.496264 0.851987
vt 0.493414 0.851207
vt 0.496684 0.849847
vt 0.494044 0.849447
vt 0.490764 0.850247
vt 0.491434 0.848477
vt 0.494934 0.848027
vt 0.489374 0.846637
vt 0.488014 0.848567
vt 0.487724 0.844827
vt 0.485404 0.847157
vt 0.486394 0.843037
vt 0.483254 0.845977
vt 0.489844 0.841527
vt 0.498754 0.850027
vt 0.497014 0.848337
vt 0.500000 0.850107
vt 0.500000 0.852317
vt 0.500000 0.854457
vt 0.500000 0.856577
vt 0.488274 0.860987
vt 0.493664 0.840607
vt 0.497274 0.840767
vt 0.493244 0.843927
vt 0.493754 0.845527
vt 0.495534 0.843877
vt 0.495934 0.843667
vt 0.495414 0.845667
vt 0.495554 0.845667
vt 0.496304 0.846137
vt 0.500000 0.840987
vt 0.488864 0.876677
vt 0.488484 0.871987
vt 0.486934 0.866077
vt 0.481094 0.852287
vt 0.484104 0.850737
vt 0.485464 0.854667
vt 0.483884 0.857427
vt 0.487144 0.853427
vt 0.489804 0.855047
vt 0.489144 0.857617
vt 0.487024 0.850907
vt 0.490114 0.852527
vt 0.498054 0.842867
vt 0.496594 0.843527
vt 0.492484 0.843107
vt 0.493484 0.841907
vt 0.498524 0.847227
vt 0.490904 0.845107
vt 0.490364 0.843007
vt 0.493074 0.846197
vt 0.492294 0.847347
vt 0.493054 0.843557
vt 0.493404 0.845717
vt 0.494754 0.845207
vt 0.494204 0.845207
vt 0.494254 0.844877
vt 0.494614 0.844657
vt 0.494984 0.844327
vt 0.495174 0.845337
vt 0.494114 0.845407
vt 0.493544 0.844307
vt 0.494614 0.878067
vt 0.495314 0.872877
vt 0.497904 0.873347
vt 0.497414 0.878347
vt 0.491994 0.877467
vt 0.492114 0.872297
vt 0.498304 0.867787
vt 0.495854 0.867487
vt 0.496064 0.862777
vt 0.498444 0.862867
vt 0.492134 0.866967
vt 0.492424 0.862367
vt 0.498234 0.859167
vt 0.495854 0.859097
vt 0.495854 0.856457
vt 0.498214 0.856597
vt 0.492704 0.858747
vt 0.492794 0.856057
vt 0.493034 0.853537
vt 0.495934 0.854217
vt 0.496264 0.851987
vt 0.498524 0.852227
vt 0.498324 0.854387
vt 0.493414 0.851207
vt 0.494044 0.849447
vt 0.496684 0.849847
vt 0.490764 0.850247
vt 0.491434 0.848477
vt 0.494934 0.848027
vt 0.488014 0.848567
vt 0.489374 0.846637
vt 0.485404 0.847157
vt 0.487724 0.844827
vt 0.483254 0.845977
vt 0.486394 0.843037
vt 0.489844 0.841527
vt 0.497014 0.848337
vt 0.498754 0.850027
vt 0.488274 0.860987
vt 0.493664 0.840607
vt 0.497274 0.840767
vt 0.493754 0.845527
vt 0.493244 0.843927
vt 0.495554 0.845667
vt 0.495414 0.845667
vt 0.496304 0.846137
vt 0.488864 0.876677
vt 0.488484 0.871987
vt 0.486934 0.866077
vn 0.5968 0.1434 0.7895
vn 0.7103 0.2251 0.6670
vn 0.7652 0.2904 0.5747
vn 0.8773 0.1349 0.4605
vn 0.7856 0.4349 0.4402
vn 0.8178 0.2821 0.5016
vn 0.8126 0.3974 0.4263
vn 0.8281 0.2849 0.4828
vn 0.8565 0.2687 0.4407
vn 0.8205 -0.5043 0.2690
vn 0.3189 -0.2063 0.9251
vn -0.0926 -0.2561 0.9622
vn 0.9169 0.1040 0.3853
vn 0.4447 -0.8956 -0.0089
vn 0.3955 -0.9038 0.1636
vn 0.5145 -0.8491 0.1201
vn 0.0671 -0.6560 0.7517
vn -0.3072 -0.8892 0.3391
vn -0.1911 -0.9698 -0.1514
vn -0.5687 -0.7425 -0.3540
vn -0.7477 -0.5420 -0.3836
vn -0.2532 0.0229 0.9671
vn 0.3266 -0.3809 -0.8650
vn 0.7627 -0.5615 0.3210
vn -0.3619 -0.7195 0.5927
vn -0.7541 -0.4384 -0.4890
vn 0.3770 -0.2459 -0.8930
vn 0.8216 -0.2566 0.5091
vn -0.8478 -0.2805 -0.4502
vn -0.3603 -0.3431 0.8675
vn 0.6537 0.1375 0.7442
vn 0.3473 0.2794 0.8952
vn 0.3668 0.4688 0.8035
vn 0.6930 0.3533 0.6284
vn 0.7987 0.3002 0.5215
vn 0.7564 -0.0153 0.6540
vn 0.1150 0.5095 0.8528
vn 0.1536 0.4979 0.8535
vn 0.4053 0.4452 0.7984
vn 0.1139 0.3248 0.9389
vn 0.7217 0.3024 0.6226
vn 0.4342 0.4399 0.7861
vn 0.7571 0.3029 0.5788
vn 0.8103 0.2333 0.5375
vn 0.8322 0.2020 0.5163
vn 0.1816 0.4770 0.8599
vn 0.1518 0.4739 0.8674
vn 0.4053 0.4717 0.7831
vn 0.7580 0.3848 0.5266
vn 0.3705 0.4474 0.8140
vn 0.7488 0.3846 0.5398
vn 0.8521 0.3025 0.4271
vn 0.8508 0.3553 0.3871
vn 0.7668 0.2248 0.6013
vn 0.8632 0.2401 0.4441
vn 0.3949 0.2705 0.8780
vn 0.4330 -0.1154 0.8940
vn 0.7662 -0.0882 0.6365
vn 0.8585 -0.0167 0.5125
vn 0.6442 -0.5686 0.5116
vn 0.7170 -0.5431 0.4370
vn 0.8526 0.0193 0.5223
vn 0.6543 -0.6425 0.3988
vn 0.0839 -0.9735 -0.2129
vn 0.5948 -0.6677 0.4477
vn 0.8857 -0.0437 0.4622
vn 0.6908 -0.6229 0.3671
vn 0.9369 -0.1886 0.2942
vn 0.6174 -0.0456 0.7853
vn 0.6576 -0.0090 0.7533
vn 0.3978 -0.0956 0.9125
vn 0.4094 -0.6913 0.5954
vn 0.2985 -0.9544 0.0067
vn 0.2974 -0.7210 0.6259
vn 0.1936 -0.1143 0.9744
vn 0.1151 0.2872 0.9509
vn 0.1021 0.4498 0.8872
vn 0.7999 0.1893 0.5694
vn 0.2839 -0.1400 0.9486
vn 0.3818 -0.4359 0.8150
vn -0.3327 -0.1697 0.9276
vn -0.8217 -0.3721 -0.4317
vn 0.8541 -0.0502 0.5178
vn 0.8446 0.1792 0.5046
vn 0.3936 -0.2525 -0.8839
vn 0.3786 -0.3835 -0.8424
vn 0.4817 -0.6627 -0.5735
vn 0.3985 -0.6785 0.6172
vn 0.8607 -0.2077 0.4648
vn 0.8649 0.3032 0.4000
vn 0.8060 0.2884 0.5169
vn -0.5967 0.1434 0.7895
vn -0.8773 0.1349 0.4606
vn -0.7652 0.2903 0.5746
vn -0.7103 0.2251 0.6670
vn -0.7856 0.4348 0.4402
vn -0.8126 0.3974 0.4263
vn -0.8178 0.2821 0.5016
vn -0.8565 0.2687 0.4407
vn -0.8281 0.2849 0.4828
vn -0.8206 -0.5043 0.2690
vn -0.9169 0.1040 0.3853
vn 0.0926 -0.2561 0.9622
vn -0.3189 -0.2063 0.9251
vn -0.4447 -0.8957 -0.0089
vn 0.3072 -0.8892 0.3391
vn -0.0671 -0.6561 0.7517
vn 0.5687 -0.7425 -0.3540
vn 0.1909 -0.9698 -0.1516
vn 0.2533 0.0230 0.9671
vn 0.7477 -0.5420 -0.3836
vn -0.3265 -0.3808 -0.8651
vn 0.7541 -0.4383 -0.4892
vn 0.3621 -0.7195 0.5926
vn -0.7625 -0.5616 0.3210
vn -0.8212 -0.2569 0.5095
vn -0.3770 -0.2457 -0.8930
vn 0.8478 -0.2804 -0.4502
vn 0.3604 -0.3428 0.8675
vn -0.6537 0.1375 0.7442
vn -0.6930 0.3533 0.6284
vn -0.3668 0.4688 0.8035
vn -0.3473 0.2794 0.8952
vn -0.7564 -0.0153 0.6540
vn -0.7987 0.3002 0.5215
vn -0.4053 0.4452 0.7984
vn -0.7217 0.3024 0.6226
vn -0.7571 0.3029 0.5788
vn -0.4342 0.4399 0.7861
vn -0.8103 0.2333 0.5375
vn -0.8322 0.2020 0.5163
vn -0.4053 0.4717 0.7831
vn -0.7580 0.3848 0.5266
vn -0.7488 0.3846 0.5398
vn -0.3705 0.4474 0.8140
vn -0.8521 0.3025 0.4271
vn -0.8508 0.3553 0.3871
vn -0.8632 0.2401 0.4441
vn -0.7668 0.2248 0.6013
vn -0.7662 -0.0882 0.6365
vn -0.4329 -0.1154 0.8940
vn -0.3949 0.2705 0.8780
vn -0.8585 -0.0167 0.5125
vn -0.7170 -0.5431 0.4370
vn -0.6442 -0.5686 0.5116
vn -0.8526 0.0193 0.5223
vn -0.6543 -0.6425 0.3988
vn -0.0839 -0.9735 -0.2129
vn -0.8857 -0.0437 0.4623
vn -0.5949 -0.6677 0.4476
vn -0.9369 -0.1886 0.2942
vn -0.6908 -0.6230 0.3670
vn -0.6576 -0.0090 0.7533
vn -0.6174 -0.0456 0.7853
vn -0.3978 -0.0956 0.9125
vn -0.2985 -0.9544 0.0067
vn -0.4094 -0.6913 0.5954
vn -0.7999 0.1893 0.5694
vn -0.2839 -0.1400 0.9486
vn -0.3818 -0.4359 0.8150
vn 0.8217 -0.3721 -0.4317
vn 0.3329 -0.1695 0.9276
vn -0.8541 -0.0502 0.5178
vn -0.8446 0.1792 0.5046
vn -0.3786 -0.3836 -0.8424
vn -0.3936 -0.2525 -0.8839
vn -0.4817 -0.6627 -0.5734
vn -0.8607 -0.2077 0.4648
vn -0.8649 0.3032 0.4000
vn -0.8060 0.2884 0.5169
usemtl male_feet_low:polySurface9SG.048
s 1
f 1/1/1 2/2/2 3/3/3 4/4/4
f 5/5/5 3/3/3 6/6/6 7/7/7
f 5/5/5 7/7/7 8/8/8 9/9/9
f 5/5/5 9/9/9 4/4/4 3/3/3
f 10/10/10 11/11/11 12/12/12 13/13/13
f 10/10/10 14/14/14 15/15/15 16/16/16
f 12/12/12 11/11/11 17/17/17 18/18/18
f 12/12/12 18/18/18 19/19/19 20/20/20
f 12/12/12 20/20/20 21/21/21 22/22/22
f 23/23/23 24/24/24 25/25/25 26/26/26
f 23/23/23 27/27/27 28/28/28 24/24/24
f 23/23/23 26/26/26 29/29/29 27/27/27
f 26/26/26 25/25/25 30/30/30 29/29/29
f 24/24/24 28/28/28 30/30/30 25/25/25
f 31/31/31 32/32/32 33/33/33 34/34/34
f 31/31/31 34/34/34 35/35/35 36/36/36
f 33/33/33 37/37/37 38/38/38 39/39/39
f 33/33/33 32/32/32 40/40/40 37/37/37
f 33/33/33 39/39/39 41/41/41 34/34/34
f 41/41/41 39/39/39 42/42/42 43/43/43
f 41/41/41 44/44/44 35/35/35 34/34/34
f 41/41/41 43/43/43 45/45/45 44/44/44
f 42/42/42 46/46/46 47/47/47 48/48/48
f 42/42/42 39/39/39 38/38/38 46/46/46
f 42/42/42 48/48/48 49/49/49 43/43/43
f 49/49/49 48/48/48 50/50/50 51/51/51
f 49/49/49 52/52/52 45/45/45 43/43/43
f 49/49/49 51/51/51 53/53/53 52/52/52
f 53/53/53 51/51/51 54/54/54 55/55/55
f 53/53/53 7/7/7 6/6/6 52/52/52
f 53/53/53 55/55/55 8/8/8 7/7/7
f 54/54/54 56/56/56 57/57/57 58/58/58
f 54/54/54 51/51/51 50/50/50 56/56/56
f 54/54/54 58/58/58 59/59/59 55/55/55
f 59/59/59 58/58/58 60/60/60 61/61/61
f 59/59/59 62/62/62 8/8/8 55/55/55
f 59/59/59 61/61/61 63/63/63 62/62/62
f 63/63/63 61/61/61 64/64/64 19/19/19
f 63/63/63 65/65/65 66/66/66 62/62/62
f 63/63/63 19/19/19 18/18/18 65/65/65
f 65/65/65 67/67/67 68/68/68 66/66/66
f 65/65/65 18/18/18 17/17/17 67/67/67
f 67/67/67 69/69/69 70/70/70 68/68/68
f 67/67/67 17/17/17 71/71/71 69/69/69
f 68/68/68 4/4/4 9/9/9 66/66/66
f 68/68/68 70/70/70 1/1/1 4/4/4
f 66/66/66 9/9/9 8/8/8 62/62/62
f 60/60/60 72/72/72 14/14/14 73/73/73
f 60/60/60 58/58/58 57/57/57 72/72/72
f 60/60/60 73/73/73 64/64/64 61/61/61
f 72/72/72 74/74/74 15/15/15 14/14/14
f 72/72/72 57/57/57 75/75/75 74/74/74
f 75/75/75 57/57/57 56/56/56 76/76/76
f 76/76/76 56/56/56 50/50/50 77/77/77
f 77/77/77 50/50/50 48/48/48 47/47/47
f 52/52/52 6/6/6 78/78/78 45/45/45
f 79/79/79 71/71/71 17/17/17 11/11/11
f 79/79/79 11/11/11 10/10/10 80/80/80
f 30/30/30 81/81/81 82/82/82 29/29/29
f 30/30/30 28/28/28 83/83/83 81/81/81
f 83/83/83 84/84/84 22/22/22 81/81/81
f 83/83/83 85/85/85 86/86/86 84/84/84
f 83/83/83 28/28/28 27/27/27 85/85/85
f 85/85/85 82/82/82 21/21/21 86/86/86
f 85/85/85 27/27/27 29/29/29 82/82/82
f 86/86/86 87/87/87 13/13/13 84/84/84
f 86/86/86 21/21/21 20/20/20 87/87/87
f 84/84/84 13/13/13 12/12/12 22/22/22
f 81/81/81 22/22/22 21/21/21 82/82/82
f 19/19/19 64/64/64 87/87/87 20/20/20
f 87/87/87 14/14/14 10/10/10 13/13/13
f 73/73/73 14/14/14 87/87/87 64/64/64
f 16/16/16 88/88/88 80/80/80 10/10/10
f 6/6/6 3/3/3 2/2/2 78/78/78
f 89/89/89 36/36/36 35/35/35 90/90/90
f 90/90/90 35/35/35 44/44/44 91/91/91
f 44/44/44 45/45/45 78/78/78 91/91/91
f 92/92/92 93/93/93 94/94/94 95/95/95
f 96/96/96 97/97/97 98/98/98 94/94/94
f 96/96/96 99/99/99 100/100/100 97/97/97
f 96/96/96 94/94/94 93/93/93 99/99/99
f 101/101/101 102/102/102 103/103/103 104/104/104
f 101/101/101 16/16/16 15/15/15 105/105/105
f 103/103/103 106/106/106 107/107/107 104/104/104
f 103/103/103 108/108/108 109/109/109 106/106/106
f 103/103/103 110/110/110 111/111/111 108/108/108
f 112/112/112 113/113/113 114/114/114 115/115/115
f 112/112/112 115/115/115 116/116/116 117/117/117
f 112/112/112 117/117/117 118/118/118 113/113/113
f 113/113/113 118/118/118 119/119/119 114/114/114
f 115/115/115 114/114/114 119/119/119 116/116/116
f 120/120/120 121/121/121 122/122/122 123/123/123
f 120/120/120 124/124/124 125/125/125 121/121/121
f 122/122/122 126/126/126 38/38/38 37/37/37
f 122/122/122 37/37/37 40/40/40 123/123/123
f 122/122/122 121/121/121 127/127/127 126/126/126
f 127/127/127 128/128/128 129/129/129 126/126/126
f 127/127/127 121/121/121 125/125/125 130/130/130
f 127/127/127 130/130/130 131/131/131 128/128/128
f 129/129/129 132/132/132 47/47/47 46/46/46
f 129/129/129 46/46/46 38/38/38 126/126/126
f 129/129/129 128/128/128 133/133/133 132/132/132
f 133/133/133 134/134/134 135/135/135 132/132/132
f 133/133/133 128/128/128 131/131/131 136/136/136
f 133/133/133 136/136/136 137/137/137 134/134/134
f 137/137/137 138/138/138 139/139/139 134/134/134
f 137/137/137 136/136/136 98/98/98 97/97/97
f 137/137/137 97/97/97 100/100/100 138/138/138
f 139/139/139 140/140/140 141/141/141 142/142/142
f 139/139/139 142/142/142 135/135/135 134/134/134
f 139/139/139 138/138/138 143/143/143 140/140/140
f 143/143/143 144/144/144 145/145/145 140/140/140
f 143/143/143 138/138/138 100/100/100 146/146/146
f 143/143/143 146/146/146 147/147/147 144/144/144
f 147/147/147 109/109/109 148/148/148 144/144/144
f 147/147/147 146/146/146 149/149/149 150/150/150
f 147/147/147 150/150/150 106/106/106 109/109/109
f 150/150/150 149/149/149 151/151/151 152/152/152
f 150/150/150 152/152/152 107/107/107 106/106/106
f 152/152/152 151/151/151 153/153/153 154/154/154
f 152/152/152 154/154/154 155/155/155 107/107/107
f 151/151/151 149/149/149 99/99/99 93/93/93
f 151/151/151 93/93/93 92/92/92 153/153/153
f 149/149/149 146/146/146 100/100/100 99/99/99
f 145/145/145 156/156/156 105/105/105 157/157/157
f 145/145/145 157/157/157 141/141/141 140/140/140
f 145/145/145 144/144/144 148/148/148 156/156/156
f 157/157/157 105/105/105 15/15/15 74/74/74
f 157/157/157 74/74/74 75/75/75 141/141/141
f 75/75/75 76/76/76 142/142/142 141/141/141
f 76/76/76 77/77/77 135/135/135 142/142/142
f 77/77/77 47/47/47 132/132/132 135/135/135
f 136/136/136 131/131/131 158/158/158 98/98/98
f 159/159/159 104/104/104 107/107/107 155/155/155
f 159/159/159 160/160/160 101/101/101 104/104/104
f 119/119/119 118/118/118 161/161/161 162/162/162
f 119/119/119 162/162/162 83/83/163 116/116/116
f 83/83/163 162/162/162 110/110/110 84/84/164
f 83/83/163 84/84/164 163/163/165 164/164/166
f 83/83/163 164/164/166 117/117/117 116/116/116
f 164/164/166 163/163/165 111/111/111 161/161/161
f 164/164/166 161/161/161 118/118/118 117/117/117
f 163/163/165 84/84/164 102/102/102 165/165/167
f 163/163/165 165/165/167 108/108/108 111/111/111
f 84/84/164 110/110/110 103/103/103 102/102/102
f 162/162/162 161/161/161 111/111/111 110/110/110
f 109/109/109 108/108/108 165/165/167 148/148/148
f 165/165/167 102/102/102 101/101/101 105/105/105
f 156/156/156 148/148/148 165/165/167 105/105/105
f 16/16/16 101/101/101 160/160/160 88/88/88
f 98/98/98 158/158/158 95/95/95 94/94/94
f 166/166/168 167/167/169 125/125/125 124/124/124
f 167/167/169 168/168/170 130/130/130 125/125/125
f 130/130/130 168/168/170 158/158/158 131/131/131
