# Blender v2.79 (sub 0) OBJ File: 'male.blend'
# www.blender.org
mtllib thigh_rt.mtl
o male_13_thigh_Rt_half_Rt
v -2.574113 29.114634 3.068761
v -2.662374 30.010311 3.031834
v -3.674138 29.835962 2.966850
v -3.775092 29.009058 3.132551
v -1.595226 29.552143 3.172441
v -1.739970 30.188246 3.262488
v -1.879936 28.594587 2.847630
v -1.313831 28.957777 3.007079
v -3.046155 28.022871 3.163434
v -2.292932 27.844448 2.872506
v -3.984518 28.031799 3.327313
v -4.186183 26.920162 3.468151
v -3.338449 26.918346 3.237014
v -4.757254 28.904488 2.949416
v -4.929739 27.966825 3.148249
v -5.091125 26.894827 3.312896
v -5.223943 25.725100 3.388607
v -4.343975 25.717922 3.547474
v -5.686038 27.923508 2.593678
v -5.873901 26.896605 2.766217
v -5.994831 25.766943 2.830255
v -6.066601 24.627995 2.779918
v -5.322713 24.549429 3.331177
v -6.373263 26.935772 1.918557
v -6.490908 25.839975 1.965265
v -6.570250 24.730331 1.944238
v -6.654624 23.622231 1.889153
v -6.144235 23.503433 2.681849
v -6.617087 25.912251 0.960924
v -6.686494 24.823486 0.950959
v -6.726588 23.731951 0.917280
v -6.563384 23.810705 -0.010654
v -6.544863 24.886902 -0.007315
v -6.508501 22.731577 -0.035754
v -6.699874 22.631338 0.841007
v -6.610688 21.530394 0.700172
v -6.367096 21.663408 -0.100400
v -6.178960 20.650187 -0.193960
v -6.481244 20.485100 0.509333
v -6.657177 22.499201 1.762048
v -6.623524 21.366009 1.562137
v -6.185946 22.370153 2.520799
v -6.191504 21.225946 2.293219
v -5.449362 22.281590 2.933863
v -5.393002 23.408234 3.159061
v -4.475364 24.511667 3.508488
v -4.588061 23.346462 3.361181
v -3.659503 24.505461 3.368276
v -3.799124 23.330317 3.248701
v -3.511556 25.719643 3.362913
v -2.994202 24.518702 2.859394
v -2.825764 25.703747 2.866576
v -2.578251 26.844355 2.912483
v -2.089689 25.639280 2.477287
v -1.940185 26.732170 2.438227
v -1.689343 27.609303 2.468806
v -1.385577 26.619707 1.876577
v -1.181808 27.413267 1.939425
v -0.930444 27.875685 2.036564
v -1.368528 28.180470 2.540764
v -0.670853 28.069817 2.131626
v -0.986017 28.436235 2.680351
v -1.802164 30.789440 3.321319
v -2.699268 30.685843 3.054142
v -3.629357 30.558350 2.922143
v -3.588521 31.244329 2.961555
v -4.312884 31.215786 2.535018
v -4.433099 30.469862 2.577825
v -4.585107 29.718702 2.737227
v -5.089609 30.440075 2.115714
v -5.188612 29.623493 2.160582
v -5.428212 28.811203 2.362809
v -5.625637 29.618843 1.500605
v -5.860478 28.798414 1.614990
v -6.170882 27.934546 1.790532
v -6.009767 28.812244 0.753529
v -6.282489 27.949820 0.851644
v -6.485760 26.977390 0.930715
v -6.069425 27.937164 -0.056980
v -6.280529 26.991894 -0.012951
v -6.448544 25.956017 -0.003391
v -6.077962 19.705143 -0.307979
v -6.253688 18.817902 -0.427945
v -6.168252 18.674038 0.161147
v -6.225273 19.553625 0.331129
v -6.212243 19.382669 0.989573
v -6.483241 20.301065 1.290790
v -6.101979 20.159180 1.961872
v -5.489399 21.152464 2.684392
v -5.461943 20.118042 2.303579
v -4.673445 22.228245 3.085310
v -4.738788 21.152884 2.716572
v -3.912132 22.203005 3.032731
v -4.024220 21.113674 2.760351
v -3.136939 22.188232 2.868407
v -3.103493 23.344019 2.845754
v -2.265032 24.490299 2.447116
v -2.439972 23.343315 2.365380
v -1.708159 24.465113 1.823787
v -1.826013 23.327038 1.810566
v -1.571228 25.588127 1.830919
v -1.279776 24.423294 1.116501
v -1.112560 25.514904 1.162153
v -0.965190 26.515829 1.213121
v -0.897983 25.431082 0.395860
v -0.782034 26.403837 0.450574
v -0.688032 27.153278 0.495110
v -0.825227 27.275051 1.267053
v -0.566973 27.635752 0.531306
v -0.639977 27.720390 1.335018
v -0.430116 27.932058 0.554376
v -0.464061 27.944607 1.385172
v -4.181909 31.955738 2.569916
v -4.811329 32.009747 2.157175
v -4.978841 31.236643 2.133905
v -5.099535 32.005131 1.473708
v -5.328473 31.239843 1.466044
v -5.509007 30.443119 1.470972
v -5.296227 31.176302 0.659929
v -5.498004 30.398434 0.656126
v -5.700981 29.603338 0.682712
v -5.335136 30.345472 -0.194067
v -5.579657 29.578842 -0.177284
v -5.833389 28.787310 -0.123695
v -2.038968 20.183445 0.762818
v -2.072366 20.273720 0.051397
v -1.845044 21.243404 0.126517
v -1.841198 21.178982 0.886537
v -2.325943 19.257788 0.641698
v -2.312814 19.365612 -0.010369
v -2.617782 18.365023 0.503242
v -2.532159 18.475779 -0.084385
v -2.187145 20.075523 1.524270
v -2.448754 19.098068 1.348535
v -2.779498 18.193537 1.125480
v -2.950060 19.018353 1.953253
v -3.244193 18.116217 1.653859
v -5.994771 18.548162 0.709617
v -5.628977 18.482639 1.112191
v -5.877107 19.268707 1.533520
v -5.291834 18.427814 1.463953
v -5.350675 19.258053 1.806916
v -4.822697 19.263161 1.918444
v -4.795200 20.154442 2.320231
v -4.171561 20.093325 2.460963
v -3.257234 21.076435 2.706654
v -3.452000 20.032976 2.462437
v -2.432899 22.193092 2.439141
v -2.508074 21.073717 2.359080
v -1.960353 22.210342 1.749932
v -2.044727 21.119843 1.664151
v -1.666867 22.229410 0.990954
v -1.485555 23.319113 1.059915
v -1.047204 24.370375 0.338614
v -1.277565 23.300673 0.273897
v -1.565574 22.256048 0.202651
v -2.697845 20.014648 2.169102
v -3.660563 19.045610 2.260343
v -4.322121 19.153282 2.189231
v -4.430807 18.315817 1.804944
v -3.873471 18.179150 1.896835
v -4.906002 18.378540 1.710430
v -4.946533 32.672218 0.705018
v -5.093588 31.930321 0.675608
v -4.854237 32.737526 1.483303
v -4.966691 32.596531 -0.127805
v -5.002544 31.845583 -0.160056
v -5.094157 31.091688 -0.167652
v -1.836908 31.351255 3.438064
v -2.697289 31.306480 3.104404
v -2.522802 31.924381 3.253244
v -2.652579 31.925472 3.195154
v -2.642242 32.025169 3.219095
v -3.309235 32.617134 2.970283
v -3.483013 31.929239 2.966141
v -3.983406 32.676601 2.580739
v -4.573771 32.745674 2.153745
v -4.589705 34.082687 0.859402
v -4.808403 33.396065 0.766852
v -4.620605 33.444843 1.507918
v -4.506458 34.140877 1.603612
v -4.619832 34.009705 0.108723
v -4.866701 33.330238 -0.038725
v -4.282040 33.438084 2.134512
v -4.265617 33.678902 2.188660
v -3.858077 33.170952 2.632449
v -4.035195 33.409939 2.403211
vt 0.264203 0.578557
vt 0.259576 0.592836
vt 0.242527 0.587984
vt 0.242866 0.574290
vt 0.277969 0.588754
vt 0.273096 0.598529
vt 0.277466 0.570587
vt 0.284801 0.579008
vt 0.257863 0.559087
vt 0.272101 0.556728
vt 0.241686 0.557579
vt 0.239973 0.538622
vt 0.254293 0.539505
vt 0.225089 0.570843
vt 0.225427 0.555097
vt 0.225232 0.537361
vt 0.223745 0.517850
vt 0.237716 0.518034
vt 0.209845 0.554061
vt 0.209938 0.537114
vt 0.208737 0.518527
vt 0.206552 0.500770
vt 0.221139 0.499344
vt 0.194120 0.538417
vt 0.192807 0.520271
vt 0.190806 0.502750
vt 0.188826 0.485291
vt 0.203926 0.483270
vt 0.176578 0.522558
vt 0.174804 0.505017
vt 0.173224 0.487312
vt 0.158473 0.489066
vt 0.159601 0.506986
vt 0.157324 0.471042
vt 0.171470 0.469411
vt 0.168495 0.450506
vt 0.155036 0.452414
vt 0.152492 0.434503
vt 0.165582 0.432318
vt 0.186231 0.467575
vt 0.182754 0.448813
vt 0.200705 0.465667
vt 0.196643 0.446967
vt 0.213948 0.463708
vt 0.217877 0.481444
vt 0.234608 0.498359
vt 0.230690 0.479772
vt 0.247523 0.497641
vt 0.243112 0.478284
vt 0.251195 0.518147
vt 0.260787 0.496790
vt 0.264613 0.517173
vt 0.268070 0.538397
vt 0.278441 0.515172
vt 0.281785 0.535555
vt 0.284893 0.552050
vt 0.295305 0.532426
vt 0.298003 0.547219
vt 0.300444 0.555846
vt 0.288381 0.562954
vt 0.302886 0.560185
vt 0.292956 0.569273
vt 0.469798 0.396376
vt 0.455878 0.393474
vt 0.457978 0.383915
vt 0.471408 0.387518
vt 0.441308 0.389558
vt 0.442738 0.378879
vt 0.440438 0.400028
vt 0.427408 0.397922
vt 0.427888 0.386067
vt 0.428898 0.374137
vt 0.225099 0.585122
vt 0.415728 0.384076
vt 0.416798 0.371254
vt 0.209527 0.584025
vt 0.209507 0.569571
vt 0.194786 0.584558
vt 0.194468 0.569961
vt 0.194458 0.554963
vt 0.179286 0.571325
vt 0.178876 0.556584
vt 0.178097 0.540520
vt 0.163592 0.558328
vt 0.162535 0.542449
vt 0.160955 0.524682
vt 0.151990 0.417187
vt 0.151938 0.399102
vt 0.164720 0.397287
vt 0.164843 0.415064
vt 0.178158 0.413597
vt 0.179184 0.430472
vt 0.192509 0.428892
vt 0.209476 0.445110
vt 0.205280 0.427804
vt 0.226104 0.461851
vt 0.221406 0.443407
vt 0.238045 0.459964
vt 0.233244 0.441314
vt 0.250960 0.457953
vt 0.256058 0.476879
vt 0.274317 0.494944
vt 0.269557 0.474951
vt 0.288278 0.492451
vt 0.283416 0.472345
vt 0.292176 0.512475
vt 0.301901 0.489599
vt 0.305615 0.509366
vt 0.308466 0.528539
vt 0.318499 0.505458
vt 0.321217 0.523656
vt 0.323689 0.535904
vt 0.311144 0.541895
vt 0.326028 0.542879
vt 0.313349 0.549291
vt 0.327895 0.547208
vt 0.314919 0.553045
vt 0.427748 0.409711
vt 0.416208 0.408895
vt 0.415718 0.396595
vt 0.404528 0.408032
vt 0.403928 0.395580
vt 0.404008 0.382976
vt 0.405018 0.370059
vt 0.391028 0.394508
vt 0.391098 0.381980
vt 0.392258 0.369366
vt 0.179584 0.585727
vt 0.377148 0.381050
vt 0.378498 0.368598
vt 0.164002 0.586589
vt 0.164125 0.572782
vt 0.281098 0.412387
vt 0.292894 0.407914
vt 0.299819 0.426307
vt 0.287232 0.430205
vt 0.273076 0.396569
vt 0.283673 0.391953
vt 0.263495 0.381284
vt 0.272604 0.377366
vt 0.267772 0.416408
vt 0.260407 0.400262
vt 0.252447 0.384587
vt 0.246867 0.403513
vt 0.240291 0.387675
vt 0.177235 0.395953
vt 0.188755 0.395194
vt 0.190714 0.412458
vt 0.198910 0.394722
vt 0.202029 0.411361
vt 0.211815 0.410386
vt 0.216595 0.426297
vt 0.227407 0.424594
vt 0.246436 0.439150
vt 0.239891 0.422388
vt 0.264623 0.455522
vt 0.260223 0.436585
vt 0.278564 0.452732
vt 0.273938 0.433672
vt 0.292146 0.449408
vt 0.297193 0.469237
vt 0.315175 0.486040
vt 0.310610 0.465852
vt 0.305409 0.445982
vt 0.253852 0.419731
vt 0.233552 0.406416
vt 0.221919 0.408817
vt 0.217611 0.392753
vt 0.228361 0.390599
vt 0.208132 0.394045
vt 0.392518 0.418559
vt 0.391548 0.406761
vt 0.405438 0.420086
vt 0.378668 0.416786
vt 0.377708 0.405320
vt 0.377138 0.393446
vt 0.469098 0.404741
vt 0.454788 0.402683
vt 0.456742 0.412330
vt 0.454428 0.412129
vt 0.454551 0.413705
vt 0.441562 0.421699
vt 0.440538 0.410896
vt 0.428828 0.421575
vt 0.417088 0.420930
vt 0.395028 0.441188
vt 0.393678 0.429987
vt 0.406488 0.431922
vt 0.407428 0.443236
vt 0.382658 0.439149
vt 0.380378 0.427986
vt 0.418438 0.432776
vt 0.418906 0.436734
vt 0.429855 0.429592
vt 0.424564 0.432913
vn 0.0552 -0.0164 0.9983
vn -0.1185 0.0092 0.9929
vn -0.1569 0.1444 0.9770
vn -0.0661 0.1721 0.9829
vn -0.0867 -0.1737 0.9810
vn -0.1991 -0.0684 0.9776
vn 0.2038 -0.2565 0.9448
vn 0.0275 -0.3912 0.9199
vn 0.2290 0.0197 0.9732
vn 0.3961 -0.1191 0.9104
vn -0.0103 0.1398 0.9901
vn 0.0202 0.0918 0.9956
vn 0.3271 0.0000 0.9450
vn -0.4270 0.2917 0.8559
vn -0.3958 0.2366 0.8874
vn -0.3850 0.1477 0.9110
vn -0.3947 0.0466 0.9176
vn 0.0119 0.0210 0.9997
vn -0.7149 0.2828 0.6395
vn -0.7231 0.1706 0.6693
vn -0.7351 0.0700 0.6743
vn -0.7329 0.0036 0.6803
vn -0.4076 -0.0478 0.9119
vn -0.9303 0.1706 0.3248
vn -0.9411 0.0868 0.3268
vn -0.9442 0.0470 0.3259
vn -0.9490 0.0031 0.3153
vn -0.7170 -0.0520 0.6951
vn -0.9949 0.0993 -0.0167
vn -0.9983 0.0563 -0.0168
vn -0.9990 0.0107 -0.0432
vn -0.9845 0.0024 -0.1754
vn -0.9863 0.0541 -0.1560
vn -0.9727 -0.0513 -0.2262
vn -0.9949 -0.0436 -0.0907
vn -0.9845 -0.0864 -0.1527
vn -0.9486 -0.0854 -0.3048
vn -0.9307 -0.1071 -0.3498
vn -0.9700 -0.1473 -0.1932
vn -0.9562 -0.0585 0.2869
vn -0.9608 -0.1274 0.2464
vn -0.7059 -0.1137 0.6991
vn -0.7050 -0.2024 0.6797
vn -0.3557 -0.1886 0.9154
vn -0.3982 -0.1243 0.9088
vn -0.0226 -0.0753 0.9969
vn -0.0566 -0.1670 0.9843
vn 0.3809 -0.0873 0.9205
vn 0.2958 -0.1406 0.9448
vn 0.3848 -0.0284 0.9226
vn 0.5428 -0.0918 0.8349
vn 0.5193 -0.0784 0.8510
vn 0.4763 -0.0846 0.8752
vn 0.6262 -0.1038 0.7728
vn 0.6175 -0.1416 0.7737
vn 0.5514 -0.2454 0.7973
vn 0.7642 -0.1752 0.6207
vn 0.7177 -0.3120 0.6226
vn 0.5721 -0.5697 0.5901
vn 0.3437 -0.4513 0.8235
vn 0.4027 -0.7396 0.5393
vn 0.1440 -0.5997 0.7872
vn -0.2806 -0.1111 0.9534
vn -0.1961 -0.0632 0.9785
vn -0.2615 0.0478 0.9640
vn -0.3342 0.0016 0.9425
vn -0.5057 0.0694 0.8599
vn -0.4902 0.1359 0.8609
vn -0.4656 0.2528 0.8481
vn -0.7334 0.1505 0.6629
vn -0.7420 0.2616 0.6172
vn -0.7231 0.3415 0.6004
vn -0.9167 0.2616 0.3021
vn -0.8839 0.3487 0.3117
vn -0.9039 0.2867 0.3175
vn -0.9491 0.3135 -0.0318
vn -0.9670 0.2517 -0.0386
vn -0.9858 0.1650 -0.0326
vn -0.9503 0.2263 -0.2136
vn -0.9657 0.1641 -0.2014
vn -0.9794 0.1072 -0.1714
vn -0.9749 -0.0441 -0.2181
vn -0.9968 0.0724 -0.0328
vn -0.9974 -0.0610 0.0393
vn -0.9859 -0.1361 -0.0973
vn -0.9163 -0.3275 0.2303
vn -0.9477 -0.2461 0.2034
vn -0.6879 -0.3507 0.6355
vn -0.3004 -0.2740 0.9136
vn -0.2723 -0.3997 0.8752
vn -0.0698 -0.2416 0.9679
vn -0.0776 -0.3007 0.9506
vn 0.1488 -0.2036 0.9677
vn 0.0052 -0.2626 0.9649
vn 0.3896 -0.1033 0.9152
vn 0.5073 -0.0695 0.8590
vn 0.6203 -0.1051 0.7773
vn 0.6402 -0.0587 0.7660
vn 0.7941 -0.1259 0.5946
vn 0.8189 -0.1144 0.5624
vn 0.7842 -0.1294 0.6068
vn 0.9038 -0.1566 0.3983
vn 0.8947 -0.1462 0.4220
vn 0.8979 -0.1713 0.4054
vn 0.9491 -0.1479 0.2782
vn 0.9564 -0.1499 0.2508
vn 0.9536 -0.2194 0.2063
vn 0.8904 -0.2764 0.3616
vn 0.9072 -0.3969 0.1396
vn 0.8186 -0.4975 0.2871
vn 0.8485 -0.5220 0.0866
vn 0.7247 -0.6495 0.2301
vn -0.5175 0.1024 0.8495
vn -0.7451 0.1925 0.6386
vn -0.7309 0.1414 0.6677
vn -0.9455 0.2635 0.1912
vn -0.9517 0.2283 0.2054
vn -0.9478 0.1875 0.2580
vn -0.9613 0.2441 -0.1278
vn -0.9638 0.2453 -0.1042
vn -0.9580 0.2826 -0.0496
vn -0.9419 0.2716 -0.1977
vn -0.9411 0.2925 -0.1694
vn -0.9382 0.2896 -0.1898
vn 0.9693 -0.2375 0.0638
vn 0.9704 -0.2361 -0.0498
vn 0.9770 -0.2132 0.0035
vn 0.9729 -0.1884 0.1343
vn 0.9530 -0.2975 0.0570
vn 0.9614 -0.2746 -0.0178
vn 0.9452 -0.3174 0.0767
vn 0.9600 -0.2786 0.0274
vn 0.8871 -0.2555 0.3843
vn 0.8622 -0.3482 0.3679
vn 0.8388 -0.3944 0.3753
vn 0.5610 -0.3582 0.7463
vn 0.5328 -0.4245 0.7320
vn -0.8996 -0.3151 0.3024
vn -0.6735 -0.4393 0.5945
vn -0.6655 -0.4469 0.5978
vn -0.4697 -0.3727 0.8003
vn -0.3517 -0.4362 0.8283
vn -0.2848 -0.3371 0.8973
vn -0.1472 -0.3537 0.9237
vn -0.1298 -0.2715 0.9536
vn 0.2642 -0.2147 0.9403
vn 0.1889 -0.2586 0.9473
vn 0.6629 -0.0621 0.7462
vn 0.6417 -0.1804 0.7454
vn 0.8678 -0.1082 0.4850
vn 0.8941 -0.1617 0.4177
vn 0.9539 -0.1841 0.2370
vn 0.9257 -0.1802 0.3327
vn 0.9429 -0.1799 0.2804
vn 0.9493 -0.2135 0.2306
vn 0.9678 -0.2212 0.1201
vn 0.5964 -0.2715 0.7554
vn 0.1289 -0.3240 0.9373
vn -0.2435 -0.2869 0.9265
vn -0.2802 -0.3192 0.9053
vn 0.0863 -0.4033 0.9110
vn -0.3704 -0.2716 0.8883
vn -0.9802 0.1943 0.0379
vn -0.9753 0.2105 -0.0668
vn -0.9303 0.2775 0.2400
vn -0.9902 0.1386 -0.0161
vn -0.9786 0.1609 -0.1284
vn -0.9489 0.2365 -0.2090
vn -0.3211 -0.1369 0.9371
vn -0.2415 -0.0888 0.9663
vn -0.3609 -0.1213 0.9247
vn -0.2787 -0.0441 0.9594
vn -0.2962 0.0331 0.9546
vn -0.4278 0.0748 0.9008
vn -0.3848 0.0426 0.9220
vn -0.5498 0.1442 0.8228
vn -0.7558 0.2495 0.6055
vn -0.9606 0.2585 0.1021
vn -0.9670 0.2375 0.0921
vn -0.9323 0.2294 0.2795
vn -0.9515 0.1572 0.2646
vn -0.9476 0.3185 0.0254
vn -0.9745 0.2221 0.0305
vn -0.7997 0.1940 0.5682
vn -0.8851 0.0429 0.4635
vn -0.6105 0.1626 0.7752
vn -0.6357 0.1852 0.7494
usemtl male_feet_low:polySurface9SG.019
s 1
f 1/1/1 2/2/2 3/3/3 4/4/4
f 1/1/1 5/5/5 6/6/6 2/2/2
f 1/1/1 7/7/7 8/8/8 5/5/5
f 1/1/1 9/9/9 10/10/10 7/7/7
f 1/1/1 4/4/4 11/11/11 9/9/9
f 11/11/11 12/12/12 13/13/13 9/9/9
f 11/11/11 4/4/4 14/14/14 15/15/15
f 11/11/11 15/15/15 16/16/16 12/12/12
f 16/16/16 17/17/17 18/18/18 12/12/12
f 16/16/16 15/15/15 19/19/19 20/20/20
f 16/16/16 20/20/20 21/21/21 17/17/17
f 21/21/21 22/22/22 23/23/23 17/17/17
f 21/21/21 20/20/20 24/24/24 25/25/25
f 21/21/21 25/25/25 26/26/26 22/22/22
f 22/22/22 26/26/26 27/27/27 28/28/28
f 26/26/26 25/25/25 29/29/29 30/30/30
f 31/31/31 27/27/27 26/26/26 30/30/30
f 32/32/32 31/31/31 30/30/30 33/33/33
f 32/32/32 34/34/34 35/35/35 31/31/31
f 36/36/36 37/37/37 38/38/38 39/39/39
f 40/40/40 35/35/35 36/36/36 41/41/41
f 36/36/36 35/35/35 34/34/34 37/37/37
f 42/42/42 40/40/40 41/41/41 43/43/43
f 40/40/40 42/42/42 28/28/28 27/27/27
f 40/40/40 27/27/27 31/31/31 35/35/35
f 28/28/28 42/42/42 44/44/44 45/45/45
f 46/46/46 23/23/23 45/45/45 47/47/47
f 45/45/45 23/23/23 22/22/22 28/28/28
f 48/48/48 46/46/46 47/47/47 49/49/49
f 46/46/46 48/48/48 50/50/50 18/18/18
f 46/46/46 18/18/18 17/17/17 23/23/23
f 50/50/50 48/48/48 51/51/51 52/52/52
f 50/50/50 52/52/52 53/53/53 13/13/13
f 50/50/50 13/13/13 12/12/12 18/18/18
f 53/53/53 52/52/52 54/54/54 55/55/55
f 53/53/53 55/55/55 56/56/56 10/10/10
f 53/53/53 10/10/10 9/9/9 13/13/13
f 56/56/56 55/55/55 57/57/57 58/58/58
f 56/56/56 58/58/58 59/59/59 60/60/60
f 56/56/56 60/60/60 7/7/7 10/10/10
f 60/60/60 59/59/59 61/61/61 62/62/62
f 60/60/60 62/62/62 8/8/8 7/7/7
f 63/63/63 64/64/64 2/65/2 6/66/6
f 64/64/64 65/67/65 3/68/3 2/65/2
f 65/67/65 66/69/66 67/70/67 68/71/68
f 65/67/65 68/71/68 69/72/69 3/68/3
f 69/73/69 14/14/14 4/4/4 3/3/3
f 69/72/69 68/71/68 70/74/70 71/75/71
f 69/73/69 71/76/71 72/77/72 14/14/14
f 72/77/72 19/19/19 15/15/15 14/14/14
f 72/77/72 71/76/71 73/78/73 74/79/74
f 72/77/72 74/79/74 75/80/75 19/19/19
f 75/80/75 24/24/24 20/20/20 19/19/19
f 75/80/75 74/79/74 76/81/76 77/82/77
f 75/80/75 77/82/77 78/83/78 24/24/24
f 78/83/78 29/29/29 25/25/25 24/24/24
f 78/83/78 77/82/77 79/84/79 80/85/80
f 78/83/78 80/85/80 81/86/81 29/29/29
f 81/86/81 33/33/33 30/30/30 29/29/29
f 82/87/82 83/88/83 84/89/84 85/90/85
f 82/87/82 85/90/85 39/39/39 38/38/38
f 39/39/39 85/90/85 86/91/86 87/92/87
f 43/43/43 41/41/41 87/92/87 88/93/88
f 87/92/87 41/41/41 36/36/36 39/39/39
f 89/94/89 43/43/43 88/93/88 90/95/90
f 91/96/91 44/44/44 89/94/89 92/97/92
f 89/94/89 44/44/44 42/42/42 43/43/43
f 93/98/93 91/96/91 92/97/92 94/99/94
f 91/96/91 93/98/93 49/49/49 47/47/47
f 91/96/91 47/47/47 45/45/45 44/44/44
f 49/49/49 93/98/93 95/100/95 96/101/96
f 97/102/97 51/51/51 96/101/96 98/103/98
f 96/101/96 51/51/51 48/48/48 49/49/49
f 99/104/99 97/102/97 98/103/98 100/105/100
f 97/102/97 99/104/99 101/106/101 54/54/54
f 97/102/97 54/54/54 52/52/52 51/51/51
f 101/106/101 99/104/99 102/107/102 103/108/103
f 101/106/101 103/108/103 104/109/104 57/57/57
f 101/106/101 57/57/57 55/55/55 54/54/54
f 104/109/104 103/108/103 105/110/105 106/111/106
f 104/109/104 106/111/106 107/112/107 108/113/108
f 104/109/104 108/113/108 58/58/58 57/57/57
f 108/113/108 107/112/107 109/114/109 110/115/110
f 108/113/108 110/115/110 59/59/59 58/58/58
f 110/115/110 109/114/109 111/116/111 112/117/112
f 110/115/110 112/117/112 61/61/61 59/59/59
f 113/118/113 114/119/114 115/120/115 67/70/67
f 115/120/115 70/74/70 68/71/68 67/70/67
f 115/120/115 114/119/114 116/121/116 117/122/117
f 115/120/115 117/122/117 118/123/118 70/74/70
f 118/123/118 73/124/73 71/75/71 70/74/70
f 118/123/118 117/122/117 119/125/119 120/126/120
f 118/123/118 120/126/120 121/127/121 73/124/73
f 121/128/121 76/81/76 74/79/74 73/78/73
f 121/127/121 120/126/120 122/129/122 123/130/123
f 121/128/121 123/131/123 124/132/124 76/81/76
f 124/132/124 79/84/79 77/82/77 76/81/76
f 125/133/125 126/134/126 127/135/127 128/136/128
f 126/134/126 125/133/125 129/137/129 130/138/130
f 129/137/129 131/139/131 132/140/132 130/138/130
f 129/137/129 125/133/125 133/141/133 134/142/134
f 129/137/129 134/142/134 135/143/135 131/139/131
f 135/143/135 134/142/134 136/144/136 137/145/137
f 138/146/138 139/147/139 140/148/140 86/91/86
f 138/146/138 86/91/86 85/90/85 84/89/84
f 140/148/140 139/147/139 141/149/141 142/150/142
f 140/148/140 142/150/142 90/95/90 88/93/88
f 140/148/140 88/93/88 87/92/87 86/91/86
f 90/95/90 142/150/142 143/151/143 144/152/144
f 94/99/94 92/97/92 144/152/144 145/153/145
f 144/152/144 92/97/92 89/94/89 90/95/90
f 146/154/146 94/99/94 145/153/145 147/155/147
f 148/156/148 95/100/95 146/154/146 149/157/149
f 146/154/146 95/100/95 93/98/93 94/99/94
f 150/158/150 148/156/148 149/157/149 151/159/151
f 148/156/148 150/158/150 100/105/100 98/103/98
f 148/156/148 98/103/98 96/101/96 95/100/95
f 100/105/100 150/158/150 152/160/152 153/161/153
f 154/162/154 102/107/102 153/161/153 155/163/155
f 153/161/153 102/107/102 99/104/99 100/105/100
f 154/162/154 105/110/105 103/108/103 102/107/102
f 156/164/156 155/163/155 153/161/153 152/160/152
f 128/136/128 127/135/127 156/164/156 152/160/152
f 128/136/128 152/160/152 150/158/150 151/159/151
f 157/165/157 133/141/133 151/159/151 149/157/149
f 157/165/157 149/157/149 146/154/146 147/155/147
f 147/155/147 158/166/158 136/144/136 157/165/157
f 147/155/147 145/153/145 159/167/159 158/166/158
f 159/167/159 160/168/160 161/169/161 158/166/158
f 159/167/159 145/153/145 144/152/144 143/151/143
f 159/167/159 143/151/143 162/170/162 160/168/160
f 162/170/162 143/151/143 142/150/142 141/149/141
f 158/166/158 161/169/161 137/145/137 136/144/136
f 157/165/157 136/144/136 134/142/134 133/141/133
f 151/159/151 133/141/133 125/133/125 128/136/128
f 163/171/163 164/172/164 116/121/116 165/173/165
f 163/171/163 166/174/166 167/175/167 164/172/164
f 164/172/164 119/125/119 117/122/117 116/121/116
f 164/172/164 167/175/167 168/176/168 119/125/119
f 168/176/168 122/129/122 120/126/120 119/125/119
f 63/63/63 169/177/169 170/178/170 64/64/64
f 64/64/64 170/178/170 66/69/66 65/67/65
f 169/177/169 171/179/171 172/180/172 170/178/170
f 173/181/173 174/182/174 175/183/175 172/180/172
f 170/178/170 172/180/172 175/183/175 66/69/66
f 175/183/175 174/182/174 176/184/176 113/118/113
f 66/69/66 175/183/175 113/118/113 67/70/67
f 113/118/113 176/184/176 177/185/177 114/119/114
f 178/186/178 179/187/179 180/188/180 181/189/181
f 179/187/179 178/186/178 182/190/182 183/191/183
f 180/188/180 165/173/165 177/185/177 184/192/184
f 181/189/181 180/188/180 184/192/184 185/193/185
f 165/173/165 180/188/180 179/187/179 163/171/163
f 163/171/163 179/187/179 183/191/183 166/174/166
f 184/192/184 177/185/177 176/184/176 186/194/186 187/195/187
f 187/195/187 185/193/185 184/192/184
f 174/182/174 186/194/186 176/184/176
f 165/173/165 116/121/116 114/119/114 177/185/177
f 171/179/171 173/181/173 172/180/172
