# Blender v2.79 (sub 0) OBJ File: 'male.blend'
# www.blender.org
mtllib wrist_lt.mtl
o male_06_wrist_Lt_half_Lt
v 17.628334 37.204021 1.196107
v 17.198547 37.362858 1.000648
v 17.171526 37.146667 0.734496
v 17.589016 36.978222 0.885274
v 17.933380 37.018463 1.440115
v 17.996044 37.275925 1.762977
v 17.697271 37.440418 1.490828
v 17.258348 37.605289 1.259648
v 18.057837 36.651440 1.843432
v 18.130913 37.100742 2.185935
v 18.187540 37.525047 1.917862
v 17.837269 37.696838 1.709811
v 17.373167 37.879799 1.481436
v 18.450386 37.361465 2.227616
v 18.084881 37.958992 1.729803
v 17.592587 38.190479 1.514831
v 18.454004 37.730618 1.893294
v 18.766401 37.528225 2.122695
v 18.366814 38.125771 1.538373
v 17.857206 38.430840 1.334946
v 18.732077 37.874958 1.723544
v 19.020803 37.620651 1.889970
v 18.601038 38.179695 1.250197
v 18.081842 38.534081 1.030157
v 19.222116 37.641254 1.602810
v 18.960171 37.909904 1.446035
v 18.215769 38.507599 0.698735
v 18.751070 38.159084 0.938136
v 19.090708 37.858070 1.138034
v 19.355715 37.606060 1.304121
v 18.278484 38.409351 0.399537
v 18.820021 38.076687 0.638517
v 19.158934 37.780323 0.844255
v 19.417219 37.527794 1.016187
v 18.844904 37.959068 0.359267
v 18.314333 38.290718 0.126203
v 19.180117 37.672585 0.565822
v 19.428055 37.423004 0.744184
v 18.321815 38.139252 -0.140887
v 18.829281 37.798717 0.091978
v 19.388012 37.285748 0.488119
v 19.160269 37.527046 0.296462
v 18.241947 37.905643 -0.354373
v 18.737730 37.579128 -0.127528
v 19.296726 37.120632 0.253046
v 19.078939 37.337185 0.056804
v 18.061180 37.625221 -0.429571
v 18.550035 37.332565 -0.217531
v 19.152231 36.947067 0.058057
v 18.897432 37.127041 -0.067018
v 17.847141 37.363960 -0.420107
v 18.328621 37.121983 -0.229243
v 18.683493 36.954582 -0.109255
v 18.960489 36.783581 -0.079075
v 17.626854 37.183971 -0.293764
v 18.095484 36.981655 -0.148710
v 18.458883 36.835518 -0.065239
v 18.727541 36.628326 -0.122407
v 17.900394 36.917160 0.019702
v 17.453671 37.111763 -0.082433
v 18.255377 36.756332 0.065637
v 18.481005 36.473446 -0.020527
v 17.331825 37.089451 0.160130
v 17.766109 36.911057 0.258350
v 18.300367 36.371536 0.280901
v 18.106054 36.723980 0.309726
v 17.228821 37.069416 0.432189
v 17.653244 36.899979 0.548343
v 17.916794 36.803436 1.038585
v 17.988922 36.717957 0.641940
v 18.248091 36.408192 0.715608
v 18.189678 36.539482 1.195864
vt 0.168109 0.707958
vt 0.171133 0.716596
vt 0.177466 0.716025
vt 0.175796 0.707926
vt 0.166026 0.700292
vt 0.157102 0.699658
vt 0.160232 0.707704
vt 0.164493 0.717241
vt 0.165169 0.689962
vt 0.154374 0.691061
vt 0.149552 0.698917
vt 0.152640 0.707334
vt 0.157134 0.717781
vt 0.146645 0.690987
vt 0.145281 0.707302
vt 0.149140 0.718637
vt 0.142574 0.698611
vt 0.139804 0.690839
vt 0.137552 0.707461
vt 0.140861 0.719779
vt 0.135416 0.698896
vt 0.133037 0.691632
vt 0.129992 0.707292
vt 0.133058 0.720741
vt 0.126312 0.692616
vt 0.128257 0.699362
vt 0.126323 0.721809
vt 0.123721 0.708455
vt 0.122061 0.700525
vt 0.120253 0.693895
vt 0.120539 0.722761
vt 0.118297 0.709956
vt 0.116679 0.702068
vt 0.114967 0.695449
vt 0.113233 0.711352
vt 0.115294 0.723501
vt 0.111710 0.703739
vt 0.110082 0.697247
vt 0.109902 0.724304
vt 0.107925 0.712684
vt 0.105302 0.699235
vt 0.106540 0.705452
vt 0.103759 0.725436
vt 0.102088 0.714238
vt 0.100301 0.701519
vt 0.101073 0.707313
vt 0.097245 0.726546
vt 0.096400 0.715803
vt 0.095533 0.704141
vt 0.096072 0.709290
vt 0.090997 0.727593
vt 0.091293 0.717675
vt 0.091811 0.711595
vt 0.091419 0.706763
vt 0.085297 0.728597
vt 0.086683 0.720519
vt 0.088068 0.714344
vt 0.087698 0.709332
vt 0.082379 0.722221
vt 0.080360 0.728766
vt 0.084304 0.717009
vt 0.083362 0.711933
vt 0.075908 0.728301
vt 0.077885 0.722644
vt 0.077695 0.715201
vt 0.079144 0.718542
vt 0.183113 0.715253
vt 0.182457 0.708053
vt 0.188050 0.714217
vt 0.187596 0.708106
vt 0.175479 0.700778
vt 0.183039 0.702005
vt 0.189457 0.703845
vt 0.192713 0.699288
vt 0.185386 0.695640
vt 0.177255 0.693440
vn -0.5898 -0.5964 0.5444
vn -0.5043 -0.6282 0.5925
vn -0.4619 -0.8081 0.3656
vn -0.5232 -0.7840 0.3341
vn -0.8602 -0.4175 0.2928
vn -0.8561 -0.0624 0.5130
vn -0.6114 -0.4163 0.6730
vn -0.5302 -0.4989 0.6855
vn -0.9528 -0.2393 0.1870
vn -0.8825 0.1864 0.4319
vn -0.4980 0.3750 0.7819
vn -0.4681 0.0121 0.8836
vn -0.4718 -0.1341 0.8714
vn -0.4573 0.5804 0.6738
vn -0.1130 0.5045 0.8560
vn -0.1716 0.4330 0.8849
vn -0.0645 0.6403 0.7654
vn -0.0327 0.7233 0.6898
vn 0.2182 0.7658 0.6049
vn 0.1811 0.7506 0.6354
vn 0.2788 0.7764 0.5652
vn 0.3209 0.7741 0.5457
vn 0.4449 0.8406 0.3090
vn 0.4177 0.8478 0.3267
vn 0.5586 0.7685 0.3120
vn 0.5136 0.8015 0.3062
vn 0.5380 0.8426 0.0246
vn 0.5762 0.8163 0.0398
vn 0.6463 0.7600 0.0686
vn 0.6722 0.7362 0.0782
vn 0.5802 0.7918 -0.1906
vn 0.6305 0.7587 -0.1640
vn 0.7122 0.6917 -0.1198
vn 0.7306 0.6744 -0.1062
vn 0.6548 0.6849 -0.3197
vn 0.6060 0.7213 -0.3353
vn 0.7456 0.6007 -0.2883
vn 0.7753 0.5713 -0.2692
vn 0.6171 0.5555 -0.5573
vn 0.6543 0.5374 -0.5321
vn 0.7952 0.4252 -0.4322
vn 0.7465 0.4646 -0.4763
vn 0.5164 0.2145 -0.8290
vn 0.5497 0.2361 -0.8013
vn 0.7364 0.2463 -0.6301
vn 0.6516 0.2457 -0.7177
vn 0.3352 -0.1208 -0.9344
vn 0.3565 -0.0859 -0.9303
vn 0.5288 0.1089 -0.8418
vn 0.4315 0.0267 -0.9017
vn 0.1408 -0.4176 -0.8977
vn 0.1664 -0.3573 -0.9190
vn 0.1679 -0.1230 -0.9781
vn 0.2093 0.0750 -0.9750
vn -0.1135 -0.7325 -0.6712
vn -0.0821 -0.6708 -0.7371
vn -0.1665 -0.3499 -0.9219
vn -0.1859 -0.0370 -0.9819
vn -0.2968 -0.8621 -0.4107
vn -0.2898 -0.8888 -0.3551
vn -0.5068 -0.5873 -0.6310
vn -0.5908 -0.2729 -0.7592
vn -0.3324 -0.9214 -0.2013
vn -0.3736 -0.9018 -0.2171
vn -0.7958 -0.4935 -0.3509
vn -0.6468 -0.7057 -0.2892
vn -0.3771 -0.9262 -0.0060
vn -0.4247 -0.9051 -0.0212
vn -0.7330 -0.6602 0.1639
vn -0.6564 -0.7534 -0.0381
vn -0.7801 -0.6241 -0.0445
vn -0.8229 -0.5653 0.0573
usemtl male_feet_low:polySurface9SG.008
s 1
f 1/1/1 2/2/2 3/3/3 4/4/4
f 1/1/1 5/5/5 6/6/6 7/7/7
f 7/7/7 8/8/8 2/2/2 1/1/1
f 6/6/6 5/5/5 9/9/9 10/10/10
f 7/7/7 6/6/6 11/11/11 12/12/12
f 12/12/12 13/13/13 8/8/8 7/7/7
f 11/11/11 6/6/6 10/10/10 14/14/14
f 15/15/15 16/16/16 13/13/13 12/12/12
f 17/17/17 15/15/15 12/12/12 11/11/11
f 17/17/17 11/11/11 14/14/14 18/18/18
f 19/19/19 20/20/20 16/16/16 15/15/15
f 21/21/21 19/19/19 15/15/15 17/17/17
f 21/21/21 17/17/17 18/18/18 22/22/22
f 23/23/23 24/24/24 20/20/20 19/19/19
f 21/21/21 22/22/22 25/25/25 26/26/26
f 23/23/23 19/19/19 21/21/21 26/26/26
f 27/27/27 24/24/24 23/23/23 28/28/28
f 29/29/29 26/26/26 25/25/25 30/30/30
f 28/28/28 23/23/23 26/26/26 29/29/29
f 31/31/31 27/27/27 28/28/28 32/32/32
f 33/33/33 29/29/29 30/30/30 34/34/34
f 32/32/32 28/28/28 29/29/29 33/33/33
f 35/35/35 36/36/36 31/31/31 32/32/32
f 37/37/37 35/35/35 32/32/32 33/33/33
f 37/37/37 33/33/33 34/34/34 38/38/38
f 39/39/39 36/36/36 35/35/35 40/40/40
f 37/37/37 38/38/38 41/41/41 42/42/42
f 40/40/40 35/35/35 37/37/37 42/42/42
f 43/43/43 39/39/39 40/40/40 44/44/44
f 42/42/42 41/41/41 45/45/45 46/46/46
f 44/44/44 40/40/40 42/42/42 46/46/46
f 47/47/47 43/43/43 44/44/44 48/48/48
f 46/46/46 45/45/45 49/49/49 50/50/50
f 48/48/48 44/44/44 46/46/46 50/50/50
f 51/51/51 47/47/47 48/48/48 52/52/52
f 53/53/53 50/50/50 49/49/49 54/54/54
f 52/52/52 48/48/48 50/50/50 53/53/53
f 55/55/55 51/51/51 52/52/52 56/56/56
f 57/57/57 53/53/53 54/54/54 58/58/58
f 56/56/56 52/52/52 53/53/53 57/57/57
f 59/59/59 60/60/60 55/55/55 56/56/56
f 61/61/61 59/59/59 56/56/56 57/57/57
f 61/61/61 57/57/57 58/58/58 62/62/62
f 63/63/63 60/60/60 59/59/59 64/64/64
f 61/61/61 62/62/62 65/65/65 66/66/66
f 64/64/64 59/59/59 61/61/61 66/66/66
f 4/4/4 3/3/3 67/67/67 68/68/68
f 67/67/67 63/69/63 64/70/64 68/68/68
f 69/71/69 5/5/5 1/1/1 4/4/4
f 70/72/70 66/73/66 65/74/65 71/75/71
f 69/71/69 72/76/72 9/9/9 5/5/5
f 70/72/70 71/75/71 72/76/72 69/71/69
f 4/4/4 68/68/68 70/72/70 69/71/69
f 70/72/70 68/68/68 64/70/64 66/73/66
