# Blender v2.79 (sub 0) OBJ File: 'male.blend'
# www.blender.org
mtllib elbow_lt.mtl
o male_26_elbow_Lt_half_Lt
v 11.681090 39.938015 -2.494416
v 11.740167 39.997643 -2.608190
v 12.083313 39.835266 -2.525896
v 10.819460 40.232224 -2.230371
v 11.031703 40.455429 -2.619069
v 12.029851 40.412636 -2.908364
v 12.749560 40.066334 -2.671943
v 12.540859 39.746323 -2.487577
v 11.315993 40.852047 -2.866279
v 12.252181 40.934570 -2.562125
v 12.948343 40.597557 -2.415401
v 11.588502 41.343079 -2.647150
v 12.430175 41.417122 -2.190403
v 12.688435 41.295067 -2.145584
v 13.038058 40.867001 -2.228943
v 11.819042 41.827698 -2.337331
v 12.478699 41.551811 -2.099215
v 11.938993 42.213917 -1.879790
v 13.360946 39.606728 -2.366304
v 13.464495 39.778519 -2.440548
v 14.144183 39.517868 -2.132498
v 13.609065 40.168797 -2.301120
v 13.408283 40.413830 -2.308728
vt 0.062766 0.846781
vt 0.065144 0.846851
vt 0.066114 0.840034
vt 0.055332 0.861495
vt 0.064256 0.861527
vt 0.075263 0.847221
vt 0.076691 0.833148
vt 0.069437 0.832426
vt 0.075073 0.861696
vt 0.087560 0.848522
vt 0.088713 0.834691
vt 0.086926 0.862288
vt 0.098969 0.849505
vt 0.099213 0.844399
vt 0.094628 0.835397
vt 0.098472 0.862902
vt 0.101901 0.849723
vt 0.109944 0.863599
vt 0.076022 0.819235
vt 0.079926 0.819772
vt 0.082421 0.806164
vt 0.087826 0.820715
vt 0.090014 0.825911
vn -0.4114 -0.6823 -0.6043
vn -0.2928 -0.5220 -0.8011
vn -0.0502 -0.5614 -0.8260
vn -0.4208 -0.6743 -0.6068
vn -0.3348 -0.5140 -0.7897
vn 0.1339 0.0534 -0.9895
vn 0.2798 -0.0067 -0.9600
vn 0.0339 -0.5129 -0.8578
vn -0.0004 -0.0042 -1.0000
vn 0.3572 0.3829 -0.8519
vn 0.3783 0.3611 -0.8523
vn 0.3327 0.3893 -0.8589
vn 0.4238 0.4607 -0.7798
vn 0.3544 0.4486 -0.8205
vn 0.3586 0.4475 -0.8192
vn 0.4380 0.4665 -0.7685
vn 0.4737 0.5546 -0.6841
vn 0.4783 0.5589 -0.6774
vn 0.0871 -0.4941 -0.8650
vn 0.2744 -0.1700 -0.9465
vn 0.4200 0.0231 -0.9072
vn 0.3997 0.1918 -0.8964
vn 0.3494 0.3013 -0.8872
usemtl male_feet_low:polySurface9SG.039
s 1
f 1/1/1 2/2/2 3/3/3
f 4/4/4 5/5/5 2/2/2 1/1/1
f 2/2/2 6/6/6 3/3/3
f 7/7/7 8/8/8 6/6/6
f 3/3/3 6/6/6 8/8/8
f 2/2/2 5/5/5 9/9/9 6/6/6
f 10/10/10 11/11/11 7/7/7 6/6/6
f 9/9/9 12/12/12 10/10/10 6/6/6
f 10/10/10 13/13/13 11/11/11
f 13/13/13 14/14/14 11/11/11
f 14/14/14 15/15/15 11/11/11
f 12/12/12 16/16/16 13/13/13 10/10/10
f 14/14/14 13/13/13 17/17/17
f 17/17/17 13/13/13 16/16/16 18/18/18
f 19/19/19 20/20/20 21/21/21
f 8/8/8 7/7/7 20/20/20 19/19/19
f 21/21/21 20/20/20 22/22/22
f 20/20/20 7/7/7 22/22/22
f 22/22/22 7/7/7 23/23/23
f 7/7/7 11/11/11 23/23/23
f 23/23/23 11/11/11 15/15/15
